<?xml version="1.0" standalone="no"?>
<!DOCTYPE svg PUBLIC "-//W3C//DTD SVG 1.1//EN" "http://www.w3.org/Graphics/SVG/1.1/DTD/svg11.dtd" >
<svg xmlns="http://www.w3.org/2000/svg" xmlns:xlink="http://www.w3.org/1999/xlink" version="1.1">
<metadata>
Created by FontForge 20170731 at Thu Jan 28 13:14:41 2021
 By Aleksey,,,
Copyright 2020 The Archivo Project Authors (https://github.com/Omnibus-Type/Archivo)
</metadata>
<defs>
<font id="ArchivoExpanded-Bold" horiz-adv-x="0" >
  <font-face 
    font-family="Archivo Expanded"
    font-weight="700"
    font-stretch="expanded"
    units-per-em="1000"
    panose-1="0 0 0 0 0 0 0 0 0 0"
    ascent="800"
    descent="-200"
    x-height="527"
    cap-height="687"
    bbox="-238 -408 1708 1102"
    underline-thickness="44"
    underline-position="-214"
    unicode-range="U+000D-FEFF"
  />
<missing-glyph horiz-adv-x="684" 
d="M92 0v700h500v-700h-500zM172 50h340l-170 255zM142 95l170 255l-170 255v-510zM542 95v510l-170 -255zM342 395l170 255h-340z" />
    <glyph glyph-name="fi" unicode="fi" horiz-adv-x="744" 
d="M122 0v413h-109v114h109v39q0 56 21.5 93.5t62.5 56.5t100 19q20 0 43 -2t45 -5.5t40 -9.5v-97h-68q-48 0 -67.5 -12.5t-19.5 -43.5v-38h155v-114h-155v-413h-157zM519 608v116h156v-116h-156zM519 0v527h156v-527h-156z" />
    <glyph glyph-name="fl" unicode="fl" horiz-adv-x="744" 
d="M122 0v413h-109v114h109v39q0 56 21.5 93.5t62.5 56.5t100 19q20 0 43 -2t45 -5.5t40 -9.5v-97h-68q-48 0 -67.5 -12.5t-19.5 -43.5v-38h155v-114h-155v-413h-157zM519 0v724h156v-724h-156z" />
    <glyph glyph-name="f_f" unicode="ff" horiz-adv-x="847" 
d="M122 0v413h-109v114h109v39q0 56 21.5 93.5t62.5 56.5t100 19q20 0 43.5 -2t45 -5.5t39.5 -9.5v-97h-68q-48 0 -67.5 -12.5t-19.5 -43.5v-38h240v39q0 56 21 93.5t62 56.5t100 19q21 0 44 -2t45 -5.5t39 -9.5v-97h-67q-49 0 -68.5 -12.5t-19.5 -43.5v-38h155v-114h-155
v-413h-156v413h-240v-413h-157z" />
    <glyph glyph-name="f_f_i" unicode="ffi" horiz-adv-x="1140" 
d="M122 0v413h-109v114h109v39q0 56 21.5 93.5t62.5 56.5t100 19q20 0 43.5 -2t45 -5.5t39.5 -9.5v-97h-68q-48 0 -67.5 -12.5t-19.5 -43.5v-38h240v39q0 56 21 93.5t62 56.5t100 19q20 0 43.5 -2t45.5 -5.5t39 -9.5v-97h-67q-49 0 -68.5 -12.5t-19.5 -43.5v-38h155v-114
h-155v-413h-156v413h-240v-413h-157zM915 608v116h157v-116h-157zM915 0v527h157v-527h-157z" />
    <glyph glyph-name="f_f_l" unicode="ffl" horiz-adv-x="1140" 
d="M122 0v413h-109v114h109v39q0 56 21.5 93.5t62.5 56.5t100 19q20 0 43.5 -2t45 -5.5t39.5 -9.5v-97h-68q-48 0 -67.5 -12.5t-19.5 -43.5v-38h240v39q0 56 21 93.5t62 56.5t100 19q20 0 43.5 -2t45.5 -5.5t39 -9.5v-97h-67q-49 0 -68.5 -12.5t-19.5 -43.5v-38h155v-114
h-155v-413h-156v413h-240v-413h-157zM915 0v724h157v-724h-157z" />
    <glyph glyph-name=".notdef" horiz-adv-x="684" 
d="M92 0v700h500v-700h-500zM172 50h340l-170 255zM142 95l170 255l-170 255v-510zM542 95v510l-170 -255zM342 395l170 255h-340z" />
    <glyph glyph-name=".null" 
 />
    <glyph glyph-name="nonmarkingreturn" horiz-adv-x="333" 
 />
    <glyph glyph-name="CR" unicode="&#xd;" horiz-adv-x="600" 
 />
    <glyph glyph-name="space" unicode=" " horiz-adv-x="313" 
 />
    <glyph glyph-name="exclam" unicode="!" horiz-adv-x="334" 
d="M103 240l-30 447h188l-30 -447h-128zM74 0v167h186v-167h-186z" />
    <glyph glyph-name="quotedbl" unicode="&#x22;" horiz-adv-x="467" 
d="M85 392l-35 138v157h146v-157l-34 -138h-77zM306 392l-35 138v157h146v-157l-34 -138h-77z" />
    <glyph glyph-name="numbersign" unicode="#" horiz-adv-x="746" 
d="M88 -12l47 173h-115v104h143l35 130h-126v103h154l55 201h109l-55 -201h173l55 201h109l-55 -201h111v-103h-139l-35 -130h121v-104h-149l-47 -173h-109l46 173h-172l-47 -173h-109zM272 265h173l35 130h-173z" />
    <glyph glyph-name="dollar" unicode="$" horiz-adv-x="684" 
d="M308 -53v783h71v-783h-71zM340 69q-59 0 -113 9.5t-96.5 28.5t-67.5 50t-25 73q0 5 0.5 9t1.5 8h160q0 -2 -0.5 -5t-0.5 -5q0 -23 20 -37t52.5 -20.5t69.5 -6.5q35 0 68.5 4t55.5 16t22 35q0 24 -26 35t-72.5 16.5t-108.5 14.5q-47 7 -87.5 18t-71 28.5t-47.5 45.5
t-17 69q0 44 21 75.5t59.5 51.5t92.5 29t119 9q57 0 107.5 -9t88.5 -28t60 -47t22 -65v-8t-1 -7h-160v5q0 20 -17 32t-44 17.5t-58 5.5q-11 0 -33 -1t-45.5 -5t-39.5 -13t-16 -26q0 -21 25 -31t65.5 -15t87.5 -11q50 -6 95.5 -15t81 -26.5t55.5 -47.5t20 -78
q0 -50 -21 -84.5t-60.5 -55t-96 -29.5t-125.5 -9z" />
    <glyph glyph-name="percent" unicode="%" horiz-adv-x="1107" 
d="M228 0l553 687h100l-552 -687h-101zM261 340q-69 0 -113.5 22t-66 63t-21.5 94q0 55 21.5 95.5t66 62.5t113.5 22t113 -22t66 -62.5t22 -95.5q0 -53 -22 -94t-66 -63t-113 -22zM261 414q52 0 72 28.5t20 70.5v14q0 29 -8.5 51t-28.5 34.5t-55 12.5q-53 0 -73 -28t-20 -70
v-14q0 -42 20 -70.5t73 -28.5zM847 -12q-69 0 -113.5 22t-66 62.5t-21.5 94.5q0 55 21.5 95t66.5 62.5t113 22.5q70 0 114 -22.5t65.5 -62.5t21.5 -95q0 -54 -21.5 -94.5t-66 -62.5t-113.5 -22zM847 62q52 0 72.5 28.5t20.5 70.5v14q0 28 -9 50.5t-29 35t-55 12.5
q-52 0 -72.5 -28t-20.5 -70v-14q0 -42 20.5 -70.5t72.5 -28.5z" />
    <glyph glyph-name="ampersand" unicode="&#x26;" horiz-adv-x="955" 
d="M442 -12q-127 0 -212.5 24t-127.5 69.5t-42 108.5t38 106.5t100 59.5v4q-49 16 -82.5 54.5t-33.5 90.5q0 59 42.5 103t125 67.5t199.5 23.5q115 0 197 -23.5t126.5 -65.5t44.5 -97v-21h-157v11q0 25 -25.5 43t-70.5 27t-103 9q-48 0 -88 -5.5t-68.5 -17.5t-44.5 -29.5
t-16 -41.5q0 -31 18 -49t48 -26t65 -8h132v-107h-147q-37 0 -68.5 -9t-51 -28.5t-19.5 -53.5t25.5 -57t76 -34t125.5 -11q77 0 124 13t67.5 37t20.5 55v195h286v-107h-129v-84q0 -71 -40 -122t-122.5 -77.5t-212.5 -26.5z" />
    <glyph glyph-name="quotesingle" unicode="'" horiz-adv-x="246" 
d="M85 392l-35 138v157h146v-157l-34 -138h-77z" />
    <glyph glyph-name="parenleft" unicode="(" horiz-adv-x="358" 
d="M244 -158q-87 92 -135 208t-48 238q0 123 48 239.5t135 208.5h90q-42 -61 -75.5 -137t-52.5 -156t-19 -155t19 -154.5t52.5 -155t75.5 -136.5h-90z" />
    <glyph glyph-name="parenright" unicode=")" horiz-adv-x="358" 
d="M113 736q88 -92 135.5 -208t47.5 -238q0 -123 -47.5 -239.5t-135.5 -208.5h-89q42 61 75 137t52.5 156.5t19.5 154.5q0 75 -19.5 155t-52.5 155t-75 136h89z" />
    <glyph glyph-name="asterisk" unicode="*" horiz-adv-x="431" 
d="M175 327l12 131l-111 -75l-42 69l122 55l-122 56l42 69l111 -75l-12 130h82l-11 -130l110 75l42 -69l-123 -56l123 -55l-42 -69l-110 75l11 -131h-82z" />
    <glyph glyph-name="plus" unicode="+" horiz-adv-x="727" 
d="M310 0v217h-225v107h225v218h106v-218h225v-107h-225v-217h-106z" />
    <glyph glyph-name="comma" unicode="," horiz-adv-x="327" 
d="M63 -177v73q24 4 44.5 18t33 36.5t12.5 49.5h-83v167h187v-148q0 -70 -28.5 -111.5t-73 -61t-92.5 -23.5z" />
    <glyph glyph-name="hyphen" unicode="-" horiz-adv-x="416" 
d="M50 205v139h316v-139h-316z" />
    <glyph glyph-name="period" unicode="." horiz-adv-x="327" 
d="M70 0v167h187v-167h-187z" />
    <glyph glyph-name="slash" unicode="/" horiz-adv-x="307" 
d="M0 -48l206 784h101l-207 -784h-100z" />
    <glyph glyph-name="zero" unicode="0" horiz-adv-x="769" 
d="M385 -12q-89 0 -152.5 24t-104 70t-59.5 111.5t-19 150.5t19 150.5t59 111.5t103.5 69.5t152.5 23.5t152.5 -23.5t104 -69.5t59 -111.5t18.5 -150.5t-18.5 -150.5t-58.5 -111.5t-103.5 -70t-152.5 -24zM385 102q63 0 100.5 24.5t54.5 73.5t17 123v44q0 73 -17 121.5
t-54.5 72.5t-100.5 24q-62 0 -100 -24t-55 -72.5t-17 -121.5v-44q0 -74 17 -123t55 -73.5t100 -24.5z" />
    <glyph glyph-name="one" unicode="1" horiz-adv-x="683" 
d="M74 0v130h223v368h-223v91q57 4 112 16t106.5 33t96.5 51h64v-559h206v-130h-585z" />
    <glyph glyph-name="two" unicode="2" horiz-adv-x="765" 
d="M53 0v41q0 50 22.5 90.5t60.5 73.5t84 61.5t94 53.5q57 31 107.5 58t82.5 55.5t32 62.5q0 26 -16.5 45.5t-50 30.5t-85.5 11q-57 0 -94.5 -15t-55.5 -39.5t-18 -55.5v-26h-155q-1 7 -2 13t-1 14q0 72 41.5 122t118.5 76.5t182 26.5q67 0 122.5 -12t96 -37t62.5 -62.5
t22 -87.5t-23 -90t-61.5 -71.5t-84.5 -57t-93 -46.5q-38 -17 -74 -33t-63.5 -31.5t-42.5 -33.5h449v-137h-657z" />
    <glyph glyph-name="three" unicode="3" horiz-adv-x="772" 
d="M387 -12q-115 0 -191 26t-113.5 71.5t-37.5 102.5v18h156v-16q0 -41 43.5 -64.5t125.5 -23.5q94 0 141 27.5t47 78.5q0 34 -20.5 52.5t-54.5 26t-74 7.5h-111v109h101q35 0 66.5 9t52 29t20.5 52q0 28 -20 49t-55 32t-82 11q-43 0 -79.5 -11t-58.5 -30t-22 -45v-13h-151
v23q0 53 39 96t111.5 68.5t172.5 25.5q95 0 163.5 -23.5t105 -65t36.5 -97.5q0 -41 -18 -72t-48 -51t-66 -31v-4q71 -13 113 -52.5t42 -116.5q0 -57 -38.5 -102t-113 -70.5t-182.5 -25.5z" />
    <glyph glyph-name="four" unicode="4" horiz-adv-x="754" 
d="M446 0v152h-422v122q46 57 90.5 126t82.5 145t63 154h171q-9 -41 -31 -88.5t-51.5 -96.5t-62.5 -95t-65.5 -83.5t-58.5 -63.5h284v176q12 20 24.5 42.5t24.5 46t21.5 45t16.5 39.5h70v-349h125v-120h-125v-152h-157z" />
    <glyph glyph-name="five" unicode="5" horiz-adv-x="772" 
d="M396 -12q-112 0 -190 29.5t-118.5 81.5t-40.5 120h153q1 -36 24.5 -62.5t64.5 -40.5t92 -14q44 0 85 13.5t67.5 41.5t26.5 71q0 41 -22 68t-60.5 40.5t-90.5 13.5q-37 0 -70 -7.5t-58.5 -21.5t-40.5 -36l-136 18l36 384h548v-136h-423l-15 -148q16 11 45.5 23.5t70.5 22
t90 9.5q85 0 150 -25.5t101.5 -76.5t36.5 -129q0 -71 -39 -125t-113 -84t-174 -30z" />
    <glyph glyph-name="six" unicode="6" horiz-adv-x="774" 
d="M394 -12q-84 0 -148 19.5t-107.5 59.5t-66 104.5t-22.5 153.5q0 101 23 172t67.5 115.5t109.5 65.5t149 21q96 0 164 -26.5t105 -76.5t37 -122h-153q0 39 -19.5 63.5t-54 36t-80.5 11.5q-70 0 -110.5 -25.5t-57.5 -74t-17 -120.5q29 30 67 47.5t79 24.5t77 7
q88 0 154 -26t102.5 -75t36.5 -117q0 -75 -42.5 -128.5t-118 -81.5t-174.5 -28zM393 102q56 0 95 14.5t59.5 41.5t20.5 63q0 35 -19.5 61t-58 40.5t-95.5 14.5q-55 0 -94.5 -14.5t-60.5 -41.5t-21 -62t20.5 -61t59.5 -41t94 -15z" />
    <glyph glyph-name="seven" unicode="7" horiz-adv-x="705" 
d="M172 0q0 83 25 158.5t68 144.5t96.5 131t109.5 116h-451v137h671v-77q-49 -46 -97 -97t-90.5 -106t-75.5 -113t-51.5 -118.5t-18.5 -121.5v-54h-186z" />
    <glyph glyph-name="eight" unicode="8" horiz-adv-x="786" 
d="M393 -12q-111 0 -188.5 23.5t-117.5 67.5t-40 106q0 61 38 101.5t104 64.5q-61 32 -87 69t-26 84q0 60 38.5 103.5t110 67.5t168.5 24t168 -24t109.5 -67.5t38.5 -103.5q0 -47 -25.5 -84t-86.5 -69q66 -24 103.5 -64.5t37.5 -101.5q0 -62 -39.5 -106t-116.5 -67.5
t-189 -23.5zM393 102q89 0 135.5 25.5t46.5 69.5q0 47 -46.5 72.5t-135.5 25.5q-90 0 -136 -25.5t-46 -72.5q0 -44 46.5 -69.5t135.5 -25.5zM393 406q81 0 127 24t46 68q0 42 -45 64.5t-128 22.5t-128 -22.5t-45 -64.5q0 -44 46 -68t127 -24z" />
    <glyph glyph-name="nine" unicode="9" horiz-adv-x="774" 
d="M375 -12q-95 0 -163.5 26.5t-105 77t-36.5 121.5h152q0 -39 19.5 -63.5t54.5 -36t80 -11.5q71 0 111.5 25.5t57 74.5t16.5 120q-27 -29 -65.5 -47t-79.5 -25t-77 -7q-88 0 -154 26t-103 75.5t-37 117.5q0 75 43 128t118.5 81t174.5 28q83 0 147 -19t107.5 -59.5t66 -105
t22.5 -153.5q0 -101 -23 -172t-67.5 -115.5t-109.5 -65.5t-149 -21zM380 350q56 0 95 15t59.5 41.5t20.5 62.5q0 34 -20.5 60.5t-59 41t-94.5 14.5q-54 0 -93.5 -14.5t-60.5 -41t-21 -63.5q0 -34 19.5 -60t58.5 -41t96 -15z" />
    <glyph glyph-name="colon" unicode=":" horiz-adv-x="325" 
d="M70 360v167h187v-167h-187zM70 0v167h187v-167h-187z" />
    <glyph glyph-name="semicolon" unicode=";" horiz-adv-x="327" 
d="M63 -177v73q24 4 44.5 18t33 36.5t12.5 49.5h-83v167h187v-148q0 -70 -28.5 -111.5t-73 -61t-92.5 -23.5zM70 360v167h187v-167h-187z" />
    <glyph glyph-name="less" unicode="&#x3c;" horiz-adv-x="727" 
d="M629 -9l-552 217v118l552 219v-116l-426 -161l426 -161v-116z" />
    <glyph glyph-name="equal" unicode="=" horiz-adv-x="727" 
d="M85 327v107h556v-107h-556zM85 107v107h556v-107h-556z" />
    <glyph glyph-name="greater" unicode="&#x3e;" horiz-adv-x="727" 
d="M97 -9v116l427 160l-427 162v115l552 -218v-118z" />
    <glyph glyph-name="question" unicode="?" horiz-adv-x="694" 
d="M266 233v35q0 30 14.5 52t38 40t49.5 34.5t49 32.5t38 35.5t15 43.5q0 15 -7.5 29t-23.5 25t-41.5 17.5t-62.5 6.5q-47 0 -76 -10t-44 -26t-20.5 -33.5t-5.5 -31.5v-13.5t1 -13.5h-150q-2 6 -3 15t-1 21q0 32 12 62.5t36 56.5t61.5 46t88.5 31t116 11q62 0 110 -10.5
t82 -29.5t56 -42.5t31.5 -51t9.5 -55.5q0 -41 -15 -71.5t-39.5 -52.5t-52 -39.5t-52 -31.5t-40 -29t-15.5 -33v-20h-159zM254 0v167h186v-167h-186z" />
    <glyph glyph-name="at" unicode="@" horiz-adv-x="1263" 
d="M591 -156q-165 0 -283.5 44t-182 136.5t-63.5 237.5q0 119 47 202t128 135t186 76t223 24q119 0 219.5 -22t176 -68t117 -117.5t41.5 -171.5q0 -67 -15.5 -117.5t-43 -85t-63 -55.5t-76 -30.5t-80.5 -9.5q-48 0 -80 10t-49.5 27t-23.5 35h-8q-24 -23 -55.5 -39t-69.5 -25
t-80 -9q-39 0 -73 6.5t-59.5 21.5t-40 40.5t-14.5 63.5q0 60 29 94.5t81.5 50.5t123 20.5t154.5 4.5v18q0 33 -13 52t-40.5 27t-72.5 8q-29 0 -56.5 -4.5t-45 -16t-18.5 -33.5v-10h-124q-1 2 -1 6v8q0 43 28 75t85 50t140 18q78 0 131.5 -15.5t81.5 -51t28 -94.5v-202
q0 -25 13 -36t46 -11q49 0 85.5 20t58 66t21.5 124q0 105 -58 170t-161.5 94.5t-239.5 29.5q-151 0 -260 -38.5t-167.5 -117t-58.5 -198.5q0 -167 106.5 -250t333.5 -83q33 0 77.5 4.5t87 11.5t68.5 16v-86q-31 -8 -74.5 -15t-87.5 -11t-79 -4zM587 113q25 0 54 6t55.5 18
t43.5 30t17 43v36q-90 0 -149.5 -7.5t-87.5 -24.5t-28 -47q0 -22 13.5 -34t36 -16t45.5 -4z" />
    <glyph glyph-name="A" unicode="A" horiz-adv-x="918" 
d="M21 0l341 687h194l341 -687h-188l-60 124h-391l-60 -124h-177zM321 257h265l-73 157q-4 10 -13 30t-17.5 41t-15.5 38t-9 21h-8q-8 -20 -19 -45t-20.5 -48.5t-16.5 -37.5z" />
    <glyph glyph-name="B" unicode="B" horiz-adv-x="903" 
d="M92 0v687h545q55 0 99 -21.5t70 -59.5t26 -89q0 -41 -15.5 -73t-42 -53t-58.5 -31v-4q38 -8 68.5 -30t48 -56.5t17.5 -81.5q0 -62 -28.5 -104t-76.5 -63t-107 -21h-546zM265 134h327q36 0 58.5 18.5t22.5 57.5q0 22 -9.5 39t-28.5 26.5t-47 9.5h-323v-151zM265 413h310
q26 0 43.5 9t27 25.5t9.5 36.5q0 35 -21 53t-55 18h-314v-142z" />
    <glyph glyph-name="C" unicode="C" horiz-adv-x="944" 
d="M488 -12q-141 0 -236 40.5t-142.5 120t-47.5 195.5q0 170 109 262.5t316 92.5q117 0 206 -34t139 -97t50 -150h-169q0 46 -28.5 78.5t-80 49.5t-120.5 17q-76 0 -131 -25t-84 -71t-29 -110v-25q0 -64 29 -110.5t84 -71.5t131 -25q73 0 125 16t80.5 48t28.5 78h165
q0 -85 -49 -148t-137.5 -97t-208.5 -34z" />
    <glyph glyph-name="D" unicode="D" horiz-adv-x="934" 
d="M92 0v687h373q127 0 218 -39.5t140 -116t49 -188.5q0 -111 -49 -187.5t-140 -116t-218 -39.5h-373zM265 137h191q52 0 95.5 12.5t75.5 37t49 61t17 84.5v23q0 48 -17 84.5t-49 61t-75.5 37.5t-95.5 13h-191v-414z" />
    <glyph glyph-name="E" unicode="E" horiz-adv-x="865" 
d="M92 0v687h704v-136h-531v-135h469v-134h-469v-145h539v-137h-712z" />
    <glyph glyph-name="F" unicode="F" horiz-adv-x="793" 
d="M92 0v687h663v-136h-490v-155h440v-137h-440v-259h-173z" />
    <glyph glyph-name="G" unicode="G" horiz-adv-x="1013" 
d="M479 -12q-208 0 -312.5 88t-104.5 267q0 117 53.5 196.5t155 119.5t243.5 40q90 0 165.5 -15.5t131.5 -47.5t86 -80t30 -113h-168q0 33 -19.5 56t-53 37t-76 20.5t-89.5 6.5q-62 0 -114 -12.5t-89.5 -38t-58 -64.5t-20.5 -92v-24q0 -74 32 -119.5t91 -66.5t141 -21
q85 0 141.5 15t85.5 44t29 69v7h-263v124h432v-384h-104l-17 87q-38 -35 -88.5 -56.5t-111 -32t-128.5 -10.5z" />
    <glyph glyph-name="H" unicode="H" horiz-adv-x="975" 
d="M92 0v687h173v-264h445v264h173v-687h-173v277h-445v-277h-173z" />
    <glyph glyph-name="I" unicode="I" horiz-adv-x="357" 
d="M92 0v687h173v-687h-173z" />
    <glyph glyph-name="J" unicode="J" horiz-adv-x="713" 
d="M332 -12q-95 0 -161.5 26.5t-102 82.5t-35.5 143v14h166v-19q0 -55 33.5 -82.5t93.5 -27.5q67 0 102.5 33.5t35.5 105.5v423h172v-415q0 -98 -36.5 -161t-104.5 -93t-163 -30z" />
    <glyph glyph-name="K" unicode="K" horiz-adv-x="925" 
d="M92 0v687h173v-355l403 355h222l-322 -285l329 -402h-218l-238 298l-176 -143v-155h-173z" />
    <glyph glyph-name="L" unicode="L" horiz-adv-x="730" 
d="M92 0v687h173v-541h438v-146h-611z" />
    <glyph glyph-name="M" unicode="M" horiz-adv-x="1126" 
d="M92 0v687h269l141 -331q8 -17 18.5 -45t22 -59t20.5 -55h7q8 22 19 51l22 58t19 49l142 332h262v-687h-172v394q0 19 0.5 42t1.5 45t1 39h-8q-5 -17 -13.5 -40t-16.5 -46t-15 -40l-170 -394h-164l-170 394q-10 23 -19 46.5t-15.5 44.5t-11.5 35h-8q1 -13 1.5 -34t1 -45
t0.5 -47v-394h-165z" />
    <glyph glyph-name="N" unicode="N" horiz-adv-x="974" 
d="M92 0v687h159l368 -345q11 -9 27.5 -26t34.5 -35.5t31 -32.5h9l-2.5 50t-1.5 50v339h165v-687h-156l-365 345q-26 24 -54 53t-45 47h-8q1 -13 2 -44t1 -70v-331h-165z" />
    <glyph glyph-name="O" unicode="O" horiz-adv-x="1016" 
d="M508 -12q-137 0 -237.5 42t-154.5 121.5t-54 192.5t54 192.5t154.5 121t237.5 41.5q138 0 238 -41.5t154 -121t54 -192.5t-54 -192.5t-154 -121.5t-238 -42zM508 125q59 0 108 13.5t85 39.5t55.5 65.5t19.5 89.5v23q0 50 -19.5 89t-55.5 65t-85 39.5t-108 13.5
t-108 -13.5t-85 -39.5t-55.5 -65t-19.5 -89v-23q0 -50 19.5 -89.5t55.5 -65.5t85 -39.5t108 -13.5z" />
    <glyph glyph-name="P" unicode="P" horiz-adv-x="858" 
d="M92 0v687h515q67 0 117 -29t78 -80.5t28 -118.5t-28.5 -119.5t-79.5 -81.5t-118 -29h-339v-229h-173zM265 366h291q50 0 77 24t27 68q0 29 -12 49.5t-35.5 32t-56.5 11.5h-291v-185z" />
    <glyph glyph-name="Q" unicode="Q" horiz-adv-x="1016" 
d="M663 -130l-130 119q-7 0 -15 -0.5t-16 -0.5q-135 0 -233.5 42t-152.5 121.5t-54 192.5t54 192.5t154 121t238 41.5t238 -41.5t154 -121t54 -192.5q0 -122 -62.5 -204.5t-176.5 -120.5l174 -149h-226zM508 125q59 0 108 13.5t85 39.5t55.5 65t19.5 90v23q0 51 -19.5 89.5
t-55.5 64.5t-85 39.5t-108 13.5t-108 -13.5t-85 -39.5t-55.5 -64.5t-19.5 -89.5v-23q0 -51 19.5 -90t55.5 -65t85 -39.5t108 -13.5z" />
    <glyph glyph-name="R" unicode="R" horiz-adv-x="925" 
d="M92 0v687h555q74 0 121.5 -30t71.5 -79t24 -109q0 -62 -31.5 -115.5t-95.5 -84.5l143 -269h-194l-121 238h-300v-238h-173zM265 374h331q42 0 66.5 25.5t24.5 65.5q0 28 -11 47t-31 29t-49 10h-331v-177z" />
    <glyph glyph-name="S" unicode="S" horiz-adv-x="857" 
d="M440 -12q-81 0 -150.5 9.5t-122.5 34.5t-82 69.5t-29 113.5v5t1 5h169q-1 -4 -1 -9v-11q0 -31 25 -49.5t72 -27t110 -8.5q27 0 54.5 2t53 6.5t45.5 12.5t32 20.5t12 29.5q0 24 -23.5 38.5t-63 23.5t-89 15.5t-102.5 15t-102.5 23t-89 38t-63 60.5t-23.5 91q0 50 25 88
t72 64t113.5 38.5t149.5 12.5q84 0 149 -13.5t109.5 -39t67 -63t22.5 -85.5v-15h-168v11q0 22 -21.5 38.5t-60 26.5t-89.5 10q-67 0 -109 -8.5t-62 -23t-20 -31.5q0 -22 23.5 -35t63 -21t89 -14.5t102.5 -15.5t102.5 -22.5t89 -37.5t63 -59.5t23.5 -88.5q0 -81 -47 -130.5
t-129.5 -71.5t-190.5 -22z" />
    <glyph glyph-name="T" unicode="T" horiz-adv-x="828" 
d="M328 0v541h-303v146h777v-146h-302v-541h-172z" />
    <glyph glyph-name="U" unicode="U" horiz-adv-x="954" 
d="M477 -12q-132 0 -218.5 40t-129 114t-42.5 176v369h173v-361q0 -96 56.5 -148.5t160.5 -52.5t160.5 52.5t56.5 148.5v361h172v-369q0 -102 -42 -176t-128.5 -114t-218.5 -40z" />
    <glyph glyph-name="V" unicode="V" horiz-adv-x="880" 
d="M345 0l-329 687h192l168 -366q11 -23 22.5 -51.5t23 -55.5t18.5 -47h8q7 18 17.5 44.5t23 55t23.5 53.5l169 367h183l-329 -687h-190z" />
    <glyph glyph-name="W" unicode="W" horiz-adv-x="1200" 
d="M237 0l-227 687h184l126 -412q5 -13 9.5 -31.5t9.5 -37.5t7 -33h7q2 11 5 25.5l6 29t6.5 27t5.5 20.5l117 412h229l118 -412l7.5 -30t9 -37.5t6.5 -34.5h7q2 11 5.5 25t7.5 28t7.5 26.5t6.5 22.5l126 412h167l-227 -687h-208l-128 436q-4 15 -9 33t-8.5 35.5t-5.5 30.5
h-5q-3 -14 -7.5 -33t-9 -36.5t-7.5 -29.5l-125 -436h-213z" />
    <glyph glyph-name="X" unicode="X" horiz-adv-x="924" 
d="M32 0l323 356l-294 331h223l179 -213h11l185 213h207l-293 -324l324 -363h-224l-209 246h-11l-214 -246h-207z" />
    <glyph glyph-name="Y" unicode="Y" horiz-adv-x="884" 
d="M355 0v276l-337 411h206l217 -275h10l219 275h196l-338 -411v-276h-173z" />
    <glyph glyph-name="Z" unicode="Z" horiz-adv-x="843" 
d="M41 0v70l447 481h-416v136h707v-69l-449 -481h454v-137h-743z" />
    <glyph glyph-name="bracketleft" unicode="[" horiz-adv-x="339" 
d="M79 -160v896h233v-83h-115v-730h115v-83h-233z" />
    <glyph glyph-name="backslash" unicode="\" horiz-adv-x="307" 
d="M307 -48h-101l-206 784h100z" />
    <glyph glyph-name="bracketright" unicode="]" horiz-adv-x="339" 
d="M260 734v-896h-233v83h115v730h-115v83h233z" />
    <glyph glyph-name="asciicircum" unicode="^" horiz-adv-x="727" 
d="M101 284l209 403h108l208 -403h-110l-153 295l-151 -295h-111z" />
    <glyph glyph-name="underscore" unicode="_" horiz-adv-x="638" 
d="M0 -159v97h638v-97h-638z" />
    <glyph glyph-name="grave" unicode="`" horiz-adv-x="293" 
d="M293 591h-129l-164 128v5h178z" />
    <glyph glyph-name="a" unicode="a" horiz-adv-x="754" 
d="M270 -12q-48 0 -89 7.5t-72 25t-48.5 47.5t-17.5 76q0 63 35 99.5t98.5 52.5t149 20.5t186.5 4.5v19q0 33 -16 52t-48.5 27.5t-84.5 8.5q-39 0 -71.5 -5.5t-51.5 -17t-19 -29.5v-10h-157q-1 4 -1.5 7.5t-0.5 8.5q0 47 35 82.5t104.5 55t172.5 19.5q96 0 161.5 -17
t99.5 -56t34 -104v-221q0 -18 7.5 -28.5t25.5 -10.5h52v-96q-12 -5 -40 -11.5t-62 -6.5q-46 0 -72.5 10.5t-38.5 29t-17 40.5h-8q-28 -25 -66.5 -43t-83.5 -27.5t-96 -9.5zM311 99q28 0 62.5 6.5t66.5 19t52 31.5t20 46v28q-107 0 -176 -8t-103 -25t-34 -48
q0 -21 16.5 -31.5t42.5 -14.5t53 -4z" />
    <glyph glyph-name="b" unicode="b" horiz-adv-x="743" 
d="M424 -12q-63 0 -116.5 21.5t-91.5 73.5h-8l-13 -83h-126v724h156v-262h8q22 26 53 43t68.5 25.5t76.5 8.5q78 0 137.5 -30t93.5 -91t34 -155q0 -92 -34.5 -153.5t-95.5 -91.5t-142 -30zM381 113q50 0 85 17t53 49t18 77v15q0 45 -18 77t-52.5 49.5t-83.5 17.5
q-38 0 -67.5 -10.5t-50 -29.5t-31 -46t-10.5 -62v-8q0 -45 18.5 -78t54 -50.5t84.5 -17.5z" />
    <glyph glyph-name="c" unicode="c" horiz-adv-x="743" 
d="M381 -12q-104 0 -178.5 30.5t-114.5 92t-40 153.5t40 153t114.5 91.5t178.5 30.5q65 0 122.5 -13.5t100.5 -41t67 -68.5t24 -96h-158q0 34 -21 57t-56.5 35.5t-78.5 12.5q-55 0 -93 -18t-58 -51.5t-20 -81.5v-20q0 -47 20.5 -81t60 -52.5t96.5 -18.5q42 0 77.5 13.5
t57 37.5t21.5 55h152q0 -56 -24.5 -97.5t-67 -68.5t-100 -40.5t-122.5 -13.5z" />
    <glyph glyph-name="d" unicode="d" horiz-adv-x="743" 
d="M320 -12q-82 0 -143 30t-95.5 91.5t-34.5 153.5q0 94 34 155t94 91t138 30q39 0 76 -8.5t68.5 -25.5t53.5 -43h7v262h157v-724h-127l-13 83h-8q-38 -52 -91.5 -73.5t-115.5 -21.5zM362 113q50 0 85 17.5t53.5 50.5t18.5 78v8q0 35 -10.5 62t-31 46t-50 29.5t-66.5 10.5
q-49 0 -83.5 -17.5t-52.5 -49.5t-18 -77v-15q0 -45 18.5 -77t53 -49t83.5 -17z" />
    <glyph glyph-name="e" unicode="e" horiz-adv-x="759" 
d="M387 -12q-105 0 -181 29.5t-117.5 90.5t-41.5 155q0 92 40.5 153.5t116 92t177.5 30.5q107 0 181 -30t112 -89t38 -146v-46h-501q3 -46 25 -74.5t61.5 -41.5t92.5 -13q24 0 50.5 5.5t50 15.5t39.5 25.5t18 37.5h160q0 -42 -22 -78t-64 -62t-101.5 -40.5t-133.5 -14.5z
M212 323h333q0 26 -12 45.5t-34.5 33t-51.5 20t-63 6.5q-49 0 -86.5 -12.5t-59 -36t-26.5 -56.5z" />
    <glyph glyph-name="f" unicode="f" horiz-adv-x="450" 
d="M122 0v413h-109v114h109v39q0 56 21.5 93.5t62.5 56.5t100 19q20 0 43.5 -2t45 -5.5t39.5 -9.5v-97h-68q-48 0 -67.5 -12.5t-19.5 -43.5v-38h155v-114h-155v-413h-157z" />
    <glyph glyph-name="g" unicode="g" horiz-adv-x="744" 
d="M177 -201q-43 0 -80.5 13t-60.5 41t-23 74q0 39 28 69t72 45q-32 16 -46.5 42t-14.5 56q0 42 28.5 72.5t77.5 37.5q-40 21 -64.5 53.5t-24.5 69.5q0 62 36 99t104 52.5t164 15.5q35 0 67 -3t61 -9q49 22 73.5 47.5t28.5 46.5h145q-1 -38 -17 -65t-46 -45t-72 -27
q30 -20 46.5 -48.5t16.5 -64.5q0 -57 -31.5 -94t-91 -54.5t-144.5 -17.5h-136q-30 0 -46 -10t-16 -28t15.5 -29t50.5 -11h304q79 0 120 -44.5t41 -113.5q0 -51 -27 -89t-71.5 -59.5t-98.5 -21.5h-368zM228 -101h299q16 0 29 6.5t21 19.5t8 29q0 25 -17.5 39t-40.5 14h-295
q-26 0 -43.5 -13.5t-17.5 -38.5t16.5 -40.5t40.5 -15.5zM373 303q68 0 107 15t39 54t-39 54t-107 15t-107 -15t-39 -54q0 -28 17.5 -43t50.5 -20.5t78 -5.5z" />
    <glyph glyph-name="h" unicode="h" horiz-adv-x="732" 
d="M69 0v724h156v-267h8q27 31 61.5 49t72 25.5t73.5 7.5q75 0 125.5 -23.5t75.5 -71.5t25 -121v-323h-156v298q0 31 -9 53.5t-25 36.5t-39.5 20.5t-52.5 6.5q-42 0 -78 -17.5t-58.5 -48t-22.5 -71.5v-278h-156z" />
    <glyph glyph-name="i" unicode="i" horiz-adv-x="294" 
d="M69 608v116h156v-116h-156zM69 0v527h156v-527h-156z" />
    <glyph glyph-name="j" unicode="j" horiz-adv-x="292" 
d="M69 608v116h156v-116h-156zM48 -201q-17 0 -36.5 2t-38.5 6t-34 9v97h54q36 0 56 19t20 53v542h156v-545q0 -57 -16.5 -98.5t-55 -63t-105.5 -21.5z" />
    <glyph glyph-name="k" unicode="k" horiz-adv-x="705" 
d="M69 0v724h156v-426l263 229h194l-224 -209l232 -318h-186l-165 227l-114 -84v-143h-156z" />
    <glyph glyph-name="l" unicode="l" horiz-adv-x="294" 
d="M69 0v724h156v-724h-156z" />
    <glyph glyph-name="m" unicode="m" horiz-adv-x="1142" 
d="M69 0v527h126l11 -89h9q28 38 63.5 60t76 31.5t79.5 9.5q74 0 123.5 -24.5t71.5 -76.5h10q28 38 64 60t76.5 31.5t80.5 9.5q71 0 119.5 -23.5t72.5 -71.5t24 -121v-323h-156v298q0 31 -8.5 53.5t-24 36.5t-37 20.5t-48.5 6.5q-40 0 -74.5 -17.5t-56 -48t-21.5 -71.5v-278
h-156v298q0 31 -8 53.5t-23.5 36.5t-37 20.5t-49.5 6.5q-40 0 -74.5 -17.5t-55.5 -48t-21 -71.5v-278h-156z" />
    <glyph glyph-name="n" unicode="n" horiz-adv-x="732" 
d="M69 0v527h126l11 -89h9q29 38 65.5 60t78 31.5t81.5 9.5q75 0 125.5 -23.5t75.5 -71.5t25 -121v-323h-156v298q0 31 -9 53.5t-25 36.5t-39.5 20.5t-52.5 6.5q-42 0 -78 -17.5t-58.5 -48t-22.5 -71.5v-278h-156z" />
    <glyph glyph-name="o" unicode="o" horiz-adv-x="760" 
d="M380 -12q-103 0 -177.5 31t-115 92.5t-40.5 152.5q0 92 40.5 153t115 91.5t177.5 30.5t177.5 -30.5t115 -91.5t40.5 -153q0 -91 -40.5 -152.5t-115 -92.5t-177.5 -31zM380 102q54 0 92.5 18.5t58.5 52.5t20 81v20q0 48 -20 81.5t-58.5 51.5t-92.5 18q-55 0 -93 -18
t-58 -51.5t-20 -81.5v-20q0 -47 20 -81t58 -52.5t93 -18.5z" />
    <glyph glyph-name="p" unicode="p" horiz-adv-x="743" 
d="M69 -189v716h126l13 -83h9q37 53 90.5 74t116.5 21q81 0 142 -30t95.5 -91t34.5 -154t-34 -154.5t-93.5 -91.5t-137.5 -30q-39 0 -76.5 8.5t-68.5 25.5t-53 43h-8v-254h-156zM383 113q49 0 83.5 17.5t52.5 49.5t18 76v15q0 45 -18 77.5t-53 49.5t-85 17q-49 0 -84.5 -18
t-54 -50.5t-18.5 -78.5v-8q0 -34 10.5 -61.5t31 -46.5t50 -29t67.5 -10z" />
    <glyph glyph-name="q" unicode="q" horiz-adv-x="743" 
d="M518 -189v254h-7q-22 -26 -53.5 -43t-68.5 -25.5t-76 -8.5q-78 0 -138 30t-94 91.5t-34 154.5t34.5 154t95.5 91t143 30q62 0 115.5 -21t91.5 -74h8l13 83h127v-716h-157zM361 113q37 0 66.5 10t50 29t31 46.5t10.5 61.5v8q0 46 -18.5 78.5t-53.5 50.5t-85 18
q-49 0 -83.5 -17t-53 -49.5t-18.5 -77.5v-15q0 -44 18 -76t52.5 -49.5t83.5 -17.5z" />
    <glyph glyph-name="r" unicode="r" horiz-adv-x="455" 
d="M69 0v527h126l11 -91h8q13 29 35.5 52.5t53.5 37t70 13.5q18 0 36 -2.5t33 -7.5v-131h-77q-38 0 -64.5 -12.5t-43 -34t-24.5 -48t-8 -55.5v-248h-156z" />
    <glyph glyph-name="s" unicode="s" horiz-adv-x="684" 
d="M340 -12q-59 0 -113 9.5t-96.5 28.5t-67.5 50t-25 73q0 5 0.5 9t1.5 8h160q0 -2 -0.5 -5t-0.5 -5q0 -23 20 -37t52.5 -20.5t69.5 -6.5q35 0 68.5 4t55.5 15.5t22 35.5t-26 35t-72.5 16.5t-108.5 14.5q-47 7 -87.5 18t-71 28.5t-47.5 45.5t-17 69q0 44 21 75.5t59.5 51.5
t92.5 29t119 9q57 0 107.5 -9t88.5 -28t60 -47t22 -65v-8t-1 -7h-160v5q0 20 -17 32t-44 17.5t-58 5.5q-11 0 -33 -1t-45.5 -5t-39.5 -13t-16 -26q0 -21 25 -31t65.5 -15t87.5 -11q50 -6 95.5 -15t81 -26.5t55.5 -47.5t20 -78q0 -50 -21 -84.5t-60.5 -55t-96 -29.5
t-125.5 -9z" />
    <glyph glyph-name="t" unicode="t" horiz-adv-x="470" 
d="M304 -12q-61 0 -100.5 15.5t-58.5 53t-19 102.5v254h-102v114h107l31 156h120v-156h145v-114h-145v-234q0 -38 14.5 -57.5t62.5 -19.5h68v-97q-14 -5 -36.5 -9t-46 -6t-40.5 -2z" />
    <glyph glyph-name="u" unicode="u" horiz-adv-x="732" 
d="M291 -12q-111 0 -168.5 53.5t-57.5 162.5v323h157v-298q0 -31 8.5 -53.5t25 -36.5t40 -20t52.5 -6q42 0 78 17t58 48t22 71v278h157v-527h-126l-11 89h-9q-28 -38 -65.5 -60t-78.5 -31.5t-82 -9.5z" />
    <glyph glyph-name="v" unicode="v" horiz-adv-x="674" 
d="M255 0l-251 527h170l110 -249q6 -15 15.5 -38.5t19.5 -47.5t18 -44h8q8 20 17 44.5t18.5 48t15.5 38.5l110 248h164l-251 -527h-164z" />
    <glyph glyph-name="w" unicode="w" horiz-adv-x="1014" 
d="M224 0l-220 527h168l93 -251q8 -22 15 -43t12.5 -38.5t7.5 -28.5h8q3 11 8.5 28t12.5 38t14 43l84 252h174l84 -252q3 -8 8.5 -27.5t12 -41t12.5 -40.5h8q4 16 10.5 36.5t13.5 40t11 32.5l92 252h157l-220 -527h-155l-82 240q-7 23 -15 46.5t-15 44.5t-11 34h-7
q-5 -15 -12.5 -36.5t-14.5 -45t-14 -44.5l-80 -239h-160z" />
    <glyph glyph-name="x" unicode="x" horiz-adv-x="716" 
d="M10 0l253 275l-236 252h200l146 -159h6l145 159h187l-236 -254l250 -273h-198l-161 180h-7l-161 -180h-188z" />
    <glyph glyph-name="y" unicode="y" horiz-adv-x="674" 
d="M146 -201q-30 0 -54.5 5t-45.5 13v97h75q44 0 70 10t41.5 29.5t28.5 46.5l-257 527h171l109 -250q8 -17 19 -42.5t22 -51.5t19 -46h8q1 3 6.5 19t14.5 38t18 45t16 41l99 247h164l-218 -478q-26 -57 -52 -103t-59.5 -79t-80.5 -50.5t-114 -17.5z" />
    <glyph glyph-name="z" unicode="z" horiz-adv-x="643" 
d="M30 0v60l321 353h-300v114h550v-57l-325 -356h337v-114h-583z" />
    <glyph glyph-name="braceleft" unicode="{" horiz-adv-x="345" 
d="M317 -159q-51 0 -88.5 5.5t-62 19t-36 37.5t-11.5 62v228q0 20 -13 32t-32.5 17.5t-41.5 5.5v79q20 0 40 6t33.5 18.5t13.5 32.5v228q0 37 12 61.5t36.5 38t62 19t87.5 5.5v-79q-15 0 -33.5 -3.5t-32.5 -13.5t-15 -29l-11 -216q-1 -49 -23 -76t-74 -27v-9
q38 0 58.5 -13.5t29 -39t10.5 -62.5l10 -201q1 -18 14.5 -28t32 -14.5t34.5 -4.5v-79z" />
    <glyph glyph-name="bar" unicode="|" horiz-adv-x="294" 
d="M92 -196v921h110v-921h-110z" />
    <glyph glyph-name="braceright" unicode="}" horiz-adv-x="345" 
d="M28 735q52 0 89 -5.5t61.5 -19t36.5 -37.5t12 -62v-228q0 -20 12.5 -32t32.5 -17.5t42 -5.5v-79q-20 0 -40.5 -6t-33.5 -18.5t-13 -32.5v-228q0 -37 -12.5 -61.5t-37 -38t-61.5 -19t-88 -5.5v79q15 0 33.5 3.5t32.5 13.5t15 29l11 216q2 49 23.5 76t74.5 27v9
q-39 0 -59.5 13.5t-28.5 39.5t-11 62l-10 201q-1 18 -14.5 28.5t-31.5 14.5t-35 4v79z" />
    <glyph glyph-name="asciitilde" unicode="~" horiz-adv-x="727" 
d="M25 190v108q16 20 45 42t67.5 37t81.5 15q40 0 75 -12.5t70 -28.5t71 -28.5t75 -12.5q42 0 79 15t67 37t47 42v-108q-17 -20 -46.5 -42t-68 -37t-82.5 -15q-39 0 -74 12.5t-70 28.5t-70.5 28.5t-76.5 12.5q-40 0 -77.5 -15t-66.5 -37t-46 -42z" />
    <glyph glyph-name="uni00A0" unicode="&#xa0;" horiz-adv-x="313" 
 />
    <glyph glyph-name="exclamdown" unicode="&#xa1;" horiz-adv-x="334" 
d="M73 -160l30 447h128l30 -447h-188zM74 360v167h186v-167h-186z" />
    <glyph glyph-name="cent" unicode="&#xa2;" horiz-adv-x="750" 
d="M341 -53v783h71v-783h-71zM380 69q-104 0 -178.5 30.5t-114.5 92t-40 153.5t40 153t114.5 91.5t178.5 30.5q65 0 122.5 -13.5t100.5 -41.5t67.5 -69t24.5 -95h-159q0 33 -21 56.5t-56.5 36t-78.5 12.5q-55 0 -93 -18t-58 -51.5t-20 -81.5v-20q0 -48 20.5 -81.5t60 -52
t96.5 -18.5q42 0 77.5 13.5t57 37.5t21.5 55h153q0 -56 -24.5 -97.5t-67.5 -68.5t-100.5 -40.5t-122.5 -13.5z" />
    <glyph glyph-name="sterling" unicode="&#xa3;" horiz-adv-x="763" 
d="M72 0v122h90v164h-119v108h119v91q0 69 32.5 116.5t95.5 72.5t153 25q84 0 144.5 -23t93.5 -67.5t33 -111.5v-13h-146v13q0 27 -15.5 46t-43.5 28.5t-66 9.5t-66 -10.5t-43.5 -30t-15.5 -47.5v-99h181v-108h-181l-15 -164h395v-122h-626z" />
    <glyph glyph-name="currency" unicode="&#xa4;" horiz-adv-x="619" 
d="M107 85l-54 56l57 56q-25 28 -37 65.5t-12 79.5q0 41 12 80t37 64l-57 57l55 56l56 -56q26 22 65.5 34.5t79.5 12.5q42 0 80 -12.5t62 -33.5l57 57l58 -60l-55 -55q22 -24 34 -63t12 -81q0 -41 -12 -79.5t-35 -66.5l55 -55l-53 -55l-57 58q-26 -24 -64.5 -37t-81.5 -13
q-42 0 -80.5 12.5t-65.5 35.5zM309 185q45 0 80 21t55.5 57.5t20.5 78.5q0 43 -20.5 78.5t-55.5 57t-80 21.5q-44 0 -79.5 -21.5t-56.5 -56.5t-21 -79q0 -43 21.5 -79t57 -57t78.5 -21z" />
    <glyph glyph-name="yen" unicode="&#xa5;" horiz-adv-x="749" 
d="M299 0v151h-245v81h245v51h-245v81h190q-7 8 -25.5 35t-43.5 63l-157 225h184l117 -176q8 -11 18.5 -27.5t21 -32.5t18.5 -29h8q6 11 15 26.5t19.5 32t18.5 30.5l117 176h176l-158 -226q-23 -32 -41.5 -60.5t-25.5 -36.5h189v-81h-243v-51h243v-81h-243v-151h-153z" />
    <glyph glyph-name="brokenbar" unicode="&#xa6;" horiz-adv-x="292" 
d="M92 345v380h108v-380h-108zM92 -196v381h108v-381h-108z" />
    <glyph glyph-name="section" unicode="&#xa7;" horiz-adv-x="759" 
d="M382 -183q-67 0 -123 10t-96.5 30t-62.5 49t-22 68v5.5v5.5h158v-8q0 -11 8.5 -22t26 -19.5t44 -13t62.5 -4.5q39 0 71 6t51.5 18.5t19.5 32.5q0 21 -25.5 36t-67 28t-91 26t-99 29t-91.5 38.5t-67 53t-25 73.5q0 39 18.5 68t45.5 49.5t54 32.5q-43 21 -71.5 51t-28.5 72
q0 44 25.5 76t69 52t98 29.5t112.5 9.5q63 0 118.5 -9.5t97 -28.5t65.5 -48.5t24 -70.5v-5.5t-1 -5.5h-158v8q0 11 -8.5 22t-25.5 19.5t-43 13t-63 4.5q-39 0 -71 -6t-51.5 -18.5t-19.5 -32.5q0 -21 25 -36t67 -28t91.5 -26.5t99 -29.5t91.5 -38t67 -53t25 -74
q0 -37 -18.5 -67t-46 -50t-54.5 -32q44 -21 73 -51t29 -72q0 -44 -25.5 -76t-69.5 -52t-99 -29.5t-113 -9.5zM482 152q31 10 52 29t21 45q0 28 -25 48t-66.5 34.5t-90.5 27.5t-97 28q-29 -12 -50.5 -30t-21.5 -44q0 -28 24.5 -48.5t66 -35t90.5 -27.5t97 -27z" />
    <glyph glyph-name="dieresis" unicode="&#xa8;" horiz-adv-x="402" 
d="M0 598v124h143v-124h-143zM258 598v124h144v-124h-144z" />
    <glyph glyph-name="copyright" unicode="&#xa9;" horiz-adv-x="827" 
d="M413 -12q-77 0 -142 26.5t-112.5 74t-74 112.5t-26.5 142t26.5 142t74 113t112.5 74.5t142 26.5t142 -26.5t113 -74.5t74.5 -113t26.5 -142t-26.5 -142t-74.5 -112.5t-113 -74t-142 -26.5zM414 130q-65 0 -112.5 22.5t-72.5 70t-25 120.5q0 74 25 121t72.5 69.5
t112.5 22.5q56 0 100.5 -18.5t70.5 -56.5t26 -98h-94q0 32 -13.5 52.5t-37 30.5t-53.5 10q-54 0 -81 -30.5t-27 -92.5v-17q0 -43 12 -71t36.5 -41.5t59.5 -13.5q31 0 55 9.5t37.5 29.5t13.5 52h92q0 -58 -25 -96t-69.5 -56.5t-102.5 -18.5zM413 49q87 0 153.5 38t105 104.5
t38.5 151.5q0 86 -38.5 152.5t-105 104.5t-153.5 38q-86 0 -153 -38t-105 -104.5t-38 -151.5q0 -86 38 -152.5t105 -104.5t153 -38z" />
    <glyph glyph-name="ordfeminine" unicode="&#xaa;" horiz-adv-x="508" 
d="M172 330q-42 0 -77.5 9.5t-55.5 31.5t-20 61q0 42 23.5 66t66 35.5t100 15t125.5 3.5v11q0 25 -10.5 39t-32 20.5t-55.5 6.5q-27 0 -48 -4.5t-33.5 -14t-12.5 -24.5v-8h-109q-1 2 -1.5 4.5t-0.5 5.5q0 50 53.5 80.5t158.5 30.5q64 0 108.5 -12t67.5 -39t23 -72v-149
q0 -12 5 -18.5t18 -6.5h35v-60q-8 -1 -27 -6t-41 -5q-50 0 -68 18t-22 44h-5q-29 -29 -71.5 -46t-93.5 -17zM200 398q28 0 59 9t53 27t22 48v12q-71 0 -116.5 -4.5t-68 -16.5t-22.5 -33q0 -16 11 -25.5t27.5 -13t34.5 -3.5z" />
    <glyph glyph-name="guillemotleft" unicode="&#xab;" horiz-adv-x="610" 
d="M226 121l-204 204l204 202h119l-172 -202l172 -204h-119zM468 121l-204 204l204 202h119l-173 -202l173 -204h-119z" />
    <glyph glyph-name="logicalnot" unicode="&#xac;" horiz-adv-x="727" 
d="M539 145v204h-488v127h614v-331h-126z" />
    <glyph glyph-name="uni00AD" unicode="&#xad;" horiz-adv-x="416" 
d="M50 205v139h316v-139h-316z" />
    <glyph glyph-name="registered" unicode="&#xae;" horiz-adv-x="827" 
d="M413 -12q-77 0 -142 26.5t-112.5 74t-74 112.5t-26.5 142t26.5 142t74 113t112.5 74.5t142 26.5t142 -26.5t113 -74.5t74.5 -113t26.5 -142t-26.5 -142t-74.5 -112.5t-113 -74t-142 -26.5zM413 49q87 0 153.5 38t105 104.5t38.5 151.5q0 86 -38.5 152.5t-105 104.5
t-153.5 38q-86 0 -153 -38t-105 -104.5t-38 -151.5q0 -86 38 -152.5t105 -104.5t153 -38zM243 136v413h214q68 0 104 -33t36 -90q0 -40 -21 -70.5t-53 -49.5l90 -170h-107l-73 153h-92v-153h-98zM341 363h98q26 0 42 15t16 41q0 24 -16 39t-42 15h-98v-110z" />
    <glyph glyph-name="macron" unicode="&#xaf;" horiz-adv-x="386" 
d="M0 618v82h386v-82h-386z" />
    <glyph glyph-name="degree" unicode="&#xb0;" horiz-adv-x="400" 
d="M200 423q-38 0 -69.5 18.5t-49.5 50t-18 69.5q0 39 18 70t49.5 49.5t69.5 18.5q39 0 70 -18.5t49.5 -50t18.5 -69.5t-18.5 -69.5t-49.5 -50t-70 -18.5zM200 495q28 0 47 19t19 47t-19 47t-47 19q-27 0 -46 -19t-19 -47t19 -47t46 -19z" />
    <glyph glyph-name="plusminus" unicode="&#xb1;" horiz-adv-x="727" 
d="M310 160v196h-225v106h225v196h106v-196h225v-106h-225v-196h-106zM85 0v106h556v-106h-556z" />
    <glyph glyph-name="uni00B2" unicode="&#xb2;" horiz-adv-x="448" 
d="M47 440v24q0 38 22.5 66.5t61.5 51.5t86 44q38 17 64.5 32t26.5 34q0 18 -20 28.5t-62 10.5q-28 0 -47 -6.5t-28.5 -17.5t-9.5 -25v-17h-91q0 2 -0.5 6.5t-0.5 10.5q0 39 22 65.5t64 40.5t100 14q50 0 88 -11.5t59.5 -34.5t21.5 -58q0 -26 -11.5 -46t-30.5 -35.5
t-42.5 -28t-47.5 -22.5q-31 -13 -59 -23.5t-42 -25.5h237v-77h-361z" />
    <glyph glyph-name="uni00B3" unicode="&#xb3;" horiz-adv-x="448" 
d="M231 428q-93 0 -140 31t-47 76v13h91v-11q0 -18 24 -28t64 -10q32 0 53.5 5.5t33 15.5t11.5 25t-11 23.5t-28 12.5t-34 4h-70v67h65q16 0 31.5 4.5t25.5 13t10 23.5q0 12 -10.5 21t-29.5 13.5t-43 4.5q-21 0 -40 -4.5t-31 -12.5t-12 -20v-9h-87v14q0 29 22 52t62 36.5
t93 13.5t91 -12.5t59 -34.5t21 -52q0 -27 -18.5 -48t-49.5 -31v-3q36 -6 58 -26.5t22 -57.5q0 -32 -21.5 -57t-62.5 -38.5t-102 -13.5z" />
    <glyph glyph-name="acute" unicode="&#xb4;" horiz-adv-x="293" 
d="M0 591l116 133h177v-5l-163 -128h-130z" />
    <glyph glyph-name="uni00B5" unicode="&#xb5;" horiz-adv-x="735" 
d="M69 -189v716h156v-298q0 -31 9 -53.5t25 -36.5t39.5 -20t52.5 -6q42 0 78 17t58.5 48t22.5 71v278h156v-527h-126l-11 89h-9q-25 -37 -59 -59.5t-71 -32t-74 -9.5q-26 0 -50.5 6t-45.5 18q2 -13 3.5 -36t1.5 -46v-119h-156z" />
    <glyph glyph-name="paragraph" unicode="&#xb6;" horiz-adv-x="707" 
d="M277 -164v417q-60 0 -108.5 29.5t-77.5 78.5t-29 108q0 60 29 109.5t78.5 79t109.5 29.5h400v-100h-84v-751h-104v751h-110v-751h-104z" />
    <glyph glyph-name="periodcentered" unicode="&#xb7;" horiz-adv-x="418" 
d="M116 254v167h186v-167h-186z" />
    <glyph glyph-name="cedilla" unicode="&#xb8;" horiz-adv-x="274" 
d="M138 -198q-36 0 -74.5 3t-63.5 9v50h133q20 0 32 4.5t12 20.5q0 14 -9.5 19t-32.5 5h-65l23 117h85l-12 -63q29 -1 53.5 -9t39.5 -25t15 -48q0 -25 -12.5 -42t-33 -25.5t-44.5 -12t-46 -3.5z" />
    <glyph glyph-name="uni00B9" unicode="&#xb9;" horiz-adv-x="448" 
d="M74 440v74h122v177h-120v53q32 1 64.5 8t63 19t54.5 25h31v-282h110v-74h-325z" />
    <glyph glyph-name="ordmasculine" unicode="&#xba;" horiz-adv-x="491" 
d="M246 329q-70 0 -120.5 20.5t-78 61.5t-27.5 103t27.5 103t78 61.5t120.5 20.5t120.5 -20.5t77.5 -61.5t27 -103t-27 -103t-77.5 -61.5t-120.5 -20.5zM246 403q55 0 83.5 26.5t28.5 75.5v18q0 48 -28.5 75t-83.5 27q-54 0 -83.5 -27t-29.5 -75v-18q0 -49 29.5 -75.5
t83.5 -26.5z" />
    <glyph glyph-name="guillemotright" unicode="&#xbb;" horiz-adv-x="610" 
d="M383 527l205 -203l-205 -203h-118l172 203l-172 203h118zM141 527l205 -203l-205 -203h-118l172 203l-172 203h118z" />
    <glyph glyph-name="onequarter" unicode="&#xbc;" horiz-adv-x="1071" 
d="M243 -12l518 711h90l-518 -711h-90zM74 340v74h122v177h-120v53q32 1 64.5 8t63 19t54.5 25h31v-282h110v-74h-325zM848 0v75h-228v70q38 44 73.5 100t56.5 117h100q-6 -25 -23 -55.5t-38 -61t-43.5 -57t-41.5 -43.5h144v88q9 11 19 27t18.5 33.5t11.5 30.5h44v-179h68
v-70h-68v-75h-93z" />
    <glyph glyph-name="onehalf" unicode="&#xbd;" horiz-adv-x="1070" 
d="M243 -12l518 711h89l-518 -711h-89zM660 0v24q0 38 23 66.5t61.5 51.5t85.5 44q38 17 65 32t27 34q0 18 -20.5 28.5t-61.5 10.5q-29 0 -48 -6.5t-28 -17.5t-9 -25v-17h-91q0 2 -0.5 6.5t-0.5 10.5q0 39 22 65.5t64 40.5t100 14q50 0 87.5 -11.5t59.5 -34.5t22 -58
q0 -26 -11.5 -46t-31 -35.5t-43 -28t-47.5 -22.5q-31 -13 -58.5 -23.5t-41.5 -25.5h237v-77h-362zM74 340v74h122v177h-120v53q32 1 64.5 8t63 19t54.5 25h31v-282h110v-74h-325z" />
    <glyph glyph-name="threequarters" unicode="&#xbe;" horiz-adv-x="1071" 
d="M243 -12l518 711h90l-519 -711h-89zM231 328q-93 0 -140 31t-47 76v13h91v-11q0 -18 24 -28t64 -10q32 0 53.5 5.5t33 15.5t11.5 25t-11 23.5t-28 12.5t-34 4h-70v67h65q16 0 31.5 4.5t25.5 13t10 23.5q0 12 -10.5 21t-29.5 13.5t-43 4.5q-21 0 -40 -4.5t-31 -12.5
t-12 -20v-9h-87v14q0 29 22 52t62 36.5t93 13.5t91 -12.5t59 -34.5t21 -52q0 -27 -18.5 -48t-49.5 -31v-3q36 -6 58 -26.5t22 -57.5q0 -32 -21.5 -56.5t-62.5 -38.5t-102 -14zM848 0v75h-228v70q38 44 73.5 100t56.5 117h100q-6 -25 -23 -55.5t-38 -61t-43.5 -57
t-41.5 -43.5h144v88q9 11 19 27t18.5 33.5t11.5 30.5h44v-179h68v-70h-68v-75h-93z" />
    <glyph glyph-name="questiondown" unicode="&#xbf;" horiz-adv-x="694" 
d="M343 -172q-62 0 -110 10.5t-82 29.5t-55.5 43t-31.5 51t-10 55q0 41 15.5 71.5t39.5 52.5t52 39.5t52.5 31.5t39.5 29t15 33v20h159v-35q0 -29 -14.5 -51.5t-37.5 -40.5t-49.5 -34.5t-49.5 -32.5t-37.5 -35t-14.5 -44q0 -15 7 -29t23 -25t42 -17.5t62 -6.5q47 0 76 10.5
t44 26t20.5 33t5.5 32.5v13.5t-1 13.5h151q1 -7 2 -15.5t1 -21.5q0 -32 -12 -62t-36 -56.5t-61.5 -46.5t-88 -31t-116.5 -11zM253 360v167h186v-167h-186z" />
    <glyph glyph-name="Agrave" unicode="&#xc0;" horiz-adv-x="918" 
d="M21 0l341 687h194l341 -687h-188l-60 124h-391l-60 -124h-177zM321 257h265l-73 157q-4 10 -13 30t-17.5 41t-15.5 38t-9 21h-8q-8 -20 -19 -45t-20.5 -48.5t-16.5 -37.5zM546 746h-129l-164 128v5h178z" />
    <glyph glyph-name="Aacute" unicode="&#xc1;" horiz-adv-x="918" 
d="M21 0l341 687h194l341 -687h-188l-60 124h-391l-60 -124h-177zM321 257h265l-73 157q-4 10 -13 30t-17.5 41t-15.5 38t-9 21h-8q-8 -20 -19 -45t-20.5 -48.5t-16.5 -37.5zM359 746l116 133h178v-5l-164 -128h-130z" />
    <glyph glyph-name="Acircumflex" unicode="&#xc2;" horiz-adv-x="918" 
d="M21 0l341 687h194l341 -687h-188l-60 124h-391l-60 -124h-177zM321 257h265l-73 157q-4 10 -13 30t-17.5 41t-15.5 38t-9 21h-8q-8 -20 -19 -45t-20.5 -48.5t-16.5 -37.5zM242 737l158 142h117l159 -142h-125l-127 113h67l-127 -113h-122z" />
    <glyph glyph-name="Atilde" unicode="&#xc3;" horiz-adv-x="918" 
d="M21 0l341 687h194l341 -687h-188l-60 124h-391l-60 -124h-177zM321 257h265l-73 157q-4 10 -13 30t-17.5 41t-15.5 38t-9 21h-8q-8 -20 -19 -45t-20.5 -48.5t-16.5 -37.5zM221 743q2 29 19 59t48.5 50t76.5 20q37 0 71.5 -10.5t67.5 -21t63 -10.5q23 0 36 12.5t18 29.5
h76q-1 -29 -19 -59.5t-50 -50.5t-76 -20q-35 0 -70.5 10.5t-68 21t-62.5 10.5q-24 0 -37 -12.5t-19 -28.5h-74z" />
    <glyph glyph-name="Adieresis" unicode="&#xc4;" horiz-adv-x="918" 
d="M21 0l341 687h194l341 -687h-188l-60 124h-391l-60 -124h-177zM321 257h265l-73 157q-4 10 -13 30t-17.5 41t-15.5 38t-9 21h-8q-8 -20 -19 -45t-20.5 -48.5t-16.5 -37.5zM258 754v124h143v-124h-143zM516 754v124h144v-124h-144z" />
    <glyph glyph-name="Aring" unicode="&#xc5;" horiz-adv-x="918" 
d="M21 0l341 687h194l341 -687h-188l-60 124h-391l-60 -124h-177zM321 257h265l-73 157q-4 10 -13 30t-17.5 41t-15.5 38t-9 21h-8q-8 -20 -19 -45t-21 -48.5t-16 -37.5zM458 722q-46 0 -76 29.5t-30 74.5q0 46 30 75.5t77 29.5q46 0 76 -29t30 -75t-30 -75.5t-77 -29.5z
M458 779q22 0 36.5 13t14.5 34q0 22 -14.5 35.5t-36.5 13.5q-21 0 -35.5 -13.5t-14.5 -34.5t14.5 -34.5t35.5 -13.5z" />
    <glyph glyph-name="AE" unicode="&#xc6;" horiz-adv-x="1276" 
d="M-2 0l432 687h777v-136h-540l47 -135h432v-134h-385l51 -145h403v-137h-533l-42 124h-387l-77 -124h-178zM336 260h259l-52 156q-4 11 -9 29t-11 37.5t-10.5 34.5t-5.5 18h-8q-7 -12 -16 -28.5t-19 -33.5t-18.5 -32t-15.5 -26z" />
    <glyph glyph-name="Ccedilla" unicode="&#xc7;" horiz-adv-x="944" 
d="M488 -12q-141 0 -236 40.5t-142.5 120t-47.5 195.5q0 170 109 262.5t316 92.5q117 0 206 -34t139 -97t50 -150h-169q0 46 -28.5 78.5t-80 49.5t-120.5 17q-76 0 -131 -25t-84 -71t-29 -110v-25q0 -64 29 -110.5t84 -71.5t131 -25q73 0 125 16t80.5 48t28.5 78h165
q0 -85 -49 -148t-137.5 -97t-208.5 -34zM493 -198q-36 0 -74.5 3t-63.5 9v50h133q20 0 32 4.5t12 20.5q0 14 -9.5 19t-32.5 5h-65l23 117h85l-12 -63q29 -1 53.5 -9t39.5 -25t15 -48q0 -25 -12.5 -42t-33 -25.5t-44.5 -12t-46 -3.5z" />
    <glyph glyph-name="Egrave" unicode="&#xc8;" horiz-adv-x="865" 
d="M92 0v687h704v-136h-531v-135h469v-134h-469v-145h539v-137h-712zM535 746h-130l-164 128v5h178z" />
    <glyph glyph-name="Eacute" unicode="&#xc9;" horiz-adv-x="865" 
d="M92 0v687h704v-136h-531v-135h469v-134h-469v-145h539v-137h-712zM348 746l116 133h177v-5l-163 -128h-130z" />
    <glyph glyph-name="Ecircumflex" unicode="&#xca;" horiz-adv-x="865" 
d="M92 0v687h704v-136h-531v-135h469v-134h-469v-145h539v-137h-712zM230 737l158 142h117l160 -142h-125l-128 113h67l-127 -113h-122z" />
    <glyph glyph-name="Edieresis" unicode="&#xcb;" horiz-adv-x="865" 
d="M92 0v687h704v-136h-531v-135h469v-134h-469v-145h539v-137h-712zM246 754v124h143v-124h-143zM504 754v124h144v-124h-144z" />
    <glyph glyph-name="Igrave" unicode="&#xcc;" horiz-adv-x="357" 
d="M92 0v687h173v-687h-173zM266 746h-130l-163 128v5h177z" />
    <glyph glyph-name="Iacute" unicode="&#xcd;" horiz-adv-x="357" 
d="M92 0v687h173v-687h-173zM79 746l116 133h177v-5l-163 -128h-130z" />
    <glyph glyph-name="Icircumflex" unicode="&#xce;" horiz-adv-x="357" 
d="M92 0v687h173v-687h-173zM-39 737l159 142h117l159 -142h-125l-128 113h67l-127 -113h-122z" />
    <glyph glyph-name="Idieresis" unicode="&#xcf;" horiz-adv-x="357" 
d="M92 0v687h173v-687h-173zM-22 754v124h143v-124h-143zM235 754v124h144v-124h-144z" />
    <glyph glyph-name="Eth" unicode="&#xd0;" horiz-adv-x="934" 
d="M0 283v122h472v-122h-472zM92 0v687h373q127 0 218 -39.5t140 -116t49 -188.5q0 -111 -49 -187.5t-140 -116t-218 -39.5h-373zM265 137h191q52 0 95.5 12.5t75.5 37t49 61t17 84.5v23q0 48 -17 84.5t-49 61t-75.5 37.5t-95.5 13h-191v-414z" />
    <glyph glyph-name="Ntilde" unicode="&#xd1;" horiz-adv-x="974" 
d="M92 0v687h159l368 -345q11 -9 27.5 -26t34.5 -35.5t31 -32.5h9l-2.5 50t-1.5 50v339h165v-687h-156l-365 345q-26 24 -54 53t-45 47h-8q1 -13 2 -44t1 -70v-331h-165zM250 743q2 29 18.5 59t48.5 50t76 20q37 0 71.5 -10.5t67.5 -21t64 -10.5q23 0 36 12.5t17 29.5h76
q-1 -29 -18.5 -59.5t-49.5 -50.5t-77 -20q-35 0 -70 10.5t-68 21t-62 10.5q-24 0 -37.5 -12.5t-18.5 -28.5h-74z" />
    <glyph glyph-name="Ograve" unicode="&#xd2;" horiz-adv-x="1016" 
d="M508 -12q-138 0 -238 42t-154 121.5t-54 192.5t54 192.5t154 121t238 41.5t238 -41.5t154 -121t54 -192.5t-54 -192.5t-154 -121.5t-238 -42zM508 125q59 0 108 13.5t85 39.5t55.5 65t19.5 90v23q0 51 -19.5 89.5t-55.5 64.5t-85 39.5t-108 13.5t-108 -13.5t-85 -39.5
t-55.5 -64.5t-19.5 -89.5v-23q0 -51 19.5 -90t55.5 -65t85 -39.5t108 -13.5zM595 746h-129l-164 128v5h178z" />
    <glyph glyph-name="Oacute" unicode="&#xd3;" horiz-adv-x="1016" 
d="M508 -12q-138 0 -238 42t-154 121.5t-54 192.5t54 192.5t154 121t238 41.5t238 -41.5t154 -121t54 -192.5t-54 -192.5t-154 -121.5t-238 -42zM508 125q59 0 108 13.5t85 39.5t55.5 65t19.5 90v23q0 51 -19.5 89.5t-55.5 64.5t-85 39.5t-108 13.5t-108 -13.5t-85 -39.5
t-55.5 -64.5t-19.5 -89.5v-23q0 -51 19.5 -90t55.5 -65t85 -39.5t108 -13.5zM408 746l116 133h178v-5l-164 -128h-130z" />
    <glyph glyph-name="Ocircumflex" unicode="&#xd4;" horiz-adv-x="1016" 
d="M508 -12q-138 0 -238 42t-154 121.5t-54 192.5t54 192.5t154 121t238 41.5t238 -41.5t154 -121t54 -192.5t-54 -192.5t-154 -121.5t-238 -42zM508 125q59 0 108 13.5t85 39.5t55.5 65t19.5 90v23q0 51 -19.5 89.5t-55.5 64.5t-85 39.5t-108 13.5t-108 -13.5t-85 -39.5
t-55.5 -64.5t-19.5 -89.5v-23q0 -51 19.5 -90t55.5 -65t85 -39.5t108 -13.5zM291 737l158 142h117l159 -142h-125l-127 113h67l-127 -113h-122z" />
    <glyph glyph-name="Otilde" unicode="&#xd5;" horiz-adv-x="1016" 
d="M508 -12q-138 0 -238 42t-154 121.5t-54 192.5t54 192.5t154 121t238 41.5t238 -41.5t154 -121t54 -192.5t-54 -192.5t-154 -121.5t-238 -42zM508 125q59 0 108 13.5t85 39.5t55.5 65t19.5 90v23q0 51 -19.5 89.5t-55.5 64.5t-85 39.5t-108 13.5t-108 -13.5t-85 -39.5
t-55.5 -64.5t-19.5 -89.5v-23q0 -51 19.5 -90t55.5 -65t85 -39.5t108 -13.5zM270 743q2 29 19 59t48.5 50t76.5 20q37 0 71.5 -10.5t67.5 -21t63 -10.5q23 0 36 12.5t17 29.5h77q-1 -29 -19 -59.5t-50 -50.5t-76 -20q-36 0 -71 10.5t-67.5 21t-62.5 10.5q-24 0 -37 -12.5
t-19 -28.5h-74z" />
    <glyph glyph-name="Odieresis" unicode="&#xd6;" horiz-adv-x="1016" 
d="M508 -12q-137 0 -237.5 42t-154.5 121.5t-54 192.5t54 192.5t154.5 121t237.5 41.5q138 0 238 -41.5t154 -121t54 -192.5t-54 -192.5t-154 -121.5t-238 -42zM508 125q59 0 108 13.5t85 39.5t55.5 65.5t19.5 89.5v23q0 50 -19.5 89t-55.5 65t-85 39.5t-108 13.5
t-108 -13.5t-85 -39.5t-55.5 -65t-19.5 -89v-23q0 -50 19.5 -89.5t55.5 -65.5t85 -39.5t108 -13.5zM307 754v124h143v-124h-143zM565 754v124h144v-124h-144z" />
    <glyph glyph-name="multiply" unicode="&#xd7;" horiz-adv-x="727" 
d="M197 29l-73 73l165 167l-164 164l75 75l164 -164l166 166l74 -74l-167 -166l165 -164l-75 -75l-165 164z" />
    <glyph glyph-name="Oslash" unicode="&#xd8;" horiz-adv-x="1016" 
d="M508 -12q-138 0 -238 42t-154 121.5t-54 192.5t54 192.5t154 121t238 41.5t238 -41.5t154 -121t54 -192.5t-54 -192.5t-154 -121.5t-238 -42zM508 125q59 0 108 13.5t85 39.5t55.5 65t19.5 90v23q0 51 -19.5 89.5t-55.5 64.5t-85 39.5t-108 13.5t-108 -13.5t-85 -39.5
t-55.5 -64.5t-19.5 -89.5v-23q0 -51 19.5 -90t55.5 -65t85 -39.5t108 -13.5zM83 -42l729 771h121l-730 -771h-120z" />
    <glyph glyph-name="Ugrave" unicode="&#xd9;" horiz-adv-x="954" 
d="M477 -12q-132 0 -218.5 40t-129 114t-42.5 176v369h173v-361q0 -96 56.5 -148.5t160.5 -52.5t160.5 52.5t56.5 148.5v361h172v-369q0 -102 -42 -176t-128.5 -114t-218.5 -40zM564 746h-129l-164 128v5h178z" />
    <glyph glyph-name="Uacute" unicode="&#xda;" horiz-adv-x="954" 
d="M477 -12q-132 0 -218.5 40t-129 114t-42.5 176v369h173v-361q0 -96 56.5 -148.5t160.5 -52.5t160.5 52.5t56.5 148.5v361h172v-369q0 -102 -42 -176t-128.5 -114t-218.5 -40zM377 746l116 133h178v-5l-164 -128h-130z" />
    <glyph glyph-name="Ucircumflex" unicode="&#xdb;" horiz-adv-x="954" 
d="M477 -12q-132 0 -218.5 40t-129 114t-42.5 176v369h173v-361q0 -96 56.5 -148.5t160.5 -52.5t160.5 52.5t56.5 148.5v361h172v-369q0 -102 -42 -176t-128.5 -114t-218.5 -40zM260 737l158 142h117l159 -142h-125l-127 113h67l-127 -113h-122z" />
    <glyph glyph-name="Udieresis" unicode="&#xdc;" horiz-adv-x="954" 
d="M477 -12q-132 0 -218.5 40t-129 114t-42.5 176v369h173v-361q0 -96 56.5 -148.5t160.5 -52.5t160.5 52.5t56.5 148.5v361h172v-369q0 -102 -42 -176t-128.5 -114t-218.5 -40zM276 754v124h143v-124h-143zM534 754v124h144v-124h-144z" />
    <glyph glyph-name="Yacute" unicode="&#xdd;" horiz-adv-x="884" 
d="M355 0v276l-337 411h206l217 -275h10l219 275h196l-338 -411v-276h-173zM343 746l116 133h177v-5l-164 -128h-129z" />
    <glyph glyph-name="Thorn" unicode="&#xde;" horiz-adv-x="871" 
d="M92 0v687h173v-104h342q67 0 117 -29t78 -80.5t28 -118.5t-28.5 -119t-79.5 -81.5t-118 -29.5h-339v-125h-173zM265 262h291q50 0 77 24.5t27 67.5q0 29 -12 50t-35.5 32t-56.5 11h-291v-185z" />
    <glyph glyph-name="germandbls" unicode="&#xdf;" horiz-adv-x="765" 
d="M71 0v505q0 67 26 111.5t70 71t100.5 37.5t117.5 11q67 0 122 -10.5t95.5 -32t63 -55.5t22.5 -81q0 -55 -32 -97.5t-92 -61.5v-5q70 -9 114 -58t44 -123q0 -73 -33.5 -120t-92.5 -69.5t-138 -22.5h-123v114h100q40 0 68.5 12t43.5 36t15 61q0 36 -16 60.5t-44.5 37
t-65.5 12.5h-101v117h87q35 0 59.5 11t38.5 31.5t14 46.5q0 37 -36 60t-111 23q-48 0 -84 -11t-55.5 -33.5t-19.5 -59.5v-518h-157z" />
    <glyph glyph-name="agrave" unicode="&#xe0;" horiz-adv-x="754" 
d="M270 -12q-48 0 -89 7.5t-72 25t-48.5 47.5t-17.5 76q0 63 35 99.5t98.5 52.5t149 20.5t186.5 4.5v19q0 33 -16 52t-48.5 27.5t-84.5 8.5q-39 0 -71.5 -5.5t-51.5 -17t-19 -29.5v-10h-157q-1 4 -1.5 7.5t-0.5 8.5q0 47 35 82.5t104.5 55t172.5 19.5q96 0 161.5 -17
t99.5 -56t34 -104v-221q0 -18 7.5 -28.5t25.5 -10.5h52v-96q-12 -5 -40 -11.5t-62 -6.5q-46 0 -72.5 10.5t-38.5 29t-17 40.5h-8q-28 -25 -66.5 -43t-83.5 -27.5t-96 -9.5zM311 99q28 0 62.5 6.5t66.5 19t52 31.5t20 46v28q-107 0 -176 -8t-103 -25t-34 -48
q0 -21 16.5 -31.5t42.5 -14.5t53 -4zM482 591h-130l-163 128v5h177z" />
    <glyph glyph-name="aacute" unicode="&#xe1;" horiz-adv-x="754" 
d="M270 -12q-48 0 -89 7.5t-72 25t-48.5 47.5t-17.5 76q0 63 35 99.5t98.5 52.5t149 20.5t186.5 4.5v19q0 33 -16 52t-48.5 27.5t-84.5 8.5q-39 0 -71.5 -5.5t-51.5 -17t-19 -29.5v-10h-157q-1 4 -1.5 7.5t-0.5 8.5q0 47 35 82.5t104.5 55t172.5 19.5q96 0 161.5 -17
t99.5 -56t34 -104v-221q0 -18 7.5 -28.5t25.5 -10.5h52v-96q-12 -5 -40 -11.5t-62 -6.5q-46 0 -72.5 10.5t-38.5 29t-17 40.5h-8q-28 -25 -66.5 -43t-83.5 -27.5t-96 -9.5zM311 99q28 0 62.5 6.5t66.5 19t52 31.5t20 46v28q-107 0 -176 -8t-103 -25t-34 -48
q0 -21 16.5 -31.5t42.5 -14.5t53 -4zM255 591l116 133h178v-5l-164 -128h-130z" />
    <glyph glyph-name="acircumflex" unicode="&#xe2;" horiz-adv-x="754" 
d="M270 -12q-48 0 -89 7.5t-72 25t-48.5 47.5t-17.5 76q0 63 35 99.5t98.5 52.5t149 20.5t186.5 4.5v19q0 33 -16 52t-48.5 27.5t-84.5 8.5q-39 0 -71.5 -5.5t-51.5 -17t-19 -29.5v-10h-157q-1 4 -1.5 7.5t-0.5 8.5q0 47 35 82.5t104.5 55t172.5 19.5q96 0 161.5 -17
t99.5 -56t34 -104v-221q0 -18 7.5 -28.5t25.5 -10.5h52v-96q-12 -5 -40 -11.5t-62 -6.5q-46 0 -72.5 10.5t-38.5 29t-17 40.5h-8q-28 -25 -66.5 -43t-83.5 -27.5t-96 -9.5zM311 99q28 0 62.5 6.5t66.5 19t52 31.5t20 46v28q-107 0 -176 -8t-103 -25t-34 -48
q0 -21 16.5 -31.5t42.5 -14.5t53 -4zM150 582l159 142h117l159 -142h-125l-127 113h66l-127 -113h-122z" />
    <glyph glyph-name="atilde" unicode="&#xe3;" horiz-adv-x="754" 
d="M270 -12q-48 0 -89 7.5t-72 25t-48.5 47.5t-17.5 76q0 63 35 99.5t98.5 52.5t149 20.5t186.5 4.5v19q0 33 -16 52t-48.5 27.5t-84.5 8.5q-39 0 -71.5 -5.5t-51.5 -17t-19 -29.5v-10h-157q-1 4 -1.5 7.5t-0.5 8.5q0 47 35 82.5t104.5 55t172.5 19.5q96 0 161.5 -17
t99.5 -56t34 -104v-221q0 -18 7.5 -28.5t25.5 -10.5h52v-96q-12 -5 -40 -11.5t-62 -6.5q-46 0 -72.5 10.5t-38.5 29t-17 40.5h-8q-28 -25 -66.5 -43t-83.5 -27.5t-96 -9.5zM311 99q28 0 62.5 6.5t66.5 19t52 31.5t20 46v28q-107 0 -176 -8t-103 -25t-34 -48
q0 -21 16.5 -31.5t42.5 -14.5t53 -4zM129 596q2 28 19 58t48.5 50t76.5 20q37 0 71.5 -10t67.5 -20.5t63 -10.5q23 0 36 12.5t18 28.5h76q-1 -29 -19 -59t-50 -50t-76 -20q-35 0 -70.5 10.5t-68 20.5t-62.5 10q-24 0 -37 -12.5t-19 -27.5h-74z" />
    <glyph glyph-name="adieresis" unicode="&#xe4;" horiz-adv-x="754" 
d="M270 -12q-48 0 -89 7.5t-72 25t-48.5 47.5t-17.5 76q0 63 35 99.5t98.5 52.5t149 20.5t186.5 4.5v19q0 33 -16 52t-48.5 27.5t-84.5 8.5q-39 0 -71.5 -5.5t-51.5 -17t-19 -29.5v-10h-157q-1 4 -1.5 7.5t-0.5 8.5q0 47 35 82.5t104.5 55t172.5 19.5q96 0 161.5 -17
t99.5 -56t34 -104v-221q0 -18 7.5 -28.5t25.5 -10.5h52v-96q-12 -5 -40 -11.5t-62 -6.5q-46 0 -72.5 10.5t-38.5 29t-17 40.5h-8q-28 -25 -66.5 -43t-83.5 -27.5t-96 -9.5zM311 99q28 0 62.5 6.5t66.5 19t52 31.5t20 46v28q-107 0 -176 -8t-103 -25t-34 -48
q0 -21 16.5 -31.5t42.5 -14.5t53 -4zM167 598v124h143v-124h-143zM424 598v124h144v-124h-144z" />
    <glyph glyph-name="aring" unicode="&#xe5;" horiz-adv-x="754" 
d="M270 -12q-48 0 -89 7.5t-72 25t-48.5 47.5t-17.5 76q0 63 35 99.5t98.5 52.5t149 20.5t186.5 4.5v19q0 33 -16 52t-48.5 27.5t-84.5 8.5q-39 0 -71.5 -5.5t-51.5 -17t-19 -29.5v-10h-157q-1 4 -1.5 7.5t-0.5 8.5q0 47 35 82.5t104.5 55t172.5 19.5q96 0 161.5 -17
t99.5 -56t34 -104v-221q0 -18 7.5 -28.5t25.5 -10.5h52v-96q-12 -5 -40 -11.5t-62 -6.5q-46 0 -72.5 10.5t-38.5 29t-17 40.5h-8q-28 -25 -66.5 -43t-83.5 -27.5t-96 -9.5zM311 99q28 0 62.5 6.5t66.5 19t52 31.5t20 46v28q-107 0 -176 -8t-103 -25t-34 -48
q0 -21 16.5 -31.5t42.5 -14.5t53 -4zM367 568q-45 0 -76.5 31.5t-31.5 76.5t31.5 77t76.5 32t77 -32t32 -77t-32 -76.5t-77 -31.5zM367 624q22 0 37 15.5t15 36.5q0 22 -15 37.5t-37 15.5q-21 0 -36.5 -15.5t-15.5 -37.5q0 -21 15.5 -36.5t36.5 -15.5z" />
    <glyph glyph-name="ae" unicode="&#xe6;" horiz-adv-x="1219" 
d="M294 -12q-53 0 -99 7t-80 24t-53 45t-19 70q0 67 35 105.5t98.5 55.5t149 21.5t186.5 4.5v19q0 33 -16 52t-48.5 27.5t-84.5 8.5q-39 0 -71.5 -5.5t-51.5 -17t-19 -29.5v-10h-157q-1 4 -1.5 7.5t-0.5 8.5q0 47 35 82.5t104.5 55t172.5 19.5q83 0 143.5 -17t95.5 -56
q43 36 100.5 54.5t127.5 18.5q107 0 181 -30t112 -89t38 -146v-46h-500q2 -46 24.5 -74.5t62 -41.5t92.5 -13q23 0 50 5.5t50.5 15.5t39 25.5t18.5 37.5h160q0 -42 -22.5 -78t-64.5 -62t-101.5 -40.5t-133.5 -14.5q-85 0 -151.5 21.5t-110.5 64.5q-33 -27 -78.5 -46.5
t-99.5 -29.5t-113 -10zM311 99q28 0 62.5 6.5t66.5 19t52 31.5t20 46v28q-107 0 -176 -8t-103 -25t-34 -48q0 -21 16.5 -31.5t42.5 -14.5t53 -4zM672 323h334q0 26 -12.5 45.5t-34.5 33t-51.5 20t-62.5 6.5q-50 0 -87.5 -12.5t-59 -36t-26.5 -56.5z" />
    <glyph glyph-name="ccedilla" unicode="&#xe7;" horiz-adv-x="743" 
d="M381 -12q-104 0 -178.5 30.5t-114.5 92t-40 153.5t40 153t114.5 91.5t178.5 30.5q65 0 122.5 -13.5t100.5 -41t67 -68.5t24 -96h-158q0 34 -21 57t-56.5 35.5t-78.5 12.5q-55 0 -93 -18t-58 -51.5t-20 -81.5v-20q0 -47 20.5 -81t60 -52.5t96.5 -18.5q42 0 77.5 13.5
t57 37.5t21.5 55h152q0 -56 -24.5 -97.5t-67 -68.5t-100 -40.5t-122.5 -13.5zM387 -198q-36 0 -74 3t-64 9v50h134q19 0 31 4.5t12 20.5q0 14 -9 19t-32 5h-66l24 117h85l-13 -63q29 -1 53.5 -9t40 -25t15.5 -48q0 -25 -13 -42t-33.5 -25.5t-44.5 -12t-46 -3.5z" />
    <glyph glyph-name="egrave" unicode="&#xe8;" horiz-adv-x="759" 
d="M387 -12q-105 0 -181 29.5t-117.5 90.5t-41.5 155q0 92 40.5 153.5t116 92t177.5 30.5q107 0 181 -30t112 -89t38 -146v-46h-501q3 -46 25 -74.5t61.5 -41.5t92.5 -13q24 0 50.5 5.5t50 15.5t39.5 25.5t18 37.5h160q0 -42 -22 -78t-64 -62t-101.5 -40.5t-133.5 -14.5z
M212 323h333q0 26 -12 45.5t-34.5 33t-51.5 20t-63 6.5q-49 0 -86.5 -12.5t-59 -36t-26.5 -56.5zM494 591h-130l-163 128v5h177z" />
    <glyph glyph-name="eacute" unicode="&#xe9;" horiz-adv-x="759" 
d="M387 -12q-105 0 -181 29.5t-117.5 90.5t-41.5 155q0 92 40.5 153.5t116 92t177.5 30.5q107 0 181 -30t112 -89t38 -146v-46h-501q3 -46 25 -74.5t61.5 -41.5t92.5 -13q24 0 50.5 5.5t50 15.5t39.5 25.5t18 37.5h160q0 -42 -22 -78t-64 -62t-101.5 -40.5t-133.5 -14.5z
M212 323h333q0 26 -12 45.5t-34.5 33t-51.5 20t-63 6.5q-49 0 -86.5 -12.5t-59 -36t-26.5 -56.5zM267 591l116 133h177v-5l-163 -128h-130z" />
    <glyph glyph-name="ecircumflex" unicode="&#xea;" horiz-adv-x="759" 
d="M387 -12q-105 0 -181 29.5t-117.5 90.5t-41.5 155q0 92 40.5 153.5t116 92t177.5 30.5q107 0 181 -30t112 -89t38 -146v-46h-501q3 -46 25 -74.5t61.5 -41.5t92.5 -13q24 0 50.5 5.5t50 15.5t39.5 25.5t18 37.5h160q0 -42 -22 -78t-64 -62t-101.5 -40.5t-133.5 -14.5z
M212 323h333q0 26 -12 45.5t-34.5 33t-51.5 20t-63 6.5q-49 0 -86.5 -12.5t-59 -36t-26.5 -56.5zM162 582l159 142h116l160 -142h-125l-128 113h67l-127 -113h-122z" />
    <glyph glyph-name="edieresis" unicode="&#xeb;" horiz-adv-x="759" 
d="M387 -12q-105 0 -181 29.5t-117.5 90.5t-41.5 155q0 92 40.5 153.5t116 92t177.5 30.5q107 0 181 -30t112 -89t38 -146v-46h-501q3 -46 25 -74.5t61.5 -41.5t92.5 -13q24 0 50.5 5.5t50 15.5t39.5 25.5t18 37.5h160q0 -42 -22 -78t-64 -62t-101.5 -40.5t-133.5 -14.5z
M212 323h333q0 26 -12 45.5t-34.5 33t-51.5 20t-63 6.5q-49 0 -86.5 -12.5t-59 -36t-26.5 -56.5zM178 598v124h144v-124h-144zM436 598v124h144v-124h-144z" />
    <glyph glyph-name="igrave" unicode="&#xec;" horiz-adv-x="294" 
d="M69 0v527h156v-527h-156zM261 591h-129l-164 128v5h178z" />
    <glyph glyph-name="iacute" unicode="&#xed;" horiz-adv-x="294" 
d="M69 0v527h156v-527h-156zM35 591l115 133h178v-5l-164 -128h-129z" />
    <glyph glyph-name="icircumflex" unicode="&#xee;" horiz-adv-x="294" 
d="M69 0v527h156v-527h-156zM-70 582l158 142h117l159 -142h-125l-127 113h67l-127 -113h-122z" />
    <glyph glyph-name="idieresis" unicode="&#xef;" horiz-adv-x="294" 
d="M69 0v527h156v-527h-156zM-54 598v124h143v-124h-143zM204 598v124h144v-124h-144z" />
    <glyph glyph-name="eth" unicode="&#xf0;" horiz-adv-x="760" 
d="M380 -12q-103 0 -178 31t-115 91.5t-40 146.5q0 81 39 140t109.5 91t166.5 32q27 0 52 -4t47 -11l4 6q-20 22 -42.5 43t-45.5 39l-187 -20v70l114 12q-22 18 -45 33.5t-46 29.5v6h176q14 -7 26.5 -15.5t25.5 -17t25 -17.5l165 17v-69l-92 -10q52 -45 91 -98t61 -113
t22 -128q0 -95 -39 -158.5t-113.5 -95t-180.5 -31.5zM380 102q55 0 93 18t58 52t20 81v20q0 48 -20 81.5t-58 52t-93 18.5t-93 -18.5t-58 -52t-20 -81.5v-20q0 -47 20 -81t58 -52t93 -18z" />
    <glyph glyph-name="ntilde" unicode="&#xf1;" horiz-adv-x="732" 
d="M69 0v527h126l11 -89h9q29 38 65.5 60t78 31.5t81.5 9.5q75 0 125.5 -23.5t75.5 -71.5t25 -121v-323h-156v298q0 31 -9 53.5t-25 36.5t-39.5 20.5t-52.5 6.5q-42 0 -78 -17.5t-58.5 -48t-22.5 -71.5v-278h-156zM128 596q1 28 18 58t48.5 50t76.5 20q37 0 71.5 -10
t67.5 -20.5t64 -10.5q23 0 35.5 12.5t17.5 28.5h76q-1 -29 -19 -59t-49.5 -50t-76.5 -20q-35 0 -70 10.5t-68 20.5t-63 10q-24 0 -37 -12.5t-19 -27.5h-73z" />
    <glyph glyph-name="ograve" unicode="&#xf2;" horiz-adv-x="760" 
d="M380 -12q-103 0 -177.5 31t-115 92.5t-40.5 152.5q0 92 40.5 153t115 91.5t177.5 30.5t177.5 -30.5t115 -91.5t40.5 -153q0 -91 -40.5 -152.5t-115 -92.5t-177.5 -31zM380 102q54 0 92.5 18.5t58.5 52.5t20 81v20q0 48 -20 81.5t-58.5 51.5t-92.5 18q-55 0 -93 -18
t-58 -51.5t-20 -81.5v-20q0 -47 20 -81t58 -52.5t93 -18.5zM494 591h-129l-164 128v5h178z" />
    <glyph glyph-name="oacute" unicode="&#xf3;" horiz-adv-x="760" 
d="M380 -12q-103 0 -177.5 31t-115 92.5t-40.5 152.5q0 92 40.5 153t115 91.5t177.5 30.5t177.5 -30.5t115 -91.5t40.5 -153q0 -91 -40.5 -152.5t-115 -92.5t-177.5 -31zM380 102q54 0 92.5 18.5t58.5 52.5t20 81v20q0 48 -20 81.5t-58.5 51.5t-92.5 18q-55 0 -93 -18
t-58 -51.5t-20 -81.5v-20q0 -47 20 -81t58 -52.5t93 -18.5zM268 591l115 133h178v-5l-164 -128h-129z" />
    <glyph glyph-name="ocircumflex" unicode="&#xf4;" horiz-adv-x="760" 
d="M380 -12q-103 0 -177.5 31t-115 92.5t-40.5 152.5q0 92 40.5 153t115 91.5t177.5 30.5t177.5 -30.5t115 -91.5t40.5 -153q0 -91 -40.5 -152.5t-115 -92.5t-177.5 -31zM380 102q54 0 92.5 18.5t58.5 52.5t20 81v20q0 48 -20 81.5t-58.5 51.5t-92.5 18q-55 0 -93 -18
t-58 -51.5t-20 -81.5v-20q0 -47 20 -81t58 -52.5t93 -18.5zM163 582l158 142h117l159 -142h-125l-127 113h67l-127 -113h-122z" />
    <glyph glyph-name="otilde" unicode="&#xf5;" horiz-adv-x="760" 
d="M380 -12q-103 0 -177.5 31t-115 92.5t-40.5 152.5q0 92 40.5 153t115 91.5t177.5 30.5t177.5 -30.5t115 -91.5t40.5 -153q0 -91 -40.5 -152.5t-115 -92.5t-177.5 -31zM380 102q54 0 92.5 18.5t58.5 52.5t20 81v20q0 48 -20 81.5t-58.5 51.5t-92.5 18q-55 0 -93 -18
t-58 -51.5t-20 -81.5v-20q0 -47 20 -81t58 -52.5t93 -18.5zM142 596q1 28 18 58t48.5 50t76.5 20q37 0 71.5 -10t67.5 -20.5t64 -10.5q23 0 36 12.5t17 28.5h76q-1 -29 -19 -59t-49.5 -50t-76.5 -20q-35 0 -70 10.5t-68 20.5t-63 10q-23 0 -36.5 -12.5t-18.5 -27.5h-74z" />
    <glyph glyph-name="odieresis" unicode="&#xf6;" horiz-adv-x="760" 
d="M380 -12q-103 0 -177.5 31t-115 92.5t-40.5 152.5q0 92 40.5 153t115 91.5t177.5 30.5t177.5 -30.5t115 -91.5t40.5 -153q0 -91 -40.5 -152.5t-115 -92.5t-177.5 -31zM380 102q54 0 92.5 18.5t58.5 52.5t20 81v20q0 48 -20 81.5t-58.5 51.5t-92.5 18q-55 0 -93 -18
t-58 -51.5t-20 -81.5v-20q0 -47 20 -81t58 -52.5t93 -18.5zM179 598v124h143v-124h-143zM437 598v124h144v-124h-144z" />
    <glyph glyph-name="divide" unicode="&#xf7;" horiz-adv-x="727" 
d="M85 217v107h556v-107h-556zM308 14v114h110v-114h-110zM308 414v114h110v-114h-110z" />
    <glyph glyph-name="oslash" unicode="&#xf8;" horiz-adv-x="760" 
d="M380 -12q-103 0 -177.5 31t-115 92.5t-40.5 152.5q0 92 40.5 153t115 91.5t177.5 30.5t177.5 -30.5t115 -91.5t40.5 -153q0 -91 -40.5 -152.5t-115 -92.5t-177.5 -31zM380 102q54 0 92.5 18.5t58.5 52.5t20 81v20q0 48 -20 81.5t-58.5 51.5t-92.5 18q-55 0 -93 -18
t-58 -51.5t-20 -81.5v-20q0 -47 20 -81t58 -52.5t93 -18.5zM46 -41l573 610h95l-571 -610h-97z" />
    <glyph glyph-name="ugrave" unicode="&#xf9;" horiz-adv-x="732" 
d="M291 -12q-111 0 -168.5 53.5t-57.5 162.5v323h157v-298q0 -31 8.5 -53.5t25 -36.5t40 -20t52.5 -6q42 0 78 17t58 48t22 71v278h157v-527h-126l-11 89h-9q-28 -38 -65.5 -60t-78.5 -31.5t-82 -9.5zM480 591h-129l-164 128v5h178z" />
    <glyph glyph-name="uacute" unicode="&#xfa;" horiz-adv-x="732" 
d="M291 -12q-111 0 -168.5 53.5t-57.5 162.5v323h157v-298q0 -31 8.5 -53.5t25 -36.5t40 -20t52.5 -6q42 0 78 17t58 48t22 71v278h157v-527h-126l-11 89h-9q-28 -38 -65.5 -60t-78.5 -31.5t-82 -9.5zM253 591l116 133h178v-5l-164 -128h-130z" />
    <glyph glyph-name="ucircumflex" unicode="&#xfb;" horiz-adv-x="732" 
d="M291 -12q-111 0 -168.5 53.5t-57.5 162.5v323h157v-298q0 -31 8.5 -53.5t25 -36.5t40 -20t52.5 -6q42 0 78 17t58 48t22 71v278h157v-527h-126l-11 89h-9q-28 -38 -65.5 -60t-78.5 -31.5t-82 -9.5zM149 582l158 142h117l159 -142h-125l-127 113h67l-127 -113h-122z" />
    <glyph glyph-name="udieresis" unicode="&#xfc;" horiz-adv-x="732" 
d="M291 -12q-111 0 -168.5 53.5t-57.5 162.5v323h157v-298q0 -31 8.5 -53.5t25 -36.5t40 -20t52.5 -6q42 0 78 17t58 48t22 71v278h157v-527h-126l-11 89h-9q-28 -38 -65.5 -60t-78.5 -31.5t-82 -9.5zM165 598v124h143v-124h-143zM422 598v124h145v-124h-145z" />
    <glyph glyph-name="yacute" unicode="&#xfd;" horiz-adv-x="674" 
d="M146 -201q-30 0 -54.5 5t-45.5 13v97h75q44 0 70 10t41.5 29.5t28.5 46.5l-257 527h171l109 -250q8 -17 19 -42.5t22 -51.5t19 -46h8q1 3 6.5 19t14.5 38t18 45t16 41l99 247h164l-218 -478q-26 -57 -52 -103t-59.5 -79t-80.5 -50.5t-114 -17.5zM225 591l116 133h177v-5
l-163 -128h-130z" />
    <glyph glyph-name="thorn" unicode="&#xfe;" horiz-adv-x="743" 
d="M69 -189v913h156v-262h8q22 26 53 43t68.5 25.5t76.5 8.5q78 0 137.5 -30t93.5 -90.5t34 -153.5q0 -94 -34 -155t-93.5 -91.5t-137.5 -30.5q-39 0 -76.5 8.5t-68.5 26t-53 43.5h-8v-255h-156zM381 113q50 0 85 17t53 49t18 77v15q0 45 -18 77t-52.5 49.5t-83.5 17.5
q-38 0 -67.5 -10.5t-50 -29.5t-31 -46t-10.5 -62v-8q0 -45 18.5 -78t54 -50.5t84.5 -17.5z" />
    <glyph glyph-name="ydieresis" unicode="&#xff;" horiz-adv-x="674" 
d="M146 -201q-30 0 -54.5 5t-45.5 13v97h75q44 0 70 10t41.5 29.5t28.5 46.5l-257 527h171l109 -250q8 -17 19 -42.5t22 -51.5t19 -46h8q1 3 6.5 19t14.5 38t18 45t16 41l99 247h164l-218 -478q-26 -57 -52 -103t-59.5 -79t-80.5 -50.5t-114 -17.5zM137 598v124h143v-124
h-143zM394 598v124h144v-124h-144z" />
    <glyph glyph-name="Amacron" unicode="&#x100;" horiz-adv-x="918" 
d="M21 0l341 687h194l341 -687h-188l-60 124h-391l-60 -124h-177zM321 257h265l-73 157q-4 10 -13 30t-17.5 41t-15.5 38t-9 21h-8q-8 -20 -19 -45t-20.5 -48.5t-16.5 -37.5zM266 758v82h386v-82h-386z" />
    <glyph glyph-name="amacron" unicode="&#x101;" horiz-adv-x="754" 
d="M270 -12q-48 0 -89 7.5t-72 25t-48.5 47.5t-17.5 76q0 63 35 99.5t98.5 52.5t149 20.5t186.5 4.5v19q0 33 -16 52t-48.5 27.5t-84.5 8.5q-39 0 -71.5 -5.5t-51.5 -17t-19 -29.5v-10h-157q-1 4 -1.5 7.5t-0.5 8.5q0 47 35 82.5t104.5 55t172.5 19.5q96 0 161.5 -17
t99.5 -56t34 -104v-221q0 -18 7.5 -28.5t25.5 -10.5h52v-96q-12 -5 -40 -11.5t-62 -6.5q-46 0 -72.5 10.5t-38.5 29t-17 40.5h-8q-28 -25 -66.5 -43t-83.5 -27.5t-96 -9.5zM311 99q28 0 62.5 6.5t66.5 19t52 31.5t20 46v28q-107 0 -176 -8t-103 -25t-34 -48
q0 -21 16.5 -31.5t42.5 -14.5t53 -4zM174 618v82h386v-82h-386z" />
    <glyph glyph-name="Abreve" unicode="&#x102;" horiz-adv-x="918" 
d="M21 0l341 687h194l341 -687h-188l-60 124h-391l-60 -124h-177zM321 257h265l-73 157q-4 10 -13 30t-17.5 41t-15.5 38t-9 21h-8q-8 -20 -19 -45t-20.5 -48.5t-16.5 -37.5zM458 745q-70 0 -115.5 20.5t-67.5 51.5t-22 62h90q4 -13 18.5 -25t39.5 -20t57 -8q38 0 62.5 9
t38 21.5t15.5 22.5h90q0 -31 -22.5 -62t-68.5 -51.5t-115 -20.5z" />
    <glyph glyph-name="abreve" unicode="&#x103;" horiz-adv-x="754" 
d="M270 -12q-48 0 -89 7.5t-72 25t-48.5 47.5t-17.5 76q0 63 35 99.5t98.5 52.5t149 20.5t186.5 4.5v19q0 33 -16 52t-48.5 27.5t-84.5 8.5q-39 0 -71.5 -5.5t-51.5 -17t-19 -29.5v-10h-157q-1 4 -1.5 7.5t-0.5 8.5q0 47 35 82.5t104.5 55t172.5 19.5q96 0 161.5 -17
t99.5 -56t34 -104v-221q0 -18 7.5 -28.5t25.5 -10.5h52v-96q-12 -5 -40 -11.5t-62 -6.5q-46 0 -72.5 10.5t-38.5 29t-17 40.5h-8q-28 -25 -66.5 -43t-83.5 -27.5t-96 -9.5zM311 99q28 0 62.5 6.5t66.5 19t52 31.5t20 46v28q-107 0 -176 -8t-103 -25t-34 -48
q0 -21 16.5 -31.5t42.5 -14.5t53 -4zM367 590q-70 0 -115.5 20.5t-67.5 51.5t-22 62h90q3 -13 18 -25t39.5 -19.5t57.5 -7.5q38 0 62.5 8.5t38 21t15.5 22.5h90q0 -31 -22.5 -62t-68.5 -51.5t-115 -20.5z" />
    <glyph glyph-name="Aogonek" unicode="&#x104;" horiz-adv-x="918" 
d="M21 0l341 687h194l341 -687h-188l-60 124h-391l-60 -124h-177zM321 257h265l-73 157q-4 10 -13 30t-17.5 41t-15.5 38t-9 21h-8q-8 -20 -19 -45t-20.5 -48.5t-16.5 -37.5zM795 -198q-32 0 -61.5 10t-48.5 33t-19 61q0 36 16.5 61.5t38.5 44.5h94v-4q-18 -12 -31.5 -31.5
t-13.5 -41.5q0 -21 15.5 -38.5t46.5 -17.5h72v-63q-24 -7 -54.5 -10.5t-54.5 -3.5z" />
    <glyph glyph-name="aogonek" unicode="&#x105;" horiz-adv-x="754" 
d="M270 -12q-48 0 -89 7.5t-72 25t-48.5 47.5t-17.5 76q0 63 35 99.5t98.5 52.5t149 20.5t186.5 4.5v19q0 33 -16 52t-48.5 27.5t-84.5 8.5q-39 0 -71.5 -5.5t-51.5 -17t-19 -29.5v-10h-157q-1 4 -1.5 7.5t-0.5 8.5q0 47 35 82.5t104.5 55t172.5 19.5q96 0 161.5 -17
t99.5 -56t34 -104v-221q0 -18 7.5 -28.5t25.5 -10.5h52v-96q-12 -5 -40 -11.5t-62 -6.5q-46 0 -72.5 10.5t-38.5 29t-17 40.5h-8q-28 -25 -66.5 -43t-83.5 -27.5t-96 -9.5zM311 99q28 0 62.5 6.5t66.5 19t52 31.5t20 46v28q-107 0 -176 -8t-103 -25t-34 -48
q0 -21 16.5 -31.5t42.5 -14.5t53 -4zM644 -198q-31 0 -60.5 10t-49 33t-19.5 61q0 36 17 61.5t39 44.5h94v-4q-18 -12 -31.5 -31.5t-13.5 -41.5q0 -21 15.5 -38.5t46.5 -17.5h72v-63q-24 -7 -54.5 -10.5t-55.5 -3.5z" />
    <glyph glyph-name="Cacute" unicode="&#x106;" horiz-adv-x="944" 
d="M488 -12q-141 0 -236 40.5t-142.5 120t-47.5 195.5q0 170 109 262.5t316 92.5q117 0 206 -34t139 -97t50 -150h-169q0 46 -28.5 78.5t-80 49.5t-120.5 17q-76 0 -131 -25t-84 -71t-29 -110v-25q0 -64 29 -110.5t84 -71.5t131 -25q73 0 125 16t80.5 48t28.5 78h165
q0 -85 -49 -148t-137.5 -97t-208.5 -34zM387 746l116 133h177v-5l-163 -128h-130z" />
    <glyph glyph-name="cacute" unicode="&#x107;" horiz-adv-x="743" 
d="M381 -12q-104 0 -178.5 30.5t-114.5 92t-40 153.5t40 153t114.5 91.5t178.5 30.5q65 0 122.5 -13.5t100.5 -41t67 -68.5t24 -96h-158q0 34 -21 57t-56.5 35.5t-78.5 12.5q-55 0 -93 -18t-58 -51.5t-20 -81.5v-20q0 -47 20.5 -81t60 -52.5t96.5 -18.5q42 0 77.5 13.5
t57 37.5t21.5 55h152q0 -56 -24.5 -97.5t-67 -68.5t-100 -40.5t-122.5 -13.5zM268 591l116 133h178v-5l-164 -128h-130z" />
    <glyph glyph-name="Ccircumflex" unicode="&#x108;" horiz-adv-x="944" 
d="M488 -12q-141 0 -236 40.5t-142.5 120t-47.5 195.5q0 170 109 262.5t316 92.5q117 0 206 -34t139 -97t50 -150h-169q0 46 -28.5 78.5t-80 49.5t-120.5 17q-76 0 -131 -25t-84 -71t-29 -110v-25q0 -64 29 -110.5t84 -71.5t131 -25q73 0 125 16t80.5 48t28.5 78h165
q0 -85 -49 -148t-137.5 -97t-208.5 -34zM269 737l159 142h117l159 -142h-125l-127 113h66l-127 -113h-122z" />
    <glyph glyph-name="ccircumflex" unicode="&#x109;" horiz-adv-x="743" 
d="M381 -12q-104 0 -178.5 30.5t-114.5 92t-40 153.5t40 153t114.5 91.5t178.5 30.5q65 0 122.5 -13.5t100.5 -41t67 -68.5t24 -96h-158q0 34 -21 57t-56.5 35.5t-78.5 12.5q-55 0 -93 -18t-58 -51.5t-20 -81.5v-20q0 -47 20.5 -81t60 -52.5t96.5 -18.5q42 0 77.5 13.5
t57 37.5t21.5 55h152q0 -56 -24.5 -97.5t-67 -68.5t-100 -40.5t-122.5 -13.5zM164 582l158 142h117l159 -142h-125l-127 113h67l-127 -113h-122z" />
    <glyph glyph-name="Cdotaccent" unicode="&#x10a;" horiz-adv-x="944" 
d="M488 -12q-141 0 -236 40.5t-142.5 120t-47.5 195.5q0 170 109 262.5t316 92.5q117 0 206 -34t139 -97t50 -150h-169q0 46 -28.5 78.5t-80 49.5t-120.5 17q-76 0 -131 -25t-84 -71t-29 -110v-25q0 -64 29 -110.5t84 -71.5t131 -25q73 0 125 16t80.5 48t28.5 78h165
q0 -85 -49 -148t-137.5 -97t-208.5 -34zM415 754v124h143v-124h-143z" />
    <glyph glyph-name="cdotaccent" unicode="&#x10b;" horiz-adv-x="743" 
d="M381 -12q-104 0 -178.5 30.5t-114.5 92t-40 153.5t40 153t114.5 91.5t178.5 30.5q65 0 122.5 -13.5t100.5 -41t67 -68.5t24 -96h-158q0 34 -21 57t-56.5 35.5t-78.5 12.5q-55 0 -93 -18t-58 -51.5t-20 -81.5v-20q0 -47 20.5 -81t60 -52.5t96.5 -18.5q42 0 77.5 13.5
t57 37.5t21.5 55h152q0 -56 -24.5 -97.5t-67 -68.5t-100 -40.5t-122.5 -13.5zM309 598v122h144v-122h-144z" />
    <glyph glyph-name="Ccaron" unicode="&#x10c;" horiz-adv-x="944" 
d="M488 -12q-141 0 -236 40.5t-142.5 120t-47.5 195.5q0 170 109 262.5t316 92.5q117 0 206 -34t139 -97t50 -150h-169q0 46 -28.5 78.5t-80 49.5t-120.5 17q-76 0 -131 -25t-84 -71t-29 -110v-25q0 -64 29 -110.5t84 -71.5t131 -25q73 0 125 16t80.5 48t28.5 78h165
q0 -85 -49 -148t-137.5 -97t-208.5 -34zM269 879h122l127 -113h-66l127 113h125l-159 -142h-117z" />
    <glyph glyph-name="ccaron" unicode="&#x10d;" horiz-adv-x="743" 
d="M381 -12q-104 0 -178.5 30.5t-114.5 92t-40 153.5t40 153t114.5 91.5t178.5 30.5q65 0 122.5 -13.5t100.5 -41t67 -68.5t24 -96h-158q0 34 -21 57t-56.5 35.5t-78.5 12.5q-55 0 -93 -18t-58 -51.5t-20 -81.5v-20q0 -47 20.5 -81t60 -52.5t96.5 -18.5q42 0 77.5 13.5
t57 37.5t21.5 55h152q0 -56 -24.5 -97.5t-67 -68.5t-100 -40.5t-122.5 -13.5zM164 724h122l127 -113h-67l127 113h125l-159 -142h-117z" />
    <glyph glyph-name="Dcaron" unicode="&#x10e;" horiz-adv-x="934" 
d="M92 0v687h373q127 0 218 -39.5t140 -116t49 -188.5q0 -111 -49 -187.5t-140 -116t-218 -39.5h-373zM265 137h191q52 0 95.5 12.5t75.5 37t49 61t17 84.5v23q0 48 -17 84.5t-49 61t-75.5 37.5t-95.5 13h-191v-414zM250 879h122l127 -113h-67l127 113h125l-159 -142h-117z
" />
    <glyph glyph-name="dcaron" unicode="&#x10f;" horiz-adv-x="743" 
d="M320 -12q-82 0 -143 30t-95.5 91.5t-34.5 153.5q0 94 34 155t94 91t138 30q39 0 76 -8.5t68.5 -25.5t53.5 -43h7v262h157v-724h-127l-13 83h-8q-38 -52 -91.5 -73.5t-115.5 -21.5zM362 113q50 0 85 17.5t53.5 50.5t18.5 78v8q0 35 -10.5 62t-31 46t-50 29.5t-66.5 10.5
q-49 0 -83.5 -17.5t-52.5 -49.5t-18 -77v-15q0 -45 18.5 -77t53 -49t83.5 -17zM725 555v169h139l-34 -169h-105z" />
    <glyph glyph-name="Dcroat" unicode="&#x110;" horiz-adv-x="934" 
d="M0 283v122h472v-122h-472zM92 0v687h373q127 0 218 -39.5t140 -116t49 -188.5q0 -111 -49 -187.5t-140 -116t-218 -39.5h-373zM265 137h191q52 0 95.5 12.5t75.5 37t49 61t17 84.5v23q0 48 -17 84.5t-49 61t-75.5 37.5t-95.5 13h-191v-414z" />
    <glyph glyph-name="dcroat" unicode="&#x111;" horiz-adv-x="743" 
d="M320 -12q-82 0 -143 30t-95.5 91.5t-34.5 153.5q0 94 34 155t94 91t138 30q39 0 76 -8.5t68.5 -25.5t53.5 -43h7v262h157v-724h-127l-13 83h-8q-38 -52 -91.5 -73.5t-115.5 -21.5zM362 113q50 0 85 17.5t53.5 50.5t18.5 78v8q0 35 -10.5 62t-31 46t-50 29.5t-66.5 10.5
q-49 0 -83.5 -17.5t-52.5 -49.5t-18 -77v-15q0 -45 18.5 -77t53 -49t83.5 -17zM264 576v87h480v-87h-480z" />
    <glyph glyph-name="Emacron" unicode="&#x112;" horiz-adv-x="865" 
d="M92 0v687h704v-136h-531v-135h469v-134h-469v-145h539v-137h-712zM254 758v82h386v-82h-386z" />
    <glyph glyph-name="emacron" unicode="&#x113;" horiz-adv-x="759" 
d="M387 -12q-105 0 -181 29.5t-117.5 90.5t-41.5 155q0 92 40.5 153.5t116 92t177.5 30.5q107 0 181 -30t112 -89t38 -146v-46h-501q3 -46 25 -74.5t61.5 -41.5t92.5 -13q24 0 50.5 5.5t50 15.5t39.5 25.5t18 37.5h160q0 -42 -22 -78t-64 -62t-101.5 -40.5t-133.5 -14.5z
M212 323h333q0 26 -12 45.5t-34.5 33t-51.5 20t-63 6.5q-49 0 -86.5 -12.5t-59 -36t-26.5 -56.5zM186 618v82h386v-82h-386z" />
    <glyph glyph-name="Ebreve" unicode="&#x114;" horiz-adv-x="865" 
d="M92 0v687h704v-136h-531v-135h469v-134h-469v-145h539v-137h-712zM446 745q-69 0 -115 20.5t-68 51.5t-22 62h91q3 -13 17.5 -25t39.5 -20t57 -8q38 0 62.5 9t38.5 21t15 23h90q0 -31 -22.5 -62t-68 -51.5t-115.5 -20.5z" />
    <glyph glyph-name="ebreve" unicode="&#x115;" horiz-adv-x="759" 
d="M387 -12q-105 0 -181 29.5t-117.5 90.5t-41.5 155q0 92 40.5 153.5t116 92t177.5 30.5q107 0 181 -30t112 -89t38 -146v-46h-501q3 -46 25 -74.5t61.5 -41.5t92.5 -13q24 0 50.5 5.5t50 15.5t39.5 25.5t18 37.5h160q0 -42 -22 -78t-64 -62t-101.5 -40.5t-133.5 -14.5z
M212 323h333q0 26 -12 45.5t-34.5 33t-51.5 20t-63 6.5q-49 0 -86.5 -12.5t-59 -36t-26.5 -56.5zM379 590q-70 0 -115.5 20.5t-67.5 51.5t-22 62h90q3 -13 18 -25t39.5 -19.5t57.5 -7.5q38 0 62.5 8.5t38 21t15.5 22.5h90q0 -31 -22.5 -62t-68.5 -51.5t-115 -20.5z" />
    <glyph glyph-name="Edotaccent" unicode="&#x116;" horiz-adv-x="865" 
d="M92 0v687h704v-136h-531v-135h469v-134h-469v-145h539v-137h-712zM376 754v124h143v-124h-143z" />
    <glyph glyph-name="edotaccent" unicode="&#x117;" horiz-adv-x="759" 
d="M387 -12q-105 0 -181 29.5t-117.5 90.5t-41.5 155q0 92 40.5 153.5t116 92t177.5 30.5q107 0 181 -30t112 -89t38 -146v-46h-501q3 -46 25 -74.5t61.5 -41.5t92.5 -13q24 0 50.5 5.5t50 15.5t39.5 25.5t18 37.5h160q0 -42 -22 -78t-64 -62t-101.5 -40.5t-133.5 -14.5z
M212 323h333q0 26 -12 45.5t-34.5 33t-51.5 20t-63 6.5q-49 0 -86.5 -12.5t-59 -36t-26.5 -56.5zM308 598v122h143v-122h-143z" />
    <glyph glyph-name="Eogonek" unicode="&#x118;" horiz-adv-x="865" 
d="M92 0v687h704v-136h-531v-135h469v-134h-469v-145h539v-137h-712zM694 -198q-31 0 -60.5 10t-49 33t-19.5 61q0 36 17 61.5t39 44.5h94v-4q-18 -12 -31.5 -31.5t-13.5 -41.5q0 -21 15.5 -38.5t46.5 -17.5h72v-63q-24 -7 -54.5 -10.5t-55.5 -3.5z" />
    <glyph glyph-name="eogonek" unicode="&#x119;" horiz-adv-x="759" 
d="M387 -12q-105 0 -181 29.5t-117.5 90.5t-41.5 155q0 92 40.5 153.5t116 92t177.5 30.5q107 0 181 -30t112 -89t38 -146v-46h-501q3 -46 25 -74.5t61.5 -41.5t92.5 -13q24 0 50.5 5.5t50 15.5t39.5 25.5t18 37.5h160q0 -42 -22 -78t-64 -62t-101.5 -40.5t-133.5 -14.5z
M212 323h333q0 26 -12 45.5t-34.5 33t-51.5 20t-63 6.5q-49 0 -86.5 -12.5t-59 -36t-26.5 -56.5zM520 -198q-32 0 -61.5 10t-48.5 33t-19 61q0 36 17 61.5t38 44.5h94v-4q-18 -12 -31.5 -31.5t-13.5 -41.5q0 -21 15.5 -38.5t46.5 -17.5h72v-63q-23 -7 -53.5 -10.5
t-55.5 -3.5z" />
    <glyph glyph-name="Ecaron" unicode="&#x11a;" horiz-adv-x="865" 
d="M92 0v687h704v-136h-531v-135h469v-134h-469v-145h539v-137h-712zM230 879h122l127 -113h-67l128 113h125l-160 -142h-117z" />
    <glyph glyph-name="ecaron" unicode="&#x11b;" horiz-adv-x="759" 
d="M387 -12q-105 0 -181 29.5t-117.5 90.5t-41.5 155q0 92 40.5 153.5t116 92t177.5 30.5q107 0 181 -30t112 -89t38 -146v-46h-501q3 -46 25 -74.5t61.5 -41.5t92.5 -13q24 0 50.5 5.5t50 15.5t39.5 25.5t18 37.5h160q0 -42 -22 -78t-64 -62t-101.5 -40.5t-133.5 -14.5z
M212 323h333q0 26 -12 45.5t-34.5 33t-51.5 20t-63 6.5q-49 0 -86.5 -12.5t-59 -36t-26.5 -56.5zM162 724h122l127 -113h-67l128 113h125l-160 -142h-116z" />
    <glyph glyph-name="Gcircumflex" unicode="&#x11c;" horiz-adv-x="1013" 
d="M479 -12q-208 0 -312.5 88t-104.5 267q0 117 53.5 196.5t155 119.5t243.5 40q90 0 165.5 -15.5t131.5 -47.5t86 -80t30 -113h-168q0 33 -19.5 56t-53 37t-76 20.5t-89.5 6.5q-62 0 -114 -12.5t-89.5 -38t-58 -64.5t-20.5 -92v-24q0 -74 32 -119.5t91 -66.5t141 -21
q85 0 141.5 15t85.5 44t29 69v7h-263v124h432v-384h-104l-17 87q-38 -35 -88.5 -56.5t-111 -32t-128.5 -10.5zM290 737l159 142h117l159 -142h-125l-128 113h67l-127 -113h-122z" />
    <glyph glyph-name="gcircumflex" unicode="&#x11d;" horiz-adv-x="744" 
d="M177 -201q-43 0 -80.5 13t-60.5 41t-23 74q0 39 28 69t72 45q-32 16 -46.5 42t-14.5 56q0 42 28.5 72.5t77.5 37.5q-40 21 -64.5 53.5t-24.5 69.5q0 62 36 99t104 52.5t164 15.5q35 0 67 -3t61 -9q49 22 73.5 47.5t28.5 46.5h145q-1 -38 -17 -65t-46 -45t-72 -27
q30 -20 46.5 -48.5t16.5 -64.5q0 -57 -31.5 -94t-91 -54.5t-144.5 -17.5h-136q-30 0 -46 -10t-16 -28t15.5 -29t50.5 -11h304q79 0 120 -44.5t41 -113.5q0 -51 -27 -89t-71.5 -59.5t-98.5 -21.5h-368zM228 -101h299q16 0 29 6.5t21 19.5t8 29q0 25 -17.5 39t-40.5 14h-295
q-26 0 -43.5 -13.5t-17.5 -38.5t16.5 -40.5t40.5 -15.5zM373 303q68 0 107 15t39 54t-39 54t-107 15t-107 -15t-39 -54q0 -28 17.5 -43t50.5 -20.5t78 -5.5zM154 582l158 142h117l160 -142h-125l-128 113h67l-127 -113h-122z" />
    <glyph glyph-name="Gbreve" unicode="&#x11e;" horiz-adv-x="1013" 
d="M479 -12q-208 0 -312.5 88t-104.5 267q0 117 53.5 196.5t155 119.5t243.5 40q90 0 165.5 -15.5t131.5 -47.5t86 -80t30 -113h-168q0 33 -19.5 56t-53 37t-76 20.5t-89.5 6.5q-62 0 -114 -12.5t-89.5 -38t-58 -64.5t-20.5 -92v-24q0 -74 32 -119.5t91 -66.5t141 -21
q85 0 141.5 15t85.5 44t29 69v7h-263v124h432v-384h-104l-17 87q-38 -35 -88.5 -56.5t-111 -32t-128.5 -10.5zM506 745q-69 0 -114.5 20.5t-68 51.5t-22.5 62h91q3 -13 17.5 -25t39.5 -20t57 -8q38 0 62.5 9t38 21.5t15.5 22.5h90q0 -31 -22.5 -62t-68 -51.5t-115.5 -20.5z
" />
    <glyph glyph-name="gbreve" unicode="&#x11f;" horiz-adv-x="744" 
d="M177 -201q-43 0 -80.5 13t-60.5 41t-23 74q0 39 28 69t72 45q-32 16 -46.5 42t-14.5 56q0 42 28.5 72.5t77.5 37.5q-40 21 -64.5 53.5t-24.5 69.5q0 62 36 99t104 52.5t164 15.5q35 0 67 -3t61 -9q49 22 73.5 47.5t28.5 46.5h145q-1 -38 -17 -65t-46 -45t-72 -27
q30 -20 46.5 -48.5t16.5 -64.5q0 -57 -31.5 -94t-91 -54.5t-144.5 -17.5h-136q-30 0 -46 -10t-16 -28t15.5 -29t50.5 -11h304q79 0 120 -44.5t41 -113.5q0 -51 -27 -89t-71.5 -59.5t-98.5 -21.5h-368zM228 -101h299q16 0 29 6.5t21 19.5t8 29q0 25 -17.5 39t-40.5 14h-295
q-26 0 -43.5 -13.5t-17.5 -38.5t16.5 -40.5t40.5 -15.5zM373 303q68 0 107 15t39 54t-39 54t-107 15t-107 -15t-39 -54q0 -28 17.5 -43t50.5 -20.5t78 -5.5zM371 590q-70 0 -115.5 20.5t-67.5 51.5t-22 62h90q3 -13 18 -25t39.5 -19.5t57.5 -7.5q38 0 62.5 8.5t37.5 21
t15 22.5h91q0 -31 -23 -62t-68.5 -51.5t-114.5 -20.5z" />
    <glyph glyph-name="Gdotaccent" unicode="&#x120;" horiz-adv-x="1013" 
d="M479 -12q-208 0 -312.5 88t-104.5 267q0 117 53.5 196.5t155 119.5t243.5 40q90 0 165.5 -15.5t131.5 -47.5t86 -80t30 -113h-168q0 33 -19.5 56t-53 37t-76 20.5t-89.5 6.5q-62 0 -114 -12.5t-89.5 -38t-58 -64.5t-20.5 -92v-24q0 -74 32 -119.5t91 -66.5t141 -21
q85 0 141.5 15t85.5 44t29 69v7h-263v124h432v-384h-104l-17 87q-38 -35 -88.5 -56.5t-111 -32t-128.5 -10.5zM436 754v124h143v-124h-143z" />
    <glyph glyph-name="gdotaccent" unicode="&#x121;" horiz-adv-x="744" 
d="M177 -201q-43 0 -80.5 13t-60.5 41t-23 74q0 39 28 69t72 45q-32 16 -46.5 42t-14.5 56q0 42 28.5 72.5t77.5 37.5q-40 21 -64.5 53.5t-24.5 69.5q0 62 36 99t104 52.5t164 15.5q35 0 67 -3t61 -9q49 22 73.5 47.5t28.5 46.5h145q-1 -38 -17 -65t-46 -45t-72 -27
q30 -20 46.5 -48.5t16.5 -64.5q0 -57 -31.5 -94t-91 -54.5t-144.5 -17.5h-136q-30 0 -46 -10t-16 -28t15.5 -29t50.5 -11h304q79 0 120 -44.5t41 -113.5q0 -51 -27 -89t-71.5 -59.5t-98.5 -21.5h-368zM228 -101h299q16 0 29 6.5t21 19.5t8 29q0 25 -17.5 39t-40.5 14h-295
q-26 0 -43.5 -13.5t-17.5 -38.5t16.5 -40.5t40.5 -15.5zM373 303q68 0 107 15t39 54t-39 54t-107 15t-107 -15t-39 -54q0 -28 17.5 -43t50.5 -20.5t78 -5.5zM300 598v122h143v-122h-143z" />
    <glyph glyph-name="uni0122" unicode="&#x122;" horiz-adv-x="1013" 
d="M479 -12q-208 0 -312.5 88t-104.5 267q0 117 53.5 196.5t155 119.5t243.5 40q90 0 165.5 -15.5t131.5 -47.5t86 -80t30 -113h-168q0 33 -19.5 56t-53 37t-76 20.5t-89.5 6.5q-62 0 -114 -12.5t-89.5 -38t-58 -64.5t-20.5 -92v-24q0 -74 32 -119.5t91 -66.5t141 -21
q85 0 141.5 15t85.5 44t29 69v7h-263v124h432v-384h-104l-17 87q-38 -35 -88.5 -56.5t-111 -32t-128.5 -10.5zM414 -396v73q42 5 64.5 29.5t22.5 65.5h-80v156h173v-137q0 -58 -19.5 -98t-59.5 -61.5t-101 -27.5z" />
    <glyph glyph-name="uni0123" unicode="&#x123;" horiz-adv-x="744" 
d="M177 -201q-43 0 -80.5 13t-60.5 41t-23 74q0 39 28 69t72 45q-32 16 -46.5 42t-14.5 56q0 42 28.5 72.5t77.5 37.5q-40 21 -64.5 53.5t-24.5 69.5q0 62 36 99t104 52.5t164 15.5q35 0 67 -3t61 -9q49 22 73.5 47.5t28.5 46.5h145q-1 -38 -17 -65t-46 -45t-72 -27
q30 -20 46.5 -48.5t16.5 -64.5q0 -57 -31.5 -94t-91 -54.5t-144.5 -17.5h-136q-30 0 -46 -10t-16 -28t15.5 -29t50.5 -11h304q79 0 120 -44.5t41 -113.5q0 -51 -27 -89t-71.5 -59.5t-98.5 -21.5h-368zM228 -101h299q16 0 29 6.5t21 19.5t8 29q0 25 -17.5 39t-40.5 14h-295
q-26 0 -43.5 -13.5t-17.5 -38.5t16.5 -40.5t40.5 -15.5zM373 303q68 0 107 15t39 54t-39 54t-107 15t-107 -15t-39 -54q0 -28 17.5 -43t50.5 -20.5t78 -5.5zM450 885v-64q-36 -4 -55.5 -26t-19.5 -57h69v-137h-151v121q0 50 17.5 84.5t52 54t87.5 24.5z" />
    <glyph glyph-name="Hcircumflex" unicode="&#x124;" horiz-adv-x="975" 
d="M92 0v687h173v-264h445v264h173v-687h-173v277h-445v-277h-173zM271 737l158 142h117l159 -142h-125l-127 113h67l-127 -113h-122z" />
    <glyph glyph-name="hcircumflex" unicode="&#x125;" horiz-adv-x="732" 
d="M69 0v724h156v-267h8q27 31 61.5 49t72 25.5t73.5 7.5q75 0 125.5 -23.5t75.5 -71.5t25 -121v-323h-156v298q0 31 -9 53.5t-25 36.5t-39.5 20.5t-52.5 6.5q-42 0 -78 -17.5t-58.5 -48t-22.5 -71.5v-278h-156zM-70 737l159 142h117l159 -142h-125l-127 113h66l-127 -113
h-122z" />
    <glyph glyph-name="Hbar" unicode="&#x126;" horiz-adv-x="975" 
d="M92 0v687h173v-264h445v264h173v-687h-173v277h-445v-277h-173zM-3 506v103h981v-103h-981z" />
    <glyph glyph-name="hbar" unicode="&#x127;" horiz-adv-x="732" 
d="M69 0v724h156v-267h8q27 31 61.5 49t72 25.5t73.5 7.5q75 0 125.5 -23.5t75.5 -71.5t25 -121v-323h-156v298q0 31 -9 53.5t-25 36.5t-39.5 20.5t-52.5 6.5q-42 0 -78 -17.5t-58.5 -48t-22.5 -71.5v-278h-156zM0 576v87h480v-87h-480z" />
    <glyph glyph-name="Itilde" unicode="&#x128;" horiz-adv-x="357" 
d="M92 0v687h173v-687h-173zM-59 743q1 29 18 59t48.5 50t76.5 20q37 0 71.5 -10.5t67.5 -21t64 -10.5q23 0 36 12.5t17 29.5h76q-1 -29 -19 -59.5t-49.5 -50.5t-76.5 -20q-35 0 -70 10.5t-68 21t-63 10.5q-23 0 -36.5 -12.5t-18.5 -28.5h-74z" />
    <glyph glyph-name="itilde" unicode="&#x129;" horiz-adv-x="294" 
d="M69 0v527h156v-527h-156zM-91 596q1 28 18 58t48.5 50t76.5 20q37 0 71.5 -10t67.5 -20.5t64 -10.5q23 0 36 12.5t17 28.5h76q-1 -29 -19 -59t-49.5 -50t-76.5 -20q-35 0 -70 10.5t-68 20.5t-63 10q-23 0 -36.5 -12.5t-18.5 -27.5h-74z" />
    <glyph glyph-name="Imacron" unicode="&#x12a;" horiz-adv-x="357" 
d="M92 0v687h173v-687h-173zM-15 758v82h386v-82h-386z" />
    <glyph glyph-name="imacron" unicode="&#x12b;" horiz-adv-x="294" 
d="M69 0v527h156v-527h-156zM-46 618v82h385v-82h-385z" />
    <glyph glyph-name="Ibreve" unicode="&#x12c;" horiz-adv-x="357" 
d="M92 0v687h173v-687h-173zM177 745q-69 0 -114.5 20.5t-68 51.5t-22.5 62h91q3 -13 17.5 -25t39.5 -20t57 -8q38 0 62.5 9t38 21.5t15.5 22.5h90q0 -31 -22.5 -62t-68 -51.5t-115.5 -20.5z" />
    <glyph glyph-name="ibreve" unicode="&#x12d;" horiz-adv-x="294" 
d="M69 0v527h156v-527h-156zM146 590q-69 0 -115 20.5t-68 51.5t-22 62h90q4 -13 18.5 -25t39.5 -19.5t57 -7.5q38 0 62.5 8.5t38 21t15.5 22.5h90q0 -31 -22.5 -62t-68 -51.5t-115.5 -20.5z" />
    <glyph glyph-name="Iogonek" unicode="&#x12e;" horiz-adv-x="357" 
d="M92 0v687h173v-687h-173zM166 -198q-31 0 -61 10t-49 33t-19 61q0 36 17 61.5t39 44.5h94v-4q-18 -12 -31.5 -31.5t-13.5 -41.5q0 -21 15 -38.5t47 -17.5h71v-63q-23 -7 -53.5 -10.5t-55.5 -3.5z" />
    <glyph glyph-name="iogonek" unicode="&#x12f;" horiz-adv-x="294" 
d="M69 608v116h156v-116h-156zM69 0v527h156v-527h-156zM143 -198q-32 0 -61.5 10t-48.5 33t-19 61q0 36 17 61.5t39 44.5h94v-4q-18 -12 -32 -31.5t-14 -41.5q0 -21 15.5 -38.5t46.5 -17.5h72v-63q-23 -7 -53.5 -10.5t-55.5 -3.5z" />
    <glyph glyph-name="Idotaccent" unicode="&#x130;" horiz-adv-x="357" 
d="M92 0v687h173v-687h-173zM107 754v124h143v-124h-143z" />
    <glyph glyph-name="dotlessi" unicode="&#x131;" horiz-adv-x="294" 
d="M69 0v527h156v-527h-156z" />
    <glyph glyph-name="IJ" unicode="&#x132;" horiz-adv-x="1070" 
d="M92 0v687h173v-687h-173zM689 -12q-95 0 -161.5 26.5t-102 82.5t-35.5 143v14h165v-19q0 -55 34 -82.5t94 -27.5q66 0 102 33.5t36 105.5v423h172v-415q0 -98 -36.5 -161t-104.5 -93t-163 -30z" />
    <glyph glyph-name="ij" unicode="&#x133;" horiz-adv-x="586" 
d="M69 608v116h156v-116h-156zM69 0v527h156v-527h-156zM363 608v116h156v-116h-156zM342 -201q-17 0 -36.5 2t-38.5 6t-34 9v97h54q36 0 56 19t20 53v542h156v-545q0 -57 -16.5 -98.5t-55 -63t-105.5 -21.5z" />
    <glyph glyph-name="Jcircumflex" unicode="&#x134;" horiz-adv-x="713" 
d="M332 -12q-95 0 -161.5 26.5t-102 82.5t-35.5 143v14h166v-19q0 -55 33.5 -82.5t93.5 -27.5q67 0 102.5 33.5t35.5 105.5v423h172v-415q0 -98 -36.5 -161t-104.5 -93t-163 -30zM331 737l158 142h117l159 -142h-124l-128 113h67l-127 -113h-122z" />
    <glyph glyph-name="jcircumflex" unicode="&#x135;" horiz-adv-x="292" 
d="M48 -201q-17 0 -36.5 2t-38.5 6t-34 9v97h54q37 0 56.5 19t19.5 53v542h156v-545q0 -57 -16.5 -98.5t-55 -63t-105.5 -21.5zM-70 582l158 142h117l159 -142h-125l-127 113h67l-127 -113h-122z" />
    <glyph glyph-name="uni0136" unicode="&#x136;" horiz-adv-x="925" 
d="M92 0v687h173v-355l403 355h222l-322 -285l329 -402h-218l-238 298l-176 -143v-155h-173zM364 -396v73q42 5 64.5 29.5t22.5 65.5h-80v156h173v-137q0 -58 -19.5 -98t-59 -61.5t-101.5 -27.5z" />
    <glyph glyph-name="uni0137" unicode="&#x137;" horiz-adv-x="705" 
d="M69 0v724h156v-426l263 229h194l-224 -209l232 -318h-186l-165 227l-114 -84v-143h-156zM268 -347v64q36 4 55.5 26t19.5 57h-69v136h150v-119q0 -51 -17 -85.5t-51.5 -54.5t-87.5 -24z" />
    <glyph glyph-name="kgreenlandic" unicode="&#x138;" horiz-adv-x="705" 
d="M69 0v527h156v-229l263 229h194l-224 -209l232 -318h-186l-165 227l-114 -84v-143h-156z" />
    <glyph glyph-name="Lacute" unicode="&#x139;" horiz-adv-x="730" 
d="M92 0v687h173v-541h438v-146h-611zM79 746l116 133h177v-5l-163 -128h-130z" />
    <glyph glyph-name="lacute" unicode="&#x13a;" horiz-adv-x="294" 
d="M69 0v724h156v-724h-156zM47 746l116 133h178v-5l-164 -128h-130z" />
    <glyph glyph-name="uni013B" unicode="&#x13b;" horiz-adv-x="730" 
d="M92 0v687h173v-541h438v-146h-611zM306 -396v73q42 5 64.5 29.5t22.5 65.5h-80v156h173v-137q0 -58 -19.5 -98t-59.5 -61.5t-101 -27.5z" />
    <glyph glyph-name="uni013C" unicode="&#x13c;" horiz-adv-x="294" 
d="M69 0v724h156v-724h-156zM66 -347v64q36 4 55.5 26t19.5 57h-69v136h150v-119q0 -51 -17 -85.5t-51.5 -54.5t-87.5 -24z" />
    <glyph glyph-name="Lcaron" unicode="&#x13d;" horiz-adv-x="730" 
d="M92 0v687h173v-541h438v-146h-611zM493 555v169h139l-34 -169h-105z" />
    <glyph glyph-name="lcaron" unicode="&#x13e;" horiz-adv-x="294" 
d="M69 0v724h156v-724h-156zM275 555v169h139l-34 -169h-105z" />
    <glyph glyph-name="Ldot" unicode="&#x13f;" horiz-adv-x="730" 
d="M92 0v687h173v-541h438v-146h-611zM464 319v117h163v-117h-163z" />
    <glyph glyph-name="ldot" unicode="&#x140;" horiz-adv-x="294" 
d="M69 0v724h156v-724h-156zM239 298v122h121v-122h-121z" />
    <glyph glyph-name="Lslash" unicode="&#x141;" horiz-adv-x="730" 
d="M92 0v687h173v-541h438v-146h-611zM0 169v86l468 264v-88z" />
    <glyph glyph-name="lslash" unicode="&#x142;" horiz-adv-x="294" 
d="M69 0v724h156v-724h-156zM-21 215v85l335 212v-87z" />
    <glyph glyph-name="Nacute" unicode="&#x143;" horiz-adv-x="974" 
d="M92 0v687h159l368 -345q11 -9 27.5 -26t34.5 -35.5t31 -32.5h9l-2.5 50t-1.5 50v339h165v-687h-156l-365 345q-26 24 -54 53t-45 47h-8q1 -13 2 -44t1 -70v-331h-165zM388 746l116 133h177v-5l-163 -128h-130z" />
    <glyph glyph-name="nacute" unicode="&#x144;" horiz-adv-x="732" 
d="M69 0v527h126l11 -89h9q29 38 65.5 60t78 31.5t81.5 9.5q75 0 125.5 -23.5t75.5 -71.5t25 -121v-323h-156v298q0 31 -9 53.5t-25 36.5t-39.5 20.5t-52.5 6.5q-42 0 -78 -17.5t-58.5 -48t-22.5 -71.5v-278h-156zM253 591l116 133h178v-5l-164 -128h-130z" />
    <glyph glyph-name="uni0145" unicode="&#x145;" horiz-adv-x="974" 
d="M92 0v687h159l368 -345q11 -9 27.5 -26t34.5 -35.5t31 -32.5h9l-2.5 50t-1.5 50v339h165v-687h-156l-365 345q-26 24 -54 53t-45 47h-8q1 -13 2 -44t1 -70v-331h-165zM394 -396v73q42 5 64.5 29.5t22.5 65.5h-80v156h173v-137q0 -58 -19.5 -98t-59 -61.5t-101.5 -27.5z
" />
    <glyph glyph-name="uni0146" unicode="&#x146;" horiz-adv-x="732" 
d="M69 0v527h126l11 -89h9q29 38 65.5 60t78 31.5t81.5 9.5q75 0 125.5 -23.5t75.5 -71.5t25 -121v-323h-156v298q0 31 -9 53.5t-25 36.5t-39.5 20.5t-52.5 6.5q-42 0 -78 -17.5t-58.5 -48t-22.5 -71.5v-278h-156zM285 -347v64q36 4 55.5 26t19.5 57h-69v136h150v-119
q0 -51 -17 -85.5t-51.5 -54.5t-87.5 -24z" />
    <glyph glyph-name="Ncaron" unicode="&#x147;" horiz-adv-x="974" 
d="M92 0v687h159l368 -345q11 -9 27.5 -26t34.5 -35.5t31 -32.5h9l-2.5 50t-1.5 50v339h165v-687h-156l-365 345q-26 24 -54 53t-45 47h-8q1 -13 2 -44t1 -70v-331h-165zM270 879h122l127 -113h-66l127 113h125l-159 -142h-117z" />
    <glyph glyph-name="ncaron" unicode="&#x148;" horiz-adv-x="732" 
d="M69 0v527h126l11 -89h9q29 38 65.5 60t78 31.5t81.5 9.5q75 0 125.5 -23.5t75.5 -71.5t25 -121v-323h-156v298q0 31 -9 53.5t-25 36.5t-39.5 20.5t-52.5 6.5q-42 0 -78 -17.5t-58.5 -48t-22.5 -71.5v-278h-156zM149 724h122l127 -113h-67l127 113h125l-159 -142h-117z
" />
    <glyph glyph-name="napostrophe" unicode="&#x149;" horiz-adv-x="732" 
d="M69 0v527h126l11 -89h9q29 38 65.5 60t78 31.5t81.5 9.5q75 0 125.5 -23.5t75.5 -71.5t25 -121v-323h-156v298q0 31 -9 53.5t-25 36.5t-39.5 20.5t-52.5 6.5q-42 0 -78 -17.5t-58.5 -48t-22.5 -71.5v-278h-156zM-6 525v62q37 2 56 20t19 48h-70v137h151v-106
q0 -53 -17.5 -88t-52.5 -53t-86 -20z" />
    <glyph glyph-name="Eng" unicode="&#x14a;" horiz-adv-x="974" 
d="M693 -201q-14 0 -32 2t-35 5.5t-30 6.5v102h47q36 0 55.5 18.5t19.5 51.5v22l-357 338q-26 24 -54 53t-45 47h-8q1 -13 2 -44t1 -70v-331h-165v687h159l368 -345q11 -9 27.5 -26t34.5 -35.5t31 -32.5h9l-2.5 50t-1.5 50v339h165v-679q0 -44 -5.5 -82.5t-24 -66.5t-56 -44
t-103.5 -16z" />
    <glyph glyph-name="eng" unicode="&#x14b;" horiz-adv-x="732" 
d="M476 -201q-14 0 -32 2t-34.5 5.5t-29.5 6.5v100h54q37 0 56.5 19t19.5 53v313q0 31 -9 53.5t-25 36.5t-39.5 20.5t-52.5 6.5q-42 0 -78 -17.5t-58.5 -48t-22.5 -71.5v-278h-156v527h126l11 -89h9q29 38 65.5 60t78 31.5t81.5 9.5q75 0 125.5 -23.5t75.5 -71.5t25 -121
v-321q0 -46 -6.5 -83t-26 -64t-57 -41.5t-100.5 -14.5z" />
    <glyph glyph-name="Omacron" unicode="&#x14c;" horiz-adv-x="1016" 
d="M508 -12q-137 0 -237.5 42t-154.5 121.5t-54 192.5t54 192.5t154.5 121t237.5 41.5q138 0 238 -41.5t154 -121t54 -192.5t-54 -192.5t-154 -121.5t-238 -42zM508 125q59 0 108 13.5t85 39.5t55.5 65.5t19.5 89.5v23q0 50 -19.5 89t-55.5 65t-85 39.5t-108 13.5
t-108 -13.5t-85 -39.5t-55.5 -65t-19.5 -89v-23q0 -50 19.5 -89.5t55.5 -65.5t85 -39.5t108 -13.5zM315 758v82h385v-82h-385z" />
    <glyph glyph-name="omacron" unicode="&#x14d;" horiz-adv-x="760" 
d="M380 -12q-103 0 -177.5 31t-115 92.5t-40.5 152.5q0 92 40.5 153t115 91.5t177.5 30.5t177.5 -30.5t115 -91.5t40.5 -153q0 -91 -40.5 -152.5t-115 -92.5t-177.5 -31zM380 102q54 0 92.5 18.5t58.5 52.5t20 81v20q0 48 -20 81.5t-58.5 51.5t-92.5 18q-55 0 -93 -18
t-58 -51.5t-20 -81.5v-20q0 -47 20 -81t58 -52.5t93 -18.5zM187 618v82h385v-82h-385z" />
    <glyph glyph-name="Obreve" unicode="&#x14e;" horiz-adv-x="1016" 
d="M508 -12q-138 0 -238 42t-154 121.5t-54 192.5t54 192.5t154 121t238 41.5t238 -41.5t154 -121t54 -192.5t-54 -192.5t-154 -121.5t-238 -42zM508 125q59 0 108 13.5t85 39.5t55.5 65t19.5 90v23q0 51 -19.5 89.5t-55.5 64.5t-85 39.5t-108 13.5t-108 -13.5t-85 -39.5
t-55.5 -64.5t-19.5 -89.5v-23q0 -51 19.5 -90t55.5 -65t85 -39.5t108 -13.5zM507 745q-70 0 -115.5 20.5t-67.5 51.5t-22 62h90q3 -13 18 -25t40 -20t57 -8q38 0 62.5 9t38 21.5t15.5 22.5h90q0 -31 -22.5 -62t-68.5 -51.5t-115 -20.5z" />
    <glyph glyph-name="obreve" unicode="&#x14f;" horiz-adv-x="760" 
d="M380 -12q-103 0 -177.5 31t-115 92.5t-40.5 152.5q0 92 40.5 153t115 91.5t177.5 30.5t177.5 -30.5t115 -91.5t40.5 -153q0 -91 -40.5 -152.5t-115 -92.5t-177.5 -31zM380 102q54 0 92.5 18.5t58.5 52.5t20 81v20q0 48 -20 81.5t-58.5 51.5t-92.5 18q-55 0 -93 -18
t-58 -51.5t-20 -81.5v-20q0 -47 20 -81t58 -52.5t93 -18.5zM379 590q-69 0 -115 20.5t-68 51.5t-22 62h90q4 -13 18.5 -25t39.5 -19.5t57 -7.5q38 0 62.5 8.5t38 21t15.5 22.5h90q0 -31 -22.5 -62t-68 -51.5t-115.5 -20.5z" />
    <glyph glyph-name="Ohungarumlaut" unicode="&#x150;" horiz-adv-x="1016" 
d="M508 -12q-138 0 -238 42t-154 121.5t-54 192.5t54 192.5t154 121t238 41.5t238 -41.5t154 -121t54 -192.5t-54 -192.5t-154 -121.5t-238 -42zM508 125q59 0 108 13.5t85 39.5t55.5 65t19.5 90v23q0 51 -19.5 89.5t-55.5 64.5t-85 39.5t-108 13.5t-108 -13.5t-85 -39.5
t-55.5 -64.5t-19.5 -89.5v-23q0 -51 19.5 -90t55.5 -65t85 -39.5t108 -13.5zM547 746l81 133h165v-7l-137 -126h-109zM308 746l81 133h165v-7l-137 -126h-109z" />
    <glyph glyph-name="ohungarumlaut" unicode="&#x151;" horiz-adv-x="760" 
d="M380 -12q-103 0 -177.5 31t-115 92.5t-40.5 152.5q0 92 40.5 153t115 91.5t177.5 30.5t177.5 -30.5t115 -91.5t40.5 -153q0 -91 -40.5 -152.5t-115 -92.5t-177.5 -31zM380 102q54 0 92.5 18.5t58.5 52.5t20 81v20q0 48 -20 81.5t-58.5 51.5t-92.5 18q-55 0 -93 -18
t-58 -51.5t-20 -81.5v-20q0 -47 20 -81t58 -52.5t93 -18.5zM202 592l82 133h164v-7l-136 -126h-110zM441 592l82 133h164v-7l-137 -126h-109z" />
    <glyph glyph-name="OE" unicode="&#x152;" horiz-adv-x="1549" 
d="M501 -12q-136 0 -234 42t-151.5 121.5t-53.5 192.5t53.5 192.5t151.5 121t234 41.5q86 0 155.5 -21t119.5 -60v69h704v-136h-531v-135h469v-134h-469v-145h539v-137h-712v70q-50 -41 -119.5 -61.5t-155.5 -20.5zM508 125q59 0 108 13.5t85 39.5t55.5 65t19.5 90v23
q0 51 -19.5 89.5t-55.5 64.5t-85 39.5t-108 13.5t-108 -13.5t-85 -39.5t-55.5 -64.5t-19.5 -89.5v-23q0 -51 19.5 -90t55.5 -65t85 -39.5t108 -13.5z" />
    <glyph glyph-name="oe" unicode="&#x153;" horiz-adv-x="1262" 
d="M380 -12q-103 0 -177.5 31t-115 92.5t-40.5 152.5q0 92 40.5 153t115 91.5t177.5 30.5q81 0 144 -20t106 -61q43 41 107.5 61t147.5 20q107 0 181 -30t111.5 -89t37.5 -146v-46h-500q3 -46 25 -74.5t61.5 -41.5t92.5 -13q24 0 50.5 5.5t50 15.5t39.5 25.5t18 37.5h160
q0 -42 -22 -78t-64 -62t-102 -40.5t-133 -14.5q-84 0 -151 20t-112 61q-42 -40 -105 -60.5t-143 -20.5zM380 102q54 0 92.5 18.5t58.5 52.5t20 81v20q0 48 -20 81.5t-58.5 51.5t-92.5 18q-55 0 -93 -18t-58 -51.5t-20 -81.5v-20q0 -47 20 -81t58 -52.5t93 -18.5zM715 323
h334q0 26 -12.5 45.5t-34.5 33t-51 20t-63 6.5q-49 0 -86.5 -12.5t-59.5 -36t-27 -56.5z" />
    <glyph glyph-name="Racute" unicode="&#x154;" horiz-adv-x="925" 
d="M92 0v687h555q74 0 121.5 -30t71.5 -79t24 -109q0 -62 -31.5 -115.5t-95.5 -84.5l143 -269h-194l-121 238h-300v-238h-173zM265 374h331q42 0 66.5 25.5t24.5 65.5q0 28 -11 47t-31 29t-49 10h-331v-177zM363 746l116 133h177v-5l-163 -128h-130z" />
    <glyph glyph-name="racute" unicode="&#x155;" horiz-adv-x="455" 
d="M69 0v527h126l11 -91h8q13 29 35.5 52.5t53.5 37t70 13.5q18 0 36 -2.5t33 -7.5v-131h-77q-38 0 -64.5 -12.5t-43 -34t-24.5 -48t-8 -55.5v-248h-156zM115 591l116 133h178v-5l-164 -128h-130z" />
    <glyph glyph-name="uni0156" unicode="&#x156;" horiz-adv-x="925" 
d="M92 0v687h555q74 0 121.5 -30t71.5 -79t24 -109q0 -62 -31.5 -115.5t-95.5 -84.5l143 -269h-194l-121 238h-300v-238h-173zM265 374h331q42 0 66.5 25.5t24.5 65.5q0 28 -11 47t-31 29t-49 10h-331v-177zM369 -396v73q42 5 64.5 29.5t22.5 65.5h-80v156h173v-137
q0 -58 -19.5 -98t-59 -61.5t-101.5 -27.5z" />
    <glyph glyph-name="uni0157" unicode="&#x157;" horiz-adv-x="455" 
d="M69 0v527h126l11 -91h8q13 29 35.5 52.5t53.5 37t70 13.5q18 0 36 -2.5t33 -7.5v-131h-77q-38 0 -64.5 -12.5t-43 -34t-24.5 -48t-8 -55.5v-248h-156zM67 -347v64q36 4 55.5 26t19.5 57h-69v136h150v-119q0 -51 -17 -85.5t-51.5 -54.5t-87.5 -24z" />
    <glyph glyph-name="Rcaron" unicode="&#x158;" horiz-adv-x="925" 
d="M92 0v687h555q74 0 121.5 -30t71.5 -79t24 -109q0 -62 -31.5 -115.5t-95.5 -84.5l143 -269h-194l-121 238h-300v-238h-173zM265 374h331q42 0 66.5 25.5t24.5 65.5q0 28 -11 47t-31 29t-49 10h-331v-177zM245 879h122l127 -113h-66l127 113h125l-159 -142h-117z" />
    <glyph glyph-name="rcaron" unicode="&#x159;" horiz-adv-x="455" 
d="M69 0v527h126l11 -91h8q13 29 35.5 52.5t53.5 37t70 13.5q18 0 36 -2.5t33 -7.5v-131h-77q-38 0 -64.5 -12.5t-43 -34t-24.5 -48t-8 -55.5v-248h-156zM10 724h122l127 -113h-67l128 113h125l-159 -142h-117z" />
    <glyph glyph-name="Sacute" unicode="&#x15a;" horiz-adv-x="857" 
d="M440 -12q-81 0 -150.5 9.5t-122.5 34.5t-82 69.5t-29 113.5v5t1 5h169q-1 -4 -1 -9v-11q0 -31 25 -49.5t72 -27t110 -8.5q27 0 54.5 2t53 6.5t45.5 12.5t32 20.5t12 29.5q0 24 -23.5 38.5t-63 23.5t-89 15.5t-102.5 15t-102.5 23t-89 38t-63 60.5t-23.5 91q0 50 25 88
t72 64t113.5 38.5t149.5 12.5q84 0 149 -13.5t109.5 -39t67 -63t22.5 -85.5v-15h-168v11q0 22 -21.5 38.5t-60 26.5t-89.5 10q-67 0 -109 -8.5t-62 -23t-20 -31.5q0 -22 23.5 -35t63 -21t89 -14.5t102.5 -15.5t102.5 -22.5t89 -37.5t63 -59.5t23.5 -88.5q0 -81 -47 -130.5
t-129.5 -71.5t-190.5 -22zM329 746l116 133h177v-5l-163 -128h-130z" />
    <glyph glyph-name="sacute" unicode="&#x15b;" horiz-adv-x="684" 
d="M340 -12q-59 0 -113 9.5t-96.5 28.5t-67.5 50t-25 73q0 5 0.5 9t1.5 8h160q0 -2 -0.5 -5t-0.5 -5q0 -23 20 -37t52.5 -20.5t69.5 -6.5q35 0 68.5 4t55.5 15.5t22 35.5t-26 35t-72.5 16.5t-108.5 14.5q-47 7 -87.5 18t-71 28.5t-47.5 45.5t-17 69q0 44 21 75.5t59.5 51.5
t92.5 29t119 9q57 0 107.5 -9t88.5 -28t60 -47t22 -65v-8t-1 -7h-160v5q0 20 -17 32t-44 17.5t-58 5.5q-11 0 -33 -1t-45.5 -5t-39.5 -13t-16 -26q0 -21 25 -31t65.5 -15t87.5 -11q50 -6 95.5 -15t81 -26.5t55.5 -47.5t20 -78q0 -50 -21 -84.5t-60.5 -55t-96 -29.5
t-125.5 -9zM230 591l115 133h178v-5l-164 -128h-129z" />
    <glyph glyph-name="Scircumflex" unicode="&#x15c;" horiz-adv-x="857" 
d="M440 -12q-81 0 -150.5 9.5t-122.5 34.5t-82 69.5t-29 113.5v5t1 5h169q-1 -4 -1 -9v-11q0 -31 25 -49.5t72 -27t110 -8.5q27 0 54.5 2t53 6.5t45.5 12.5t32 20.5t12 29.5q0 24 -23.5 38.5t-63 23.5t-89 15.5t-102.5 15t-102.5 23t-89 38t-63 60.5t-23.5 91q0 50 25 88
t72 64t113.5 38.5t149.5 12.5q84 0 149 -13.5t109.5 -39t67 -63t22.5 -85.5v-15h-168v11q0 22 -21.5 38.5t-60 26.5t-89.5 10q-67 0 -109 -8.5t-62 -23t-20 -31.5q0 -22 23.5 -35t63 -21t89 -14.5t102.5 -15.5t102.5 -22.5t89 -37.5t63 -59.5t23.5 -88.5q0 -81 -47 -130.5
t-129.5 -71.5t-190.5 -22zM211 737l159 142h117l159 -142h-125l-128 113h67l-127 -113h-122z" />
    <glyph glyph-name="scircumflex" unicode="&#x15d;" horiz-adv-x="684" 
d="M340 -12q-59 0 -113 9.5t-96.5 28.5t-67.5 50t-25 73q0 5 0.5 9t1.5 8h160q0 -2 -0.5 -5t-0.5 -5q0 -23 20 -37t52.5 -20.5t69.5 -6.5q35 0 68.5 4t55.5 15.5t22 35.5t-26 35t-72.5 16.5t-108.5 14.5q-47 7 -87.5 18t-71 28.5t-47.5 45.5t-17 69q0 44 21 75.5t59.5 51.5
t92.5 29t119 9q57 0 107.5 -9t88.5 -28t60 -47t22 -65v-8t-1 -7h-160v5q0 20 -17 32t-44 17.5t-58 5.5q-11 0 -33 -1t-45.5 -5t-39.5 -13t-16 -26q0 -21 25 -31t65.5 -15t87.5 -11q50 -6 95.5 -15t81 -26.5t55.5 -47.5t20 -78q0 -50 -21 -84.5t-60.5 -55t-96 -29.5
t-125.5 -9zM125 582l158 142h117l159 -142h-125l-127 113h67l-127 -113h-122z" />
    <glyph glyph-name="Scedilla" unicode="&#x15e;" horiz-adv-x="857" 
d="M440 -12q-81 0 -150.5 9.5t-122.5 34.5t-82 69.5t-29 113.5v5t1 5h169q-1 -4 -1 -9v-11q0 -31 25 -49.5t72 -27t110 -8.5q27 0 54.5 2t53 6.5t45.5 12.5t32 20.5t12 29.5q0 24 -23.5 38.5t-63 23.5t-89 15.5t-102.5 15t-102.5 23t-89 38t-63 60.5t-23.5 91q0 50 25 88
t72 64t113.5 38.5t149.5 12.5q84 0 149 -13.5t109.5 -39t67 -63t22.5 -85.5v-15h-168v11q0 22 -21.5 38.5t-60 26.5t-89.5 10q-67 0 -109 -8.5t-62 -23t-20 -31.5q0 -22 23.5 -35t63 -21t89 -14.5t102.5 -15.5t102.5 -22.5t89 -37.5t63 -59.5t23.5 -88.5q0 -81 -47 -130.5
t-129.5 -71.5t-190.5 -22zM435 -198q-36 0 -74.5 3t-63.5 9v50h133q20 0 32 4.5t12 20.5q0 14 -9.5 19t-32.5 5h-65l23 117h85l-12 -63q29 -1 53.5 -9t39.5 -25t15 -48q0 -25 -12.5 -42t-33 -25.5t-44.5 -12t-46 -3.5z" />
    <glyph glyph-name="scedilla" unicode="&#x15f;" horiz-adv-x="684" 
d="M340 -12q-59 0 -113 9.5t-96.5 28.5t-67.5 50t-25 73q0 5 0.5 9t1.5 8h160q0 -2 -0.5 -5t-0.5 -5q0 -23 20 -37t52.5 -20.5t69.5 -6.5q35 0 68.5 4t55.5 15.5t22 35.5t-26 35t-72.5 16.5t-108.5 14.5q-47 7 -87.5 18t-71 28.5t-47.5 45.5t-17 69q0 44 21 75.5t59.5 51.5
t92.5 29t119 9q57 0 107.5 -9t88.5 -28t60 -47t22 -65v-8t-1 -7h-160v5q0 20 -17 32t-44 17.5t-58 5.5q-11 0 -33 -1t-45.5 -5t-39.5 -13t-16 -26q0 -21 25 -31t65.5 -15t87.5 -11q50 -6 95.5 -15t81 -26.5t55.5 -47.5t20 -78q0 -50 -21 -84.5t-60.5 -55t-96 -29.5
t-125.5 -9zM353 -198q-36 0 -74.5 3t-63.5 9v50h133q20 0 32 4.5t12 20.5q0 14 -9.5 19t-32.5 5h-65l23 117h85l-12 -63q29 -1 53.5 -9t39.5 -25t15 -48q0 -25 -12.5 -42t-33 -25.5t-44.5 -12t-46 -3.5z" />
    <glyph glyph-name="Scaron" unicode="&#x160;" horiz-adv-x="857" 
d="M440 -12q-81 0 -150.5 9.5t-122.5 34.5t-82 69.5t-29 113.5v5t1 5h169q-1 -4 -1 -9v-11q0 -31 25 -49.5t72 -27t110 -8.5q27 0 54.5 2t53 6.5t45.5 12.5t32 20.5t12 29.5q0 24 -23.5 38.5t-63 23.5t-89 15.5t-102.5 15t-102.5 23t-89 38t-63 60.5t-23.5 91q0 50 25 88
t72 64t113.5 38.5t149.5 12.5q84 0 149 -13.5t109.5 -39t67 -63t22.5 -85.5v-15h-168v11q0 22 -21.5 38.5t-60 26.5t-89.5 10q-67 0 -109 -8.5t-62 -23t-20 -31.5q0 -22 23.5 -35t63 -21t89 -14.5t102.5 -15.5t102.5 -22.5t89 -37.5t63 -59.5t23.5 -88.5q0 -81 -47 -130.5
t-129.5 -71.5t-190.5 -22zM211 879h122l127 -113h-67l128 113h125l-159 -142h-117z" />
    <glyph glyph-name="scaron" unicode="&#x161;" horiz-adv-x="684" 
d="M340 -12q-59 0 -113 9.5t-96.5 28.5t-67.5 50t-25 73q0 5 0.5 9t1.5 8h160q0 -2 -0.5 -5t-0.5 -5q0 -23 20 -37t52.5 -20.5t69.5 -6.5q35 0 68.5 4t55.5 15.5t22 35.5t-26 35t-72.5 16.5t-108.5 14.5q-47 7 -87.5 18t-71 28.5t-47.5 45.5t-17 69q0 44 21 75.5t59.5 51.5
t92.5 29t119 9q57 0 107.5 -9t88.5 -28t60 -47t22 -65v-8t-1 -7h-160v5q0 20 -17 32t-44 17.5t-58 5.5q-11 0 -33 -1t-45.5 -5t-39.5 -13t-16 -26q0 -21 25 -31t65.5 -15t87.5 -11q50 -6 95.5 -15t81 -26.5t55.5 -47.5t20 -78q0 -50 -21 -84.5t-60.5 -55t-96 -29.5
t-125.5 -9zM125 724h122l127 -113h-67l127 113h125l-159 -142h-117z" />
    <glyph glyph-name="uni0162" unicode="&#x162;" horiz-adv-x="828" 
d="M328 0v541h-303v146h777v-146h-302v-541h-172zM420 -198q-36 0 -74 3t-64 9v50h134q19 0 31 4.5t12 20.5q0 14 -9 19t-32 5h-66l24 117h85l-13 -63q29 -1 53.5 -9t40 -25t15.5 -48q0 -25 -12.5 -42t-33 -25.5t-44.5 -12t-47 -3.5z" />
    <glyph glyph-name="uni0163" unicode="&#x163;" horiz-adv-x="470" 
d="M304 -12q-61 0 -100.5 15.5t-58.5 53t-19 102.5v254h-102v114h107l31 156h120v-156h145v-114h-145v-234q0 -38 14.5 -57.5t62.5 -19.5h68v-97q-14 -5 -36.5 -9t-46 -6t-40.5 -2zM278 -198q-36 0 -74.5 3t-63.5 9v50h133q20 0 32 4.5t12 20.5q0 14 -9.5 19t-32.5 5h-65
l23 117h85l-12 -63q29 -1 53.5 -9t39.5 -25t15 -48q0 -25 -12.5 -42t-33 -25.5t-44.5 -12t-46 -3.5z" />
    <glyph glyph-name="Tcaron" unicode="&#x164;" horiz-adv-x="828" 
d="M328 0v541h-303v146h777v-146h-302v-541h-172zM197 879h122l127 -113h-67l127 113h125l-159 -142h-117z" />
    <glyph glyph-name="tcaron" unicode="&#x165;" horiz-adv-x="470" 
d="M304 -12q-61 0 -100.5 15.5t-58.5 53t-19 102.5v254h-102v114h107l31 156h120v-156h145v-114h-145v-234q0 -38 14.5 -57.5t62.5 -19.5h68v-97q-14 -5 -36.5 -9t-46 -6t-40.5 -2zM324 555v169h139l-34 -169h-105z" />
    <glyph glyph-name="Tbar" unicode="&#x166;" horiz-adv-x="828" 
d="M328 0v541h-303v146h777v-146h-302v-541h-172zM174 273v98h480v-98h-480z" />
    <glyph glyph-name="tbar" unicode="&#x167;" horiz-adv-x="470" 
d="M35 230v85h364v-85h-364zM304 -12q-61 0 -100.5 15.5t-58.5 53t-19 102.5v254h-102v114h107l31 156h120v-156h145v-114h-145v-234q0 -38 14.5 -57.5t62.5 -19.5h68v-97q-14 -5 -36.5 -9t-46 -6t-40.5 -2z" />
    <glyph glyph-name="Utilde" unicode="&#x168;" horiz-adv-x="954" 
d="M477 -12q-132 0 -218.5 40t-129 114t-42.5 176v369h173v-361q0 -96 56.5 -148.5t160.5 -52.5t160.5 52.5t56.5 148.5v361h172v-369q0 -102 -42 -176t-128.5 -114t-218.5 -40zM239 743q2 29 19 59t48.5 50t76.5 20q37 0 71.5 -10.5t67.5 -21t63 -10.5q23 0 36 12.5
t18 29.5h76q-1 -29 -19 -59.5t-50 -50.5t-76 -20q-35 0 -70.5 10.5t-68 21t-62.5 10.5q-24 0 -37 -12.5t-19 -28.5h-74z" />
    <glyph glyph-name="utilde" unicode="&#x169;" horiz-adv-x="732" 
d="M291 -12q-111 0 -168.5 53.5t-57.5 162.5v323h157v-298q0 -31 8.5 -53.5t25 -36.5t40 -20t52.5 -6q42 0 78 17t58 48t22 71v278h157v-527h-126l-11 89h-9q-28 -38 -65.5 -60t-78.5 -31.5t-82 -9.5zM128 596q1 28 18 58t48.5 50t76.5 20q37 0 71.5 -10t67.5 -20.5
t64 -10.5q23 0 35.5 12.5t17.5 28.5h76q-1 -29 -19 -59t-49.5 -50t-76.5 -20q-35 0 -70 10.5t-68 20.5t-63 10q-24 0 -37 -12.5t-19 -27.5h-73z" />
    <glyph glyph-name="Umacron" unicode="&#x16a;" horiz-adv-x="954" 
d="M477 -12q-132 0 -218.5 40t-129 114t-42.5 176v369h173v-361q0 -96 56.5 -148.5t160.5 -52.5t160.5 52.5t56.5 148.5v361h172v-369q0 -102 -42 -176t-128.5 -114t-218.5 -40zM284 758v82h386v-82h-386z" />
    <glyph glyph-name="umacron" unicode="&#x16b;" horiz-adv-x="732" 
d="M291 -12q-111 0 -168.5 53.5t-57.5 162.5v323h157v-298q0 -31 8.5 -53.5t25 -36.5t40 -20t52.5 -6q42 0 78 17t58 48t22 71v278h157v-527h-126l-11 89h-9q-28 -38 -65.5 -60t-78.5 -31.5t-82 -9.5zM173 618v82h385v-82h-385z" />
    <glyph glyph-name="Ubreve" unicode="&#x16c;" horiz-adv-x="954" 
d="M477 -12q-132 0 -218.5 40t-129 114t-42.5 176v369h173v-361q0 -96 56.5 -148.5t160.5 -52.5t160.5 52.5t56.5 148.5v361h172v-369q0 -102 -42 -176t-128.5 -114t-218.5 -40zM476 745q-70 0 -115.5 20.5t-67.5 51.5t-22 62h90q4 -13 18.5 -25t39.5 -20t57 -8q38 0 62.5 9
t38 21.5t15.5 22.5h90q0 -31 -22.5 -62t-68.5 -51.5t-115 -20.5z" />
    <glyph glyph-name="ubreve" unicode="&#x16d;" horiz-adv-x="732" 
d="M291 -12q-111 0 -168.5 53.5t-57.5 162.5v323h157v-298q0 -31 8.5 -53.5t25 -36.5t40 -20t52.5 -6q42 0 78 17t58 48t22 71v278h157v-527h-126l-11 89h-9q-28 -38 -65.5 -60t-78.5 -31.5t-82 -9.5zM365 590q-70 0 -115.5 20.5t-67.5 51.5t-22 62h90q4 -13 18.5 -25
t39.5 -19.5t57 -7.5q38 0 62.5 8.5t38 21t15.5 22.5h90q0 -31 -22.5 -62t-68.5 -51.5t-115 -20.5z" />
    <glyph glyph-name="Uring" unicode="&#x16e;" horiz-adv-x="954" 
d="M477 -12q-132 0 -218.5 40t-129 114t-42.5 176v369h173v-361q0 -96 56.5 -148.5t160.5 -52.5t160.5 52.5t56.5 148.5v361h172v-369q0 -102 -42 -176t-128.5 -114t-218.5 -40zM476 722q-46 0 -76 29.5t-30 74.5q0 46 30 75.5t77 29.5q46 0 76 -29t30 -75t-30 -75.5
t-77 -29.5zM476 779q22 0 36.5 13t14.5 34q0 22 -14.5 35.5t-36.5 13.5q-21 0 -35.5 -13.5t-14.5 -34.5t14.5 -34.5t35.5 -13.5z" />
    <glyph glyph-name="uring" unicode="&#x16f;" horiz-adv-x="732" 
d="M291 -12q-111 0 -168.5 53.5t-57.5 162.5v323h157v-298q0 -31 8.5 -53.5t25 -36.5t40 -20t52.5 -6q42 0 78 17t58 48t22 71v278h157v-527h-126l-11 89h-9q-28 -38 -65.5 -60t-78.5 -31.5t-82 -9.5zM365 568q-45 0 -76.5 31.5t-31.5 76.5t31.5 77t76.5 32t77 -32t32 -77
t-32 -76.5t-77 -31.5zM365 624q22 0 37.5 15.5t15.5 36.5q0 22 -15.5 37.5t-37.5 15.5q-21 0 -36.5 -15.5t-15.5 -37.5q0 -21 15.5 -36.5t36.5 -15.5z" />
    <glyph glyph-name="Uhungarumlaut" unicode="&#x170;" horiz-adv-x="954" 
d="M477 -12q-132 0 -218.5 40t-129 114t-42.5 176v369h173v-361q0 -96 56.5 -148.5t160.5 -52.5t160.5 52.5t56.5 148.5v361h172v-369q0 -102 -42 -176t-128.5 -114t-218.5 -40zM516 746l82 133h164v-7l-137 -126h-109zM277 746l81 133h165v-7l-137 -126h-109z" />
    <glyph glyph-name="uhungarumlaut" unicode="&#x171;" horiz-adv-x="732" 
d="M291 -12q-111 0 -168.5 53.5t-57.5 162.5v323h157v-298q0 -31 8.5 -53.5t25 -36.5t40 -20t52.5 -6q42 0 78 17t58 48t22 71v278h157v-527h-126l-11 89h-9q-28 -38 -65.5 -60t-78.5 -31.5t-82 -9.5zM188 592l82 133h164v-7l-137 -126h-109zM427 592l82 133h164v-7
l-137 -126h-109z" />
    <glyph glyph-name="Uogonek" unicode="&#x172;" horiz-adv-x="954" 
d="M477 -12q-132 0 -218.5 40t-129 114t-42.5 176v369h173v-361q0 -96 56.5 -148.5t160.5 -52.5t160.5 52.5t56.5 148.5v361h172v-369q0 -102 -42 -176t-128.5 -114t-218.5 -40zM618 -198q-31 0 -61 10t-49 33t-19 61q0 36 17 61.5t39 44.5h94v-4q-18 -12 -31.5 -31.5
t-13.5 -41.5q0 -21 15 -38.5t47 -17.5h71v-63q-23 -7 -53.5 -10.5t-55.5 -3.5z" />
    <glyph glyph-name="uogonek" unicode="&#x173;" horiz-adv-x="732" 
d="M621 -198q-31 0 -60.5 10t-49 33t-19.5 61q0 36 17 61.5t39 44.5h94v-4q-18 -12 -31.5 -31.5t-13.5 -41.5q0 -21 15.5 -38.5t46.5 -17.5h72v-63q-24 -7 -54.5 -10.5t-55.5 -3.5zM291 -12q-111 0 -168.5 53.5t-57.5 162.5v323h157v-298q0 -31 8.5 -53.5t25 -36.5t40 -20
t52.5 -6q42 0 78 17t58 48t22 71v278h157v-527h-126l-11 89h-9q-28 -38 -65.5 -60t-78.5 -31.5t-82 -9.5z" />
    <glyph glyph-name="Wcircumflex" unicode="&#x174;" horiz-adv-x="1200" 
d="M237 0l-227 687h184l126 -412q5 -13 9.5 -31.5t9.5 -37.5t7 -33h7q2 11 5 25.5l6 29t6.5 27t5.5 20.5l117 412h229l118 -412l7.5 -30t9 -37.5t6.5 -34.5h7q2 11 5.5 25t7.5 28t7.5 26.5t6.5 22.5l126 412h167l-227 -687h-208l-128 436q-4 15 -9 33t-8.5 35.5t-5.5 30.5
h-5q-3 -14 -7.5 -33t-9 -36.5t-7.5 -29.5l-125 -436h-213zM383 737l158 142h117l159 -142h-124l-128 113h67l-127 -113h-122z" />
    <glyph glyph-name="wcircumflex" unicode="&#x175;" horiz-adv-x="1014" 
d="M224 0l-220 527h168l93 -251q8 -22 15 -43t12.5 -38.5t7.5 -28.5h8q3 11 8.5 28t12.5 38t14 43l84 252h174l84 -252q3 -8 8.5 -27.5t12 -41t12.5 -40.5h8q4 16 10.5 36.5t13.5 40t11 32.5l92 252h157l-220 -527h-155l-82 240q-7 23 -15 46.5t-15 44.5t-11 34h-7
q-5 -15 -12.5 -36.5t-14.5 -45t-14 -44.5l-80 -239h-160zM300 582l158 142h117l160 -142h-125l-128 113h67l-127 -113h-122z" />
    <glyph glyph-name="Ycircumflex" unicode="&#x176;" horiz-adv-x="884" 
d="M355 0v276l-337 411h206l217 -275h10l219 275h196l-338 -411v-276h-173zM225 737l158 142h117l160 -142h-125l-128 113h67l-127 -113h-122z" />
    <glyph glyph-name="ycircumflex" unicode="&#x177;" horiz-adv-x="674" 
d="M146 -201q-30 0 -54.5 5t-45.5 13v97h75q44 0 70 10t41.5 29.5t28.5 46.5l-257 527h171l109 -250q8 -17 19 -42.5t22 -51.5t19 -46h8q1 3 6.5 19t14.5 38t18 45t16 41l99 247h164l-218 -478q-26 -57 -52 -103t-59.5 -79t-80.5 -50.5t-114 -17.5zM120 582l159 142h117
l159 -142h-125l-128 113h67l-127 -113h-122z" />
    <glyph glyph-name="Ydieresis" unicode="&#x178;" horiz-adv-x="884" 
d="M355 0v276l-337 411h206l217 -275h10l219 275h196l-338 -411v-276h-173zM241 754v124h143v-124h-143zM499 754v124h144v-124h-144z" />
    <glyph glyph-name="Zacute" unicode="&#x179;" horiz-adv-x="843" 
d="M41 0v70l447 481h-416v136h707v-69l-449 -481h454v-137h-743zM318 746l115 133h178v-5l-164 -128h-129z" />
    <glyph glyph-name="zacute" unicode="&#x17a;" horiz-adv-x="643" 
d="M30 0v60l321 353h-300v114h550v-57l-325 -356h337v-114h-583zM214 591l116 133h178v-5l-164 -128h-130z" />
    <glyph glyph-name="Zdotaccent" unicode="&#x17b;" horiz-adv-x="843" 
d="M41 0v70l447 481h-416v136h707v-69l-449 -481h454v-137h-743zM345 754v124h144v-124h-144z" />
    <glyph glyph-name="zdotaccent" unicode="&#x17c;" horiz-adv-x="643" 
d="M30 0v60l321 353h-300v114h550v-57l-325 -356h337v-114h-583zM255 598v122h143v-122h-143z" />
    <glyph glyph-name="Zcaron" unicode="&#x17d;" horiz-adv-x="843" 
d="M41 0v70l447 481h-416v136h707v-69l-449 -481h454v-137h-743zM200 879h122l127 -113h-67l128 113h124l-159 -142h-117z" />
    <glyph glyph-name="zcaron" unicode="&#x17e;" horiz-adv-x="643" 
d="M30 0v60l321 353h-300v114h550v-57l-325 -356h337v-114h-583zM109 724h122l127 -113h-66l127 113h125l-159 -142h-117z" />
    <glyph glyph-name="longs" unicode="&#x17f;" horiz-adv-x="450" 
d="M122 0v413h-109v114h109v39q0 56 21.5 93.5t62.5 56.5t100 19q20 0 43.5 -2t45 -5.5t39.5 -9.5v-97h-68q-48 0 -67.5 -12.5t-19.5 -43.5v-565h-157z" />
    <glyph glyph-name="uni018F" unicode="&#x18f;" horiz-adv-x="1004" 
d="M504 -12q-103 0 -185 22.5t-139 67t-87.5 111t-30.5 155.5v38h700q-1 58 -35 98.5t-94 61.5t-140 21q-45 0 -88 -7.5t-78.5 -21.5t-59 -35.5t-28.5 -49.5h-177q6 62 43.5 108.5t97.5 78.5t136 47.5t160 15.5q142 0 240.5 -41.5t150.5 -121t52 -192.5t-53.5 -192.5
t-151.5 -121.5t-233 -42zM504 125q67 0 120.5 16.5t88 51.5t42.5 87h-507q6 -42 26.5 -71.5t54 -48t78.5 -27t97 -8.5z" />
    <glyph glyph-name="florin" unicode="&#x192;" horiz-adv-x="772" 
d="M190 -201q-20 0 -42.5 2t-43.5 6t-37 9l20 97h67q48 0 69.5 13t28.5 43l82 384h-109l24 115h110l20 98q12 56 41 93.5t74.5 56.5t104.5 19q21 0 43.5 -2t43.5 -5.5t37 -9.5l-21 -97h-67q-48 0 -70 -12.5t-29 -43.5l-21 -97h155l-25 -115h-154l-82 -385q-12 -55 -41 -92.5
t-74 -57t-104 -19.5z" />
    <glyph glyph-name="uni019D" unicode="&#x19d;" horiz-adv-x="974" 
d="M67 -201q-15 0 -32.5 2t-35 5.5t-29.5 6.5v102h47q36 0 55.5 18.5t19.5 51.5v702h159l368 -345q11 -9 27.5 -26t34.5 -35.5t31 -32.5h9l-2.5 50t-1.5 50v339h165v-687h-156l-365 345q-26 24 -54 53t-45 47h-8q1 -13 2 -44t1 -70v-323q0 -44 -6 -82.5t-24 -66.5t-56.5 -44
t-103.5 -16z" />
    <glyph glyph-name="Ohorn" unicode="&#x1a0;" horiz-adv-x="1016" 
d="M508 -12q-137 0 -237.5 42t-154.5 121.5t-54 192.5t54 192.5t154.5 121t237.5 41.5q138 0 238 -41.5t154 -121t54 -192.5t-54 -192.5t-154 -121.5t-238 -42zM508 125q59 0 108 13.5t85 39.5t55.5 65.5t19.5 89.5v23q0 50 -19.5 89t-55.5 65t-85 39.5t-108 13.5
t-108 -13.5t-85 -39.5t-55.5 -65t-19.5 -89v-23q0 -50 19.5 -89.5t55.5 -65.5t85 -39.5t108 -13.5zM699 553v66q82 0 129 21t47 58h-71v123h159v-91q0 -56 -31.5 -96t-90.5 -60.5t-142 -20.5z" />
    <glyph glyph-name="ohorn" unicode="&#x1a1;" horiz-adv-x="760" 
d="M380 -12q-103 0 -177.5 31t-115 92.5t-40.5 152.5q0 92 40.5 153t115 91.5t177.5 30.5t177.5 -30.5t115 -91.5t40.5 -153q0 -91 -40.5 -152.5t-115 -92.5t-177.5 -31zM380 102q54 0 92.5 18.5t58.5 52.5t20 81v20q0 48 -20 81.5t-58.5 51.5t-92.5 18q-55 0 -93 -18
t-58 -51.5t-20 -81.5v-20q0 -47 20 -81t58 -52.5t93 -18.5zM520 419v66q77 0 120.5 21.5t43.5 58.5h-70v122h159v-90q0 -57 -30 -96.5t-86.5 -60.5t-136.5 -21z" />
    <glyph glyph-name="Uhorn" unicode="&#x1af;" horiz-adv-x="954" 
d="M477 -12q-132 0 -218.5 40t-129 114t-42.5 176v369h173v-361q0 -96 56.5 -148.5t160.5 -52.5t160.5 52.5t56.5 148.5v361h172v-369q0 -102 -42 -176t-128.5 -114t-218.5 -40zM707 621v66q81 0 128 21.5t47 58.5h-70v122h159v-90q0 -57 -31.5 -96.5t-90.5 -60.5t-142 -21z
" />
    <glyph glyph-name="uhorn" unicode="&#x1b0;" horiz-adv-x="732" 
d="M291 -12q-111 0 -168.5 53.5t-57.5 162.5v323h157v-298q0 -31 8.5 -53.5t25 -36.5t40 -20t52.5 -6q42 0 78 17t58 48t22 71v278h157v-527h-126l-11 89h-9q-28 -38 -65.5 -60t-78.5 -31.5t-82 -9.5zM520 461v66q77 0 121 21.5t44 58.5h-71v122h159v-90q0 -57 -30 -96.5
t-86.5 -60.5t-136.5 -21z" />
    <glyph glyph-name="uni01C4" unicode="&#x1c4;" horiz-adv-x="1767" 
d="M92 0v687h373q127 0 218 -39.5t140 -116t49 -188.5q0 -111 -49 -187.5t-140 -116t-218 -39.5h-373zM265 137h191q52 0 95.5 12.5t75.5 37t49 61t17 84.5v23q0 48 -17 84.5t-49 61t-75.5 37.5t-95.5 13h-191v-414zM965 0v70l447 481h-416v136h707v-69l-449 -481h454v-137
h-743zM1124 879h122l127 -113h-67l127 113h125l-159 -142h-117z" />
    <glyph glyph-name="uni01C5" unicode="&#x1c5;" horiz-adv-x="1577" 
d="M92 0v687h373q127 0 218 -39.5t140 -116t49 -188.5q0 -111 -49 -187.5t-140 -116t-218 -39.5h-373zM265 137h191q52 0 95.5 12.5t75.5 37t49 61t17 84.5v23q0 48 -17 84.5t-49 61t-75.5 37.5t-95.5 13h-191v-414zM963 0v60l322 353h-300v114h549v-57l-324 -356h337v-114
h-584zM1043 724h122l127 -113h-67l128 113h125l-160 -142h-117z" />
    <glyph glyph-name="uni01C6" unicode="&#x1c6;" horiz-adv-x="1386" 
d="M320 -12q-82 0 -143 30t-95.5 91.5t-34.5 153.5q0 94 34 155t94 91t138 30q39 0 76 -8.5t68.5 -25.5t53.5 -43h7v262h157v-724h-127l-13 83h-8q-38 -52 -91.5 -73.5t-115.5 -21.5zM362 113q50 0 85 17.5t53.5 50.5t18.5 78v8q0 35 -10.5 62t-31 46t-50 29.5t-66.5 10.5
q-49 0 -83.5 -17.5t-52.5 -49.5t-18 -77v-15q0 -45 18.5 -77t53 -49t83.5 -17zM773 0v60l321 353h-300v114h550v-57l-324 -356h336v-114h-583zM853 724h122l127 -113h-67l127 113h125l-159 -142h-117z" />
    <glyph glyph-name="uni01C7" unicode="&#x1c7;" horiz-adv-x="1414" 
d="M92 0v687h173v-541h438v-146h-611zM1033 -12q-95 0 -162 26.5t-102.5 82.5t-35.5 143v14h166v-19q0 -55 34 -82.5t94 -27.5q66 0 102 33.5t36 105.5v423h172v-415q0 -98 -37 -161t-104.5 -93t-162.5 -30z" />
    <glyph glyph-name="uni01C8" unicode="&#x1c8;" horiz-adv-x="1022" 
d="M92 0v687h173v-541h438v-146h-611zM799 608v116h157v-116h-157zM778 -201q-16 0 -36 2t-38.5 6t-34.5 9v97h55q36 0 55.5 19t19.5 53v542h157v-545q0 -57 -16.5 -98.5t-55 -63t-106.5 -21.5z" />
    <glyph glyph-name="uni01C9" unicode="&#x1c9;" horiz-adv-x="586" 
d="M69 0v724h156v-724h-156zM363 608v116h156v-116h-156zM342 -201q-17 0 -36.5 2t-38.5 6t-34 9v97h54q36 0 56 19t20 53v542h156v-545q0 -57 -16.5 -98.5t-55 -63t-105.5 -21.5z" />
    <glyph glyph-name="uni01CA" unicode="&#x1ca;" horiz-adv-x="1687" 
d="M92 0v687h159l368 -345q11 -9 27.5 -26t34.5 -35.5t31 -32.5h9l-2.5 50t-1.5 50v339h165v-687h-156l-365 345q-26 24 -54 53t-45 47h-8q1 -13 2 -44t1 -70v-331h-165zM1306 -12q-94 0 -161 26.5t-102.5 82.5t-35.5 143v14h166v-19q0 -55 33.5 -82.5t93.5 -27.5
q67 0 102.5 33.5t35.5 105.5v423h173v-415q0 -98 -37 -161t-104.5 -93t-163.5 -30z" />
    <glyph glyph-name="uni01CB" unicode="&#x1cb;" horiz-adv-x="1266" 
d="M92 0v687h159l368 -345q11 -9 27.5 -26t34.5 -35.5t31 -32.5h9l-2.5 50t-1.5 50v339h165v-687h-156l-365 345q-26 24 -54 53t-45 47h-8q1 -13 2 -44t1 -70v-331h-165zM1043 608v116h156v-116h-156zM1022 -201q-17 0 -36.5 2t-38.5 6t-34 9v97h54q37 0 56.5 19t19.5 53
v542h156v-545q0 -57 -16 -98.5t-55 -63t-106 -21.5z" />
    <glyph glyph-name="uni01CC" unicode="&#x1cc;" horiz-adv-x="1024" 
d="M69 0v527h126l11 -89h9q29 38 65.5 60t78 31.5t81.5 9.5q75 0 125.5 -23.5t75.5 -71.5t25 -121v-323h-156v298q0 31 -9 53.5t-25 36.5t-39.5 20.5t-52.5 6.5q-42 0 -78 -17.5t-58.5 -48t-22.5 -71.5v-278h-156zM800 608v116h157v-116h-157zM779 -201q-16 0 -36 2t-38.5 6
t-33.5 9v97h54q36 0 55.5 19t19.5 53v542h157v-545q0 -57 -16.5 -98.5t-55 -63t-106.5 -21.5z" />
    <glyph glyph-name="uni01CD" unicode="&#x1cd;" horiz-adv-x="918" 
d="M21 0l341 687h194l341 -687h-188l-60 124h-391l-60 -124h-177zM321 257h265l-73 157q-4 10 -13 30t-17.5 41t-15.5 38t-9 21h-8q-8 -20 -19 -45t-20.5 -48.5t-16.5 -37.5zM242 879h122l127 -113h-67l127 113h125l-159 -142h-117z" />
    <glyph glyph-name="uni01CE" unicode="&#x1ce;" horiz-adv-x="754" 
d="M270 -12q-48 0 -89 7.5t-72 25t-48.5 47.5t-17.5 76q0 63 35 99.5t98.5 52.5t149 20.5t186.5 4.5v19q0 33 -16 52t-48.5 27.5t-84.5 8.5q-39 0 -71.5 -5.5t-51.5 -17t-19 -29.5v-10h-157q-1 4 -1.5 7.5t-0.5 8.5q0 47 35 82.5t104.5 55t172.5 19.5q96 0 161.5 -17
t99.5 -56t34 -104v-221q0 -18 7.5 -28.5t25.5 -10.5h52v-96q-12 -5 -40 -11.5t-62 -6.5q-46 0 -72.5 10.5t-38.5 29t-17 40.5h-8q-28 -25 -66.5 -43t-83.5 -27.5t-96 -9.5zM311 99q28 0 62.5 6.5t66.5 19t52 31.5t20 46v28q-107 0 -176 -8t-103 -25t-34 -48
q0 -21 16.5 -31.5t42.5 -14.5t53 -4zM150 724h122l127 -113h-66l127 113h125l-159 -142h-117z" />
    <glyph glyph-name="uni01CF" unicode="&#x1cf;" horiz-adv-x="357" 
d="M92 0v687h173v-687h-173zM-39 879h122l127 -113h-67l128 113h125l-159 -142h-117z" />
    <glyph glyph-name="uni01D0" unicode="&#x1d0;" horiz-adv-x="294" 
d="M69 0v527h156v-527h-156zM-70 724h122l127 -113h-67l127 113h125l-159 -142h-117z" />
    <glyph glyph-name="uni01D1" unicode="&#x1d1;" horiz-adv-x="1016" 
d="M508 -12q-138 0 -238 42t-154 121.5t-54 192.5t54 192.5t154 121t238 41.5t238 -41.5t154 -121t54 -192.5t-54 -192.5t-154 -121.5t-238 -42zM508 125q59 0 108 13.5t85 39.5t55.5 65t19.5 90v23q0 51 -19.5 89.5t-55.5 64.5t-85 39.5t-108 13.5t-108 -13.5t-85 -39.5
t-55.5 -64.5t-19.5 -89.5v-23q0 -51 19.5 -90t55.5 -65t85 -39.5t108 -13.5zM291 879h122l127 -113h-67l127 113h125l-159 -142h-117z" />
    <glyph glyph-name="uni01D2" unicode="&#x1d2;" horiz-adv-x="760" 
d="M380 -12q-103 0 -177.5 31t-115 92.5t-40.5 152.5q0 92 40.5 153t115 91.5t177.5 30.5t177.5 -30.5t115 -91.5t40.5 -153q0 -91 -40.5 -152.5t-115 -92.5t-177.5 -31zM380 102q54 0 92.5 18.5t58.5 52.5t20 81v20q0 48 -20 81.5t-58.5 51.5t-92.5 18q-55 0 -93 -18
t-58 -51.5t-20 -81.5v-20q0 -47 20 -81t58 -52.5t93 -18.5zM163 724h122l127 -113h-67l127 113h125l-159 -142h-117z" />
    <glyph glyph-name="uni01D3" unicode="&#x1d3;" horiz-adv-x="954" 
d="M477 -12q-132 0 -218.5 40t-129 114t-42.5 176v369h173v-361q0 -96 56.5 -148.5t160.5 -52.5t160.5 52.5t56.5 148.5v361h172v-369q0 -102 -42 -176t-128.5 -114t-218.5 -40zM260 879h122l127 -113h-67l127 113h125l-159 -142h-117z" />
    <glyph glyph-name="uni01D4" unicode="&#x1d4;" horiz-adv-x="732" 
d="M291 -12q-111 0 -168.5 53.5t-57.5 162.5v323h157v-298q0 -31 8.5 -53.5t25 -36.5t40 -20t52.5 -6q42 0 78 17t58 48t22 71v278h157v-527h-126l-11 89h-9q-28 -38 -65.5 -60t-78.5 -31.5t-82 -9.5zM149 724h122l127 -113h-67l127 113h125l-159 -142h-117z" />
    <glyph glyph-name="uni01D5" unicode="&#x1d5;" horiz-adv-x="954" 
d="M477 -12q-132 0 -218.5 40t-129 114t-42.5 176v369h173v-361q0 -96 56.5 -148.5t160.5 -52.5t160.5 52.5t56.5 148.5v361h172v-369q0 -102 -42 -176t-128.5 -114t-218.5 -40zM276 754v124h143v-124h-143zM534 754v124h144v-124h-144zM284 933v82h386v-82h-386z" />
    <glyph glyph-name="uni01D6" unicode="&#x1d6;" horiz-adv-x="732" 
d="M291 -12q-111 0 -168.5 53.5t-57.5 162.5v323h157v-298q0 -31 8.5 -53.5t25 -36.5t40 -20t52.5 -6q42 0 78 17t58 48t22 71v278h157v-527h-126l-11 89h-9q-28 -38 -65.5 -60t-78.5 -31.5t-82 -9.5zM165 598v124h143v-124h-143zM422 598v124h145v-124h-145zM173 791v82
h385v-82h-385z" />
    <glyph glyph-name="uni01D7" unicode="&#x1d7;" horiz-adv-x="954" 
d="M477 -12q-132 0 -218.5 40t-129 114t-42.5 176v369h173v-361q0 -96 56.5 -148.5t160.5 -52.5t160.5 52.5t56.5 148.5v361h172v-369q0 -102 -42 -176t-128.5 -114t-218.5 -40zM276 754v124h143v-124h-143zM534 754v124h144v-124h-144zM377 921l116 133h178v-5l-164 -128
h-130z" />
    <glyph glyph-name="uni01D8" unicode="&#x1d8;" horiz-adv-x="732" 
d="M291 -12q-111 0 -168.5 53.5t-57.5 162.5v323h157v-298q0 -31 8.5 -53.5t25 -36.5t40 -20t52.5 -6q42 0 78 17t58 48t22 71v278h157v-527h-126l-11 89h-9q-28 -38 -65.5 -60t-78.5 -31.5t-82 -9.5zM165 598v124h143v-124h-143zM422 598v124h145v-124h-145zM253 764
l116 133h178v-5l-164 -128h-130z" />
    <glyph glyph-name="uni01D9" unicode="&#x1d9;" horiz-adv-x="954" 
d="M477 -12q-132 0 -218.5 40t-129 114t-42.5 176v369h173v-361q0 -96 56.5 -148.5t160.5 -52.5t160.5 52.5t56.5 148.5v361h172v-369q0 -102 -42 -176t-128.5 -114t-218.5 -40zM276 754v124h143v-124h-143zM534 754v124h144v-124h-144zM260 1054h122l127 -113h-67l127 113
h125l-159 -142h-117z" />
    <glyph glyph-name="uni01DA" unicode="&#x1da;" horiz-adv-x="732" 
d="M291 -12q-111 0 -168.5 53.5t-57.5 162.5v323h157v-298q0 -31 8.5 -53.5t25 -36.5t40 -20t52.5 -6q42 0 78 17t58 48t22 71v278h157v-527h-126l-11 89h-9q-28 -38 -65.5 -60t-78.5 -31.5t-82 -9.5zM165 598v124h143v-124h-143zM422 598v124h145v-124h-145zM149 897h122
l127 -113h-67l127 113h125l-159 -142h-117z" />
    <glyph glyph-name="uni01DB" unicode="&#x1db;" horiz-adv-x="954" 
d="M477 -12q-132 0 -218.5 40t-129 114t-42.5 176v369h173v-361q0 -96 56.5 -148.5t160.5 -52.5t160.5 52.5t56.5 148.5v361h172v-369q0 -102 -42 -176t-128.5 -114t-218.5 -40zM276 754v124h143v-124h-143zM534 754v124h144v-124h-144zM564 921h-129l-164 128v5h178z" />
    <glyph glyph-name="uni01DC" unicode="&#x1dc;" horiz-adv-x="732" 
d="M291 -12q-111 0 -168.5 53.5t-57.5 162.5v323h157v-298q0 -31 8.5 -53.5t25 -36.5t40 -20t52.5 -6q42 0 78 17t58 48t22 71v278h157v-527h-126l-11 89h-9q-28 -38 -65.5 -60t-78.5 -31.5t-82 -9.5zM165 598v124h143v-124h-143zM422 598v124h145v-124h-145zM480 764h-129
l-164 128v5h178z" />
    <glyph glyph-name="Gcaron" unicode="&#x1e6;" horiz-adv-x="1013" 
d="M479 -12q-208 0 -312.5 88t-104.5 267q0 117 53.5 196.5t155 119.5t243.5 40q90 0 165.5 -15.5t131.5 -47.5t86 -80t30 -113h-168q0 33 -19.5 56t-53 37t-76 20.5t-89.5 6.5q-62 0 -114 -12.5t-89.5 -38t-58 -64.5t-20.5 -92v-24q0 -74 32 -119.5t91 -66.5t141 -21
q85 0 141.5 15t85.5 44t29 69v7h-263v124h432v-384h-104l-17 87q-38 -35 -88.5 -56.5t-111 -32t-128.5 -10.5zM290 879h122l127 -113h-67l128 113h125l-159 -142h-117z" />
    <glyph glyph-name="gcaron" unicode="&#x1e7;" horiz-adv-x="744" 
d="M177 -201q-43 0 -80.5 13t-60.5 41t-23 74q0 39 28 69t72 45q-32 16 -46.5 42t-14.5 56q0 42 28.5 72.5t77.5 37.5q-40 21 -64.5 53.5t-24.5 69.5q0 62 36 99t104 52.5t164 15.5q35 0 67 -3t61 -9q49 22 73.5 47.5t28.5 46.5h145q-1 -38 -17 -65t-46 -45t-72 -27
q30 -20 46.5 -48.5t16.5 -64.5q0 -57 -31.5 -94t-91 -54.5t-144.5 -17.5h-136q-30 0 -46 -10t-16 -28t15.5 -29t50.5 -11h304q79 0 120 -44.5t41 -113.5q0 -51 -27 -89t-71.5 -59.5t-98.5 -21.5h-368zM228 -101h299q16 0 29 6.5t21 19.5t8 29q0 25 -17.5 39t-40.5 14h-295
q-26 0 -43.5 -13.5t-17.5 -38.5t16.5 -40.5t40.5 -15.5zM373 303q68 0 107 15t39 54t-39 54t-107 15t-107 -15t-39 -54q0 -28 17.5 -43t50.5 -20.5t78 -5.5zM154 724h122l127 -113h-67l128 113h125l-160 -142h-117z" />
    <glyph glyph-name="uni01EA" unicode="&#x1ea;" horiz-adv-x="1016" 
d="M508 -12q-137 0 -237.5 42t-154.5 121.5t-54 192.5t54 192.5t154.5 121t237.5 41.5q138 0 238 -41.5t154 -121t54 -192.5t-54 -192.5t-154 -121.5t-238 -42zM508 125q59 0 108 13.5t85 39.5t55.5 65.5t19.5 89.5v23q0 50 -19.5 89t-55.5 65t-85 39.5t-108 13.5
t-108 -13.5t-85 -39.5t-55.5 -65t-19.5 -89v-23q0 -50 19.5 -89.5t55.5 -65.5t85 -39.5t108 -13.5zM654 -198q-31 0 -61 10t-49 33t-19 61q0 36 17 61.5t39 44.5h94v-4q-18 -12 -31.5 -31.5t-13.5 -41.5q0 -21 15 -38.5t46 -17.5h72v-63q-23 -7 -53.5 -10.5t-55.5 -3.5z" />
    <glyph glyph-name="uni01EB" unicode="&#x1eb;" horiz-adv-x="760" 
d="M380 -12q-103 0 -177.5 31t-115 92.5t-40.5 152.5q0 92 40.5 153t115 91.5t177.5 30.5t177.5 -30.5t115 -91.5t40.5 -153q0 -91 -40.5 -152.5t-115 -92.5t-177.5 -31zM380 102q54 0 92.5 18.5t58.5 52.5t20 81v20q0 48 -20 81.5t-58.5 51.5t-92.5 18q-55 0 -93 -18
t-58 -51.5t-20 -81.5v-20q0 -47 20 -81t58 -52.5t93 -18.5zM506 -198q-31 0 -61 10t-49 33t-19 61q0 36 17 61.5t39 44.5h94v-4q-18 -12 -31.5 -31.5t-13.5 -41.5q0 -21 15 -38.5t47 -17.5h71v-63q-23 -7 -53.5 -10.5t-55.5 -3.5z" />
    <glyph glyph-name="Aringacute" unicode="&#x1fa;" horiz-adv-x="918" 
d="M21 0l341 687h194l341 -687h-188l-60 124h-391l-60 -124h-177zM321 257h265l-73 157q-4 10 -13 30t-17.5 41t-15.5 38t-9 21h-8q-8 -20 -19 -45t-21 -48.5t-16 -37.5zM458 722q-46 0 -76 29.5t-30 74.5q0 46 30 75.5t77 29.5q46 0 76 -29t30 -75t-30 -75.5t-77 -29.5z
M458 779q22 0 36.5 13t14.5 34q0 22 -14.5 35.5t-36.5 13.5q-21 0 -35.5 -13.5t-14.5 -34.5t14.5 -34.5t35.5 -13.5zM359 969l116 133h178v-5l-164 -128h-130z" />
    <glyph glyph-name="aringacute" unicode="&#x1fb;" horiz-adv-x="754" 
d="M270 -12q-48 0 -89 7.5t-72 25t-48.5 47.5t-17.5 76q0 63 35 99.5t98.5 52.5t149 20.5t186.5 4.5v19q0 33 -16 52t-48.5 27.5t-84.5 8.5q-39 0 -71.5 -5.5t-51.5 -17t-19 -29.5v-10h-157q-1 4 -1.5 7.5t-0.5 8.5q0 47 35 82.5t104.5 55t172.5 19.5q96 0 161.5 -17
t99.5 -56t34 -104v-221q0 -18 7.5 -28.5t25.5 -10.5h52v-96q-12 -5 -40 -11.5t-62 -6.5q-46 0 -72.5 10.5t-38.5 29t-17 40.5h-8q-28 -25 -66.5 -43t-83.5 -27.5t-96 -9.5zM311 99q28 0 62.5 6.5t66.5 19t52 31.5t20 46v28q-107 0 -176 -8t-103 -25t-34 -48
q0 -21 16.5 -31.5t42.5 -14.5t53 -4zM367 568q-45 0 -76.5 31.5t-31.5 76.5t31.5 77t76.5 32t77 -32t32 -77t-32 -76.5t-77 -31.5zM367 624q22 0 37 15.5t15 36.5q0 22 -15 37.5t-37 15.5q-21 0 -36.5 -15.5t-15.5 -37.5q0 -21 15.5 -36.5t36.5 -15.5zM255 820l116 133h178
v-5l-164 -128h-130z" />
    <glyph glyph-name="AEacute" unicode="&#x1fc;" horiz-adv-x="1276" 
d="M-2 0l432 687h777v-136h-540l47 -135h432v-134h-385l51 -145h403v-137h-533l-42 124h-387l-77 -124h-178zM336 260h259l-52 156q-4 11 -9 29t-11 37.5t-10.5 34.5t-5.5 18h-8q-7 -12 -16 -28.5t-19 -33.5t-18.5 -32t-15.5 -26zM581 746l116 133h177v-5l-163 -128h-130z
" />
    <glyph glyph-name="aeacute" unicode="&#x1fd;" horiz-adv-x="1219" 
d="M294 -12q-53 0 -99 7t-80 24t-53 45t-19 70q0 67 35 105.5t98.5 55.5t149 21.5t186.5 4.5v19q0 33 -16 52t-48.5 27.5t-84.5 8.5q-39 0 -71.5 -5.5t-51.5 -17t-19 -29.5v-10h-157q-1 4 -1.5 7.5t-0.5 8.5q0 47 35 82.5t104.5 55t172.5 19.5q83 0 143.5 -17t95.5 -56
q43 36 100.5 54.5t127.5 18.5q107 0 181 -30t112 -89t38 -146v-46h-500q2 -46 24.5 -74.5t62 -41.5t92.5 -13q23 0 50 5.5t50.5 15.5t39 25.5t18.5 37.5h160q0 -42 -22.5 -78t-64.5 -62t-101.5 -40.5t-133.5 -14.5q-85 0 -151.5 21.5t-110.5 64.5q-33 -27 -78.5 -46.5
t-99.5 -29.5t-113 -10zM311 99q28 0 62.5 6.5t66.5 19t52 31.5t20 46v28q-107 0 -176 -8t-103 -25t-34 -48q0 -21 16.5 -31.5t42.5 -14.5t53 -4zM672 323h334q0 26 -12.5 45.5t-34.5 33t-51.5 20t-62.5 6.5q-50 0 -87.5 -12.5t-59 -36t-26.5 -56.5zM498 591l115 133h178v-5
l-164 -128h-129z" />
    <glyph glyph-name="Oslashacute" unicode="&#x1fe;" horiz-adv-x="1016" 
d="M508 -12q-138 0 -238 42t-154 121.5t-54 192.5t54 192.5t154 121t238 41.5t238 -41.5t154 -121t54 -192.5t-54 -192.5t-154 -121.5t-238 -42zM508 125q59 0 108 13.5t85 39.5t55.5 65t19.5 90v23q0 51 -19.5 89.5t-55.5 64.5t-85 39.5t-108 13.5t-108 -13.5t-85 -39.5
t-55.5 -64.5t-19.5 -89.5v-23q0 -51 19.5 -90t55.5 -65t85 -39.5t108 -13.5zM83 -42l729 771h121l-730 -771h-120zM408 746l116 133h178v-5l-164 -128h-130z" />
    <glyph glyph-name="oslashacute" unicode="&#x1ff;" horiz-adv-x="760" 
d="M380 -12q-103 0 -177.5 31t-115 92.5t-40.5 152.5q0 92 40.5 153t115 91.5t177.5 30.5t177.5 -30.5t115 -91.5t40.5 -153q0 -91 -40.5 -152.5t-115 -92.5t-177.5 -31zM380 102q54 0 92.5 18.5t58.5 52.5t20 81v20q0 48 -20 81.5t-58.5 51.5t-92.5 18q-55 0 -93 -18
t-58 -51.5t-20 -81.5v-20q0 -47 20 -81t58 -52.5t93 -18.5zM46 -41l573 610h95l-571 -610h-97zM268 591l115 133h178v-5l-164 -128h-129z" />
    <glyph glyph-name="uni0200" unicode="&#x200;" horiz-adv-x="918" 
d="M21 0l341 687h194l341 -687h-188l-60 124h-391l-60 -124h-177zM321 257h265l-73 157q-4 10 -13 30t-17.5 41t-15.5 38t-9 21h-8q-8 -20 -19 -45t-20.5 -48.5t-16.5 -37.5zM542 746l-137 126v7h165l81 -133h-109zM303 746l-137 126v7h165l81 -133h-109z" />
    <glyph glyph-name="uni0201" unicode="&#x201;" horiz-adv-x="754" 
d="M270 -12q-48 0 -89 7.5t-72 25t-48.5 47.5t-17.5 76q0 63 35 99.5t98.5 52.5t149 20.5t186.5 4.5v19q0 33 -16 52t-48.5 27.5t-84.5 8.5q-39 0 -71.5 -5.5t-51.5 -17t-19 -29.5v-10h-157q-1 4 -1.5 7.5t-0.5 8.5q0 47 35 82.5t104.5 55t172.5 19.5q96 0 161.5 -17
t99.5 -56t34 -104v-221q0 -18 7.5 -28.5t25.5 -10.5h52v-96q-12 -5 -40 -11.5t-62 -6.5q-46 0 -72.5 10.5t-38.5 29t-17 40.5h-8q-28 -25 -66.5 -43t-83.5 -27.5t-96 -9.5zM311 99q28 0 62.5 6.5t66.5 19t52 31.5t20 46v28q-107 0 -176 -8t-103 -25t-34 -48
q0 -21 16.5 -31.5t42.5 -14.5t53 -4zM439 592l-137 126v7h164l82 -133h-109zM200 592l-137 126v7h164l82 -133h-109z" />
    <glyph glyph-name="uni0202" unicode="&#x202;" horiz-adv-x="918" 
d="M21 0l341 687h194l341 -687h-188l-60 124h-391l-60 -124h-177zM321 257h265l-73 157q-4 10 -13 30t-17.5 41t-15.5 38t-9 21h-8q-8 -20 -19 -45t-20.5 -48.5t-16.5 -37.5zM253 742q0 32 22 62.5t67.5 51t115.5 20.5q69 0 115 -20.5t68.5 -51t22.5 -62.5h-90
q-2 11 -15.5 23t-38 21t-62.5 9q-32 0 -57 -8t-39.5 -19.5t-18.5 -25.5h-90z" />
    <glyph glyph-name="uni0203" unicode="&#x203;" horiz-adv-x="754" 
d="M270 -12q-48 0 -89 7.5t-72 25t-48.5 47.5t-17.5 76q0 63 35 99.5t98.5 52.5t149 20.5t186.5 4.5v19q0 33 -16 52t-48.5 27.5t-84.5 8.5q-39 0 -71.5 -5.5t-51.5 -17t-19 -29.5v-10h-157q-1 4 -1.5 7.5t-0.5 8.5q0 47 35 82.5t104.5 55t172.5 19.5q96 0 161.5 -17
t99.5 -56t34 -104v-221q0 -18 7.5 -28.5t25.5 -10.5h52v-96q-12 -5 -40 -11.5t-62 -6.5q-46 0 -72.5 10.5t-38.5 29t-17 40.5h-8q-28 -25 -66.5 -43t-83.5 -27.5t-96 -9.5zM311 99q28 0 62.5 6.5t66.5 19t52 31.5t20 46v28q-107 0 -176 -8t-103 -25t-34 -48
q0 -21 16.5 -31.5t42.5 -14.5t53 -4zM367 723q70 0 115.5 -20.5t68 -51.5t22.5 -62h-90q-2 11 -15.5 23t-38 20.5t-62.5 8.5q-32 0 -57 -7.5t-39.5 -19.5t-17.5 -25h-91q0 31 22 62t68 51.5t115 20.5z" />
    <glyph glyph-name="uni0204" unicode="&#x204;" horiz-adv-x="865" 
d="M92 0v687h704v-136h-531v-135h469v-134h-469v-145h539v-137h-712zM531 746l-137 126v7h164l82 -133h-109zM292 746l-137 126v7h164l82 -133h-109z" />
    <glyph glyph-name="uni0205" unicode="&#x205;" horiz-adv-x="759" 
d="M387 -12q-105 0 -181 29.5t-117.5 90.5t-41.5 155q0 92 40.5 153.5t116 92t177.5 30.5q107 0 181 -30t112 -89t38 -146v-46h-501q3 -46 25 -74.5t61.5 -41.5t92.5 -13q24 0 50.5 5.5t50 15.5t39.5 25.5t18 37.5h160q0 -42 -22 -78t-64 -62t-101.5 -40.5t-133.5 -14.5z
M212 323h333q0 26 -12 45.5t-34.5 33t-51.5 20t-63 6.5q-49 0 -86.5 -12.5t-59 -36t-26.5 -56.5zM450 592l-136 126v7h164l82 -133h-110zM212 592l-137 126v7h164l82 -133h-109z" />
    <glyph glyph-name="uni0206" unicode="&#x206;" horiz-adv-x="865" 
d="M92 0v687h704v-136h-531v-135h469v-134h-469v-145h539v-137h-712zM241 742q0 32 22 62.5t68 51t115 20.5q70 0 115.5 -20.5t68 -51t22.5 -62.5h-90q-2 11 -15.5 23t-38 21t-62.5 9q-32 0 -57 -8t-39.5 -19.5t-17.5 -25.5h-91z" />
    <glyph glyph-name="uni0207" unicode="&#x207;" horiz-adv-x="759" 
d="M387 -12q-105 0 -181 29.5t-117.5 90.5t-41.5 155q0 92 40.5 153.5t116 92t177.5 30.5q107 0 181 -30t112 -89t38 -146v-46h-501q3 -46 25 -74.5t61.5 -41.5t92.5 -13q24 0 50.5 5.5t50 15.5t39.5 25.5t18 37.5h160q0 -42 -22 -78t-64 -62t-101.5 -40.5t-133.5 -14.5z
M212 323h333q0 26 -12 45.5t-34.5 33t-51.5 20t-63 6.5q-49 0 -86.5 -12.5t-59 -36t-26.5 -56.5zM379 723q70 0 115.5 -20.5t68 -51.5t22.5 -62h-90q-2 11 -15.5 23t-38 20.5t-62.5 8.5q-32 0 -57 -7.5t-39.5 -19.5t-18.5 -25h-90q0 31 22 62t68 51.5t115 20.5z" />
    <glyph glyph-name="uni0208" unicode="&#x208;" horiz-adv-x="357" 
d="M92 0v687h173v-687h-173zM262 746l-137 126v7h164l82 -133h-109zM23 746l-137 126v7h164l82 -133h-109z" />
    <glyph glyph-name="uni0209" unicode="&#x209;" horiz-adv-x="294" 
d="M69 0v527h156v-527h-156zM218 592l-137 126v7h165l81 -133h-109zM-21 592l-137 126v7h164l82 -133h-109z" />
    <glyph glyph-name="uni020A" unicode="&#x20a;" horiz-adv-x="357" 
d="M92 0v687h173v-687h-173zM-28 742q0 32 22.5 62.5t68 51t114.5 20.5q70 0 115.5 -20.5t68 -51t22.5 -62.5h-90q-2 11 -15.5 23t-38 21t-62.5 9q-32 0 -57 -8t-39.5 -19.5t-17.5 -25.5h-91z" />
    <glyph glyph-name="uni020B" unicode="&#x20b;" horiz-adv-x="294" 
d="M69 0v527h156v-527h-156zM147 723q69 0 115 -20.5t68.5 -51.5t22.5 -62h-90q-2 11 -15.5 23t-38 20.5t-62.5 8.5q-33 0 -57.5 -7.5t-39.5 -19.5t-18 -25h-90q0 31 22 62t67.5 51.5t115.5 20.5z" />
    <glyph glyph-name="uni020C" unicode="&#x20c;" horiz-adv-x="1016" 
d="M508 -12q-138 0 -238 42t-154 121.5t-54 192.5t54 192.5t154 121t238 41.5t238 -41.5t154 -121t54 -192.5t-54 -192.5t-154 -121.5t-238 -42zM508 125q59 0 108 13.5t85 39.5t55.5 65t19.5 90v23q0 51 -19.5 89.5t-55.5 64.5t-85 39.5t-108 13.5t-108 -13.5t-85 -39.5
t-55.5 -64.5t-19.5 -89.5v-23q0 -51 19.5 -90t55.5 -65t85 -39.5t108 -13.5zM591 746l-137 126v7h165l81 -133h-109zM352 746l-137 126v7h164l82 -133h-109z" />
    <glyph glyph-name="uni020D" unicode="&#x20d;" horiz-adv-x="760" 
d="M380 -12q-103 0 -177.5 31t-115 92.5t-40.5 152.5q0 92 40.5 153t115 91.5t177.5 30.5t177.5 -30.5t115 -91.5t40.5 -153q0 -91 -40.5 -152.5t-115 -92.5t-177.5 -31zM380 102q54 0 92.5 18.5t58.5 52.5t20 81v20q0 48 -20 81.5t-58.5 51.5t-92.5 18q-55 0 -93 -18
t-58 -51.5t-20 -81.5v-20q0 -47 20 -81t58 -52.5t93 -18.5zM451 592l-137 126v7h165l81 -133h-109zM212 592l-137 126v7h164l82 -133h-109z" />
    <glyph glyph-name="uni020E" unicode="&#x20e;" horiz-adv-x="1016" 
d="M508 -12q-138 0 -238 42t-154 121.5t-54 192.5t54 192.5t154 121t238 41.5t238 -41.5t154 -121t54 -192.5t-54 -192.5t-154 -121.5t-238 -42zM508 125q59 0 108 13.5t85 39.5t55.5 65t19.5 90v23q0 51 -19.5 89.5t-55.5 64.5t-85 39.5t-108 13.5t-108 -13.5t-85 -39.5
t-55.5 -64.5t-19.5 -89.5v-23q0 -51 19.5 -90t55.5 -65t85 -39.5t108 -13.5zM302 742q0 32 22 62.5t67.5 51t115.5 20.5q69 0 115 -20.5t68.5 -51t22.5 -62.5h-90q-2 11 -15.5 23t-38 21t-62.5 9q-32 0 -57 -8t-40 -19.5t-18 -25.5h-90z" />
    <glyph glyph-name="uni020F" unicode="&#x20f;" horiz-adv-x="760" 
d="M380 -12q-103 0 -177.5 31t-115 92.5t-40.5 152.5q0 92 40.5 153t115 91.5t177.5 30.5t177.5 -30.5t115 -91.5t40.5 -153q0 -91 -40.5 -152.5t-115 -92.5t-177.5 -31zM380 102q54 0 92.5 18.5t58.5 52.5t20 81v20q0 48 -20 81.5t-58.5 51.5t-92.5 18q-55 0 -93 -18
t-58 -51.5t-20 -81.5v-20q0 -47 20 -81t58 -52.5t93 -18.5zM380 723q69 0 115 -20.5t68.5 -51.5t22.5 -62h-90q-2 11 -15.5 23t-38 20.5t-62.5 8.5q-33 0 -57.5 -7.5t-39.5 -19.5t-18 -25h-90q0 31 22 62t67.5 51.5t115.5 20.5z" />
    <glyph glyph-name="uni0210" unicode="&#x210;" horiz-adv-x="925" 
d="M92 0v687h555q74 0 121.5 -30t71.5 -79t24 -109q0 -62 -31.5 -115.5t-95.5 -84.5l143 -269h-194l-121 238h-300v-238h-173zM265 374h331q42 0 66.5 25.5t24.5 65.5q0 28 -11 47t-31 29t-49 10h-331v-177zM546 746l-137 126v7h164l82 -133h-109zM307 746l-137 126v7h164
l82 -133h-109z" />
    <glyph glyph-name="uni0211" unicode="&#x211;" horiz-adv-x="455" 
d="M69 0v527h126l11 -91h8q13 29 35.5 52.5t53.5 37t70 13.5q18 0 36 -2.5t33 -7.5v-131h-77q-38 0 -64.5 -12.5t-43 -34t-24.5 -48t-8 -55.5v-248h-156zM299 592l-137 126v7h164l82 -133h-109zM60 592l-137 126v7h164l82 -133h-109z" />
    <glyph glyph-name="uni0212" unicode="&#x212;" horiz-adv-x="925" 
d="M92 0v687h555q74 0 121.5 -30t71.5 -79t24 -109q0 -62 -31.5 -115.5t-95.5 -84.5l143 -269h-194l-121 238h-300v-238h-173zM265 374h331q42 0 66.5 25.5t24.5 65.5q0 28 -11 47t-31 29t-49 10h-331v-177zM257 742q0 32 22 62.5t67.5 51t115.5 20.5q69 0 115 -20.5
t68.5 -51t22.5 -62.5h-90q-2 11 -15.5 23t-38 21t-62.5 9q-33 0 -57.5 -8t-39.5 -19.5t-18 -25.5h-90z" />
    <glyph glyph-name="uni0213" unicode="&#x213;" horiz-adv-x="455" 
d="M69 0v527h126l11 -91h8q13 29 35.5 52.5t53.5 37t70 13.5q18 0 36 -2.5t33 -7.5v-131h-77q-38 0 -64.5 -12.5t-43 -34t-24.5 -48t-8 -55.5v-248h-156zM227 723q70 0 115.5 -20.5t68 -51.5t22.5 -62h-90q-2 11 -15.5 23t-38 20.5t-62.5 8.5q-32 0 -57 -7.5t-39.5 -19.5
t-17.5 -25h-91q0 31 22 62t68 51.5t115 20.5z" />
    <glyph glyph-name="uni0214" unicode="&#x214;" horiz-adv-x="954" 
d="M477 -12q-132 0 -218.5 40t-129 114t-42.5 176v369h173v-361q0 -96 56.5 -148.5t160.5 -52.5t160.5 52.5t56.5 148.5v361h172v-369q0 -102 -42 -176t-128.5 -114t-218.5 -40zM560 746l-137 126v7h165l81 -133h-109zM321 746l-137 126v7h165l81 -133h-109z" />
    <glyph glyph-name="uni0215" unicode="&#x215;" horiz-adv-x="732" 
d="M291 -12q-111 0 -168.5 53.5t-57.5 162.5v323h157v-298q0 -31 8.5 -53.5t25 -36.5t40 -20t52.5 -6q42 0 78 17t58 48t22 71v278h157v-527h-126l-11 89h-9q-28 -38 -65.5 -60t-78.5 -31.5t-82 -9.5zM437 592l-137 126v7h164l82 -133h-109zM198 592l-137 126v7h164l82 -133
h-109z" />
    <glyph glyph-name="uni0216" unicode="&#x216;" horiz-adv-x="954" 
d="M477 -12q-132 0 -218.5 40t-129 114t-42.5 176v369h173v-361q0 -96 56.5 -148.5t160.5 -52.5t160.5 52.5t56.5 148.5v361h172v-369q0 -102 -42 -176t-128.5 -114t-218.5 -40zM271 742q0 32 22 62.5t67.5 51t115.5 20.5q69 0 115 -20.5t68.5 -51t22.5 -62.5h-90
q-2 11 -15.5 23t-38 21t-62.5 9q-32 0 -57 -8t-39.5 -19.5t-18.5 -25.5h-90z" />
    <glyph glyph-name="uni0217" unicode="&#x217;" horiz-adv-x="732" 
d="M291 -12q-111 0 -168.5 53.5t-57.5 162.5v323h157v-298q0 -31 8.5 -53.5t25 -36.5t40 -20t52.5 -6q42 0 78 17t58 48t22 71v278h157v-527h-126l-11 89h-9q-28 -38 -65.5 -60t-78.5 -31.5t-82 -9.5zM366 723q69 0 115 -20.5t68.5 -51.5t22.5 -62h-90q-2 11 -15.5 23
t-38 20.5t-62.5 8.5q-33 0 -57.5 -7.5t-39.5 -19.5t-18 -25h-90q0 31 22 62t67.5 51.5t115.5 20.5z" />
    <glyph glyph-name="uni0218" unicode="&#x218;" horiz-adv-x="857" 
d="M440 -12q-81 0 -150.5 9.5t-122.5 34.5t-82 69.5t-29 113.5v5t1 5h169q-1 -4 -1 -9v-11q0 -31 25 -49.5t72 -27t110 -8.5q27 0 54.5 2t53 6.5t45.5 12.5t32 20.5t12 29.5q0 24 -23.5 38.5t-63 23.5t-89 15.5t-102.5 15t-102.5 23t-89 38t-63 60.5t-23.5 91q0 50 25 88
t72 64t113.5 38.5t149.5 12.5q84 0 149 -13.5t109.5 -39t67 -63t22.5 -85.5v-15h-168v11q0 22 -21.5 38.5t-60 26.5t-89.5 10q-67 0 -109 -8.5t-62 -23t-20 -31.5q0 -22 23.5 -35t63 -21t89 -14.5t102.5 -15.5t102.5 -22.5t89 -37.5t63 -59.5t23.5 -88.5q0 -81 -47 -130.5
t-129.5 -71.5t-190.5 -22zM335 -396v73q42 5 64.5 29.5t22.5 65.5h-80v156h173v-137q0 -58 -19.5 -98t-59.5 -61.5t-101 -27.5z" />
    <glyph glyph-name="uni0219" unicode="&#x219;" horiz-adv-x="684" 
d="M340 -12q-59 0 -113 9.5t-96.5 28.5t-67.5 50t-25 73q0 5 0.5 9t1.5 8h160q0 -2 -0.5 -5t-0.5 -5q0 -23 20 -37t52.5 -20.5t69.5 -6.5q35 0 68.5 4t55.5 15.5t22 35.5t-26 35t-72.5 16.5t-108.5 14.5q-47 7 -87.5 18t-71 28.5t-47.5 45.5t-17 69q0 44 21 75.5t59.5 51.5
t92.5 29t119 9q57 0 107.5 -9t88.5 -28t60 -47t22 -65v-8t-1 -7h-160v5q0 20 -17 32t-44 17.5t-58 5.5q-11 0 -33 -1t-45.5 -5t-39.5 -13t-16 -26q0 -21 25 -31t65.5 -15t87.5 -11q50 -6 95.5 -15t81 -26.5t55.5 -47.5t20 -78q0 -50 -21 -84.5t-60.5 -55t-96 -29.5
t-125.5 -9zM266 -347v64q36 4 55.5 26t19.5 57h-69v136h150v-119q0 -51 -17 -85.5t-51.5 -54.5t-87.5 -24z" />
    <glyph glyph-name="uni021A" unicode="&#x21a;" horiz-adv-x="828" 
d="M328 0v541h-303v146h777v-146h-302v-541h-172zM320 -396v73q42 5 64.5 29.5t22.5 65.5h-79v156h172v-137q0 -58 -19.5 -98t-59 -61.5t-101.5 -27.5z" />
    <glyph glyph-name="uni021B" unicode="&#x21b;" horiz-adv-x="470" 
d="M304 -12q-61 0 -100.5 15.5t-58.5 53t-19 102.5v254h-102v114h107l31 156h120v-156h145v-114h-145v-234q0 -38 14.5 -57.5t62.5 -19.5h68v-97q-14 -5 -36.5 -9t-46 -6t-40.5 -2zM191 -347v64q36 4 55.5 26t19.5 57h-69v136h150v-119q0 -51 -17 -85.5t-51.5 -54.5
t-87.5 -24z" />
    <glyph glyph-name="uni022A" unicode="&#x22a;" horiz-adv-x="1016" 
d="M508 -12q-137 0 -237.5 42t-154.5 121.5t-54 192.5t54 192.5t154.5 121t237.5 41.5q138 0 238 -41.5t154 -121t54 -192.5t-54 -192.5t-154 -121.5t-238 -42zM508 125q59 0 108 13.5t85 39.5t55.5 65.5t19.5 89.5v23q0 50 -19.5 89t-55.5 65t-85 39.5t-108 13.5
t-108 -13.5t-85 -39.5t-55.5 -65t-19.5 -89v-23q0 -50 19.5 -89.5t55.5 -65.5t85 -39.5t108 -13.5zM307 754v124h143v-124h-143zM565 754v124h144v-124h-144zM315 933v82h385v-82h-385z" />
    <glyph glyph-name="uni022B" unicode="&#x22b;" horiz-adv-x="760" 
d="M380 -12q-103 0 -177.5 31t-115 92.5t-40.5 152.5q0 92 40.5 153t115 91.5t177.5 30.5t177.5 -30.5t115 -91.5t40.5 -153q0 -91 -40.5 -152.5t-115 -92.5t-177.5 -31zM380 102q54 0 92.5 18.5t58.5 52.5t20 81v20q0 48 -20 81.5t-58.5 51.5t-92.5 18q-55 0 -93 -18
t-58 -51.5t-20 -81.5v-20q0 -47 20 -81t58 -52.5t93 -18.5zM179 598v124h143v-124h-143zM437 598v124h144v-124h-144zM187 791v82h385v-82h-385z" />
    <glyph glyph-name="uni022C" unicode="&#x22c;" horiz-adv-x="1016" 
d="M508 -12q-138 0 -238 42t-154 121.5t-54 192.5t54 192.5t154 121t238 41.5t238 -41.5t154 -121t54 -192.5t-54 -192.5t-154 -121.5t-238 -42zM508 125q59 0 108 13.5t85 39.5t55.5 65t19.5 90v23q0 51 -19.5 89.5t-55.5 64.5t-85 39.5t-108 13.5t-108 -13.5t-85 -39.5
t-55.5 -64.5t-19.5 -89.5v-23q0 -51 19.5 -90t55.5 -65t85 -39.5t108 -13.5zM270 743q2 29 19 59t48.5 50t76.5 20q37 0 71.5 -10.5t67.5 -21t63 -10.5q23 0 36 12.5t17 29.5h77q-1 -29 -19 -59.5t-50 -50.5t-76 -20q-36 0 -71 10.5t-67.5 21t-62.5 10.5q-24 0 -37 -12.5
t-19 -28.5h-74zM315 925v82h385v-82h-385z" />
    <glyph glyph-name="uni022D" unicode="&#x22d;" horiz-adv-x="760" 
d="M380 -12q-103 0 -177.5 31t-115 92.5t-40.5 152.5q0 92 40.5 153t115 91.5t177.5 30.5t177.5 -30.5t115 -91.5t40.5 -153q0 -91 -40.5 -152.5t-115 -92.5t-177.5 -31zM380 102q54 0 92.5 18.5t58.5 52.5t20 81v20q0 48 -20 81.5t-58.5 51.5t-92.5 18q-55 0 -93 -18
t-58 -51.5t-20 -81.5v-20q0 -47 20 -81t58 -52.5t93 -18.5zM142 596q1 28 18 58t48.5 50t76.5 20q37 0 71.5 -10t67.5 -20.5t64 -10.5q23 0 36 12.5t17 28.5h76q-1 -29 -19 -59t-49.5 -50t-76.5 -20q-35 0 -70 10.5t-68 20.5t-63 10q-23 0 -36.5 -12.5t-18.5 -27.5h-74z
M187 781v82h385v-82h-385z" />
    <glyph glyph-name="uni0230" unicode="&#x230;" horiz-adv-x="1016" 
d="M508 -12q-137 0 -237.5 42t-154.5 121.5t-54 192.5t54 192.5t154.5 121t237.5 41.5q138 0 238 -41.5t154 -121t54 -192.5t-54 -192.5t-154 -121.5t-238 -42zM508 125q59 0 108 13.5t85 39.5t55.5 65.5t19.5 89.5v23q0 50 -19.5 89t-55.5 65t-85 39.5t-108 13.5
t-108 -13.5t-85 -39.5t-55.5 -65t-19.5 -89v-23q0 -50 19.5 -89.5t55.5 -65.5t85 -39.5t108 -13.5zM436 754v124h144v-124h-144zM315 933v82h385v-82h-385z" />
    <glyph glyph-name="uni0231" unicode="&#x231;" horiz-adv-x="760" 
d="M380 -12q-103 0 -177.5 31t-115 92.5t-40.5 152.5q0 92 40.5 153t115 91.5t177.5 30.5t177.5 -30.5t115 -91.5t40.5 -153q0 -91 -40.5 -152.5t-115 -92.5t-177.5 -31zM380 102q54 0 92.5 18.5t58.5 52.5t20 81v20q0 48 -20 81.5t-58.5 51.5t-92.5 18q-55 0 -93 -18
t-58 -51.5t-20 -81.5v-20q0 -47 20 -81t58 -52.5t93 -18.5zM308 598v122h144v-122h-144zM187 791v82h385v-82h-385z" />
    <glyph glyph-name="uni0232" unicode="&#x232;" horiz-adv-x="884" 
d="M355 0v276l-337 411h206l217 -275h10l219 275h196l-338 -411v-276h-173zM249 758v82h386v-82h-386z" />
    <glyph glyph-name="uni0233" unicode="&#x233;" horiz-adv-x="674" 
d="M146 -201q-30 0 -54.5 5t-45.5 13v97h75q44 0 70 10t41.5 29.5t28.5 46.5l-257 527h171l109 -250q8 -17 19 -42.5t22 -51.5t19 -46h8q1 3 6.5 19t14.5 38t18 45t16 41l99 247h164l-218 -478q-26 -57 -52 -103t-59.5 -79t-80.5 -50.5t-114 -17.5zM144 618v82h386v-82h-386
z" />
    <glyph glyph-name="uni0237" unicode="&#x237;" horiz-adv-x="292" 
d="M48 -201q-17 0 -36.5 2t-38.5 6t-34 9v97h54q37 0 56.5 19t19.5 53v542h156v-545q0 -57 -16.5 -98.5t-55 -63t-105.5 -21.5z" />
    <glyph glyph-name="uni0259" unicode="&#x259;" horiz-adv-x="759" 
d="M378 -12q-107 0 -180.5 30t-112 89.5t-38.5 145.5v46h500q-2 47 -24.5 75t-61.5 41t-93 13q-24 0 -50.5 -5.5t-50 -15.5t-39 -25.5t-18.5 -37.5h-160q0 43 22.5 78.5t64.5 61.5t101.5 40.5t133.5 14.5q104 0 180.5 -29.5t118 -90.5t41.5 -155q0 -92 -41 -153.5
t-115.5 -92t-177.5 -30.5zM374 99q50 0 87.5 13t59.5 36.5t26 56.5h-334q0 -27 12.5 -46.5t34.5 -32.5t51.5 -20t62.5 -7z" />
    <glyph glyph-name="uni0272" unicode="&#x272;" horiz-adv-x="732" 
d="M35 -201q-14 0 -32 2t-34.5 5.5t-29.5 6.5v100h54q37 0 56.5 19t19.5 53v542h126l11 -89h9q29 38 65.5 60t78 31.5t81.5 9.5q75 0 125.5 -23.5t75.5 -71.5t25 -121v-323h-156v298q0 31 -9 53.5t-25 36.5t-39.5 20.5t-52.5 6.5q-42 0 -78 -17.5t-58.5 -48t-22.5 -71.5
v-276q0 -46 -6.5 -83t-26 -64t-57 -41.5t-100.5 -14.5z" />
    <glyph glyph-name="uni02B9" unicode="&#x2b9;" horiz-adv-x="256" 
d="M0 527l97 197h157l2 -3l-137 -194h-119z" />
    <glyph glyph-name="uni02BA" unicode="&#x2ba;" horiz-adv-x="462" 
d="M0 527l97 197h157l2 -3l-137 -194h-119zM207 527l97 197h157l1 -3l-137 -194h-118z" />
    <glyph glyph-name="uni02BC" unicode="&#x2bc;" horiz-adv-x="157" 
d="M0 525v62q37 2 56 20t19 48h-70v137h152v-106q0 -53 -17.5 -88t-52.5 -53t-87 -20z" />
    <glyph glyph-name="circumflex" unicode="&#x2c6;" horiz-adv-x="434" 
d="M0 582l158 142h117l159 -142h-124l-128 113h67l-127 -113h-122z" />
    <glyph glyph-name="caron" unicode="&#x2c7;" horiz-adv-x="434" 
d="M0 724h122l127 -113h-67l128 113h124l-159 -142h-117z" />
    <glyph glyph-name="uni02C9" unicode="&#x2c9;" horiz-adv-x="598" 
d="M0 567v120h598v-120h-598z" />
    <glyph glyph-name="breve" unicode="&#x2d8;" horiz-adv-x="411" 
d="M205 590q-70 0 -115.5 20.5t-67.5 51.5t-22 62h90q3 -13 18 -25t40 -19.5t57 -7.5q38 0 62.5 8.5t38 21t15.5 22.5h90q0 -31 -22.5 -62t-68.5 -51.5t-115 -20.5z" />
    <glyph glyph-name="dotaccent" unicode="&#x2d9;" horiz-adv-x="143" 
d="M0 598v122h143v-122h-143z" />
    <glyph glyph-name="ring" unicode="&#x2da;" horiz-adv-x="217" 
d="M108 568q-45 0 -76.5 31.5t-31.5 76.5t31.5 77t76.5 32t77 -32t32 -77t-32 -76.5t-77 -31.5zM108 624q22 0 37.5 15.5t15.5 36.5q0 22 -15.5 37.5t-37.5 15.5q-21 0 -36.5 -15.5t-15.5 -37.5q0 -21 15.5 -36.5t36.5 -15.5z" />
    <glyph glyph-name="ogonek" unicode="&#x2db;" horiz-adv-x="238" 
d="M129 -198q-31 0 -61 10t-49 33t-19 61q0 36 17 61.5t39 44.5h94v-4q-18 -12 -31.5 -31.5t-13.5 -41.5q0 -21 15 -38.5t47 -17.5h71v-63q-23 -7 -53.5 -10.5t-55.5 -3.5z" />
    <glyph glyph-name="tilde" unicode="&#x2dc;" horiz-adv-x="475" 
d="M0 596q2 28 18.5 58t48.5 50t76 20q37 0 71.5 -10t67.5 -20.5t64 -10.5q23 0 36 12.5t17 28.5h76q-1 -29 -18.5 -59t-49.5 -50t-77 -20q-35 0 -70 10.5t-68 20.5t-62 10q-24 0 -37.5 -12.5t-18.5 -27.5h-74z" />
    <glyph glyph-name="hungarumlaut" unicode="&#x2dd;" horiz-adv-x="485" 
d="M0 592l82 133h164v-7l-137 -126h-109zM239 592l82 133h164v-7l-137 -126h-109z" />
    <glyph glyph-name="gravecomb" unicode="&#x300;" 
d="M293 591h-129l-164 128v5h178z" />
    <glyph glyph-name="acutecomb" unicode="&#x301;" 
d="M0 591l116 133h177v-5l-163 -128h-130z" />
    <glyph glyph-name="uni0302" unicode="&#x302;" 
d="M0 582l158 142h117l159 -142h-124l-128 113h67l-127 -113h-122z" />
    <glyph glyph-name="tildecomb" unicode="&#x303;" 
d="M0 596q2 28 18.5 58t48.5 50t76 20q37 0 71.5 -10t67.5 -20.5t64 -10.5q23 0 36 12.5t17 28.5h76q-1 -29 -18.5 -59t-49.5 -50t-77 -20q-35 0 -70 10.5t-68 20.5t-62 10q-24 0 -37.5 -12.5t-18.5 -27.5h-74z" />
    <glyph glyph-name="uni0304" unicode="&#x304;" 
d="M0 618v82h386v-82h-386z" />
    <glyph glyph-name="uni0306" unicode="&#x306;" 
d="M205 590q-70 0 -115.5 20.5t-67.5 51.5t-22 62h90q3 -13 18 -25t40 -19.5t57 -7.5q38 0 62.5 8.5t38 21t15.5 22.5h90q0 -31 -22.5 -62t-68.5 -51.5t-115 -20.5z" />
    <glyph glyph-name="uni0307" unicode="&#x307;" 
d="M0 598v122h143v-122h-143z" />
    <glyph glyph-name="uni0308" unicode="&#x308;" 
d="M0 598v124h143v-124h-143zM258 598v124h144v-124h-144z" />
    <glyph glyph-name="hookabovecomb" unicode="&#x309;" 
d="M69 591v58h6q29 0 37 3t8 11q0 13 -10.5 15.5t-31.5 2.5h-78v49q13 3 33.5 5t42 3t33.5 1q20 0 43.5 -3t44.5 -10.5t34.5 -20t13.5 -33.5q0 -18 -13.5 -30t-34.5 -18t-46 -7v-26h-82z" />
    <glyph glyph-name="uni030A" unicode="&#x30a;" 
d="M108 568q-45 0 -76.5 31.5t-31.5 76.5t31.5 77t76.5 32t77 -32t32 -77t-32 -76.5t-77 -31.5zM108 624q22 0 37.5 15.5t15.5 36.5q0 22 -15.5 37.5t-37.5 15.5q-21 0 -36.5 -15.5t-15.5 -37.5q0 -21 15.5 -36.5t36.5 -15.5z" />
    <glyph glyph-name="uni030B" unicode="&#x30b;" 
d="M0 592l82 133h164v-7l-137 -126h-109zM239 592l82 133h164v-7l-137 -126h-109z" />
    <glyph glyph-name="uni030C" unicode="&#x30c;" 
d="M0 724h122l127 -113h-67l128 113h124l-159 -142h-117z" />
    <glyph glyph-name="uni030F" unicode="&#x30f;" 
d="M376 592l-137 126v7h164l82 -133h-109zM137 592l-137 126v7h164l82 -133h-109z" />
    <glyph glyph-name="uni0311" unicode="&#x311;" 
d="M205 723q69 0 115 -20.5t68.5 -51.5t22.5 -62h-90q-2 11 -15.5 23t-38 20.5t-62.5 8.5q-32 0 -57 -7.5t-40 -19.5t-18 -25h-90q0 31 22 62t67.5 51.5t115.5 20.5z" />
    <glyph glyph-name="uni0312" unicode="&#x312;" 
d="M180 935v-73q-41 -5 -64 -29.5t-23 -65.5h80v-156h-173v137q0 58 19.5 98t59.5 62t101 27z" />
    <glyph glyph-name="uni0313" unicode="&#x313;" 
d="M0 465v74q42 5 64.5 29.5t22.5 64.5h-80v156h173v-137q0 -58 -19.5 -97.5t-59.5 -61.5t-101 -28z" />
    <glyph glyph-name="uni031B" unicode="&#x31b;" 
d="M0 419v66q77 0 120.5 21.5t43.5 58.5h-71v122h160v-90q0 -57 -30 -96.5t-86.5 -60.5t-136.5 -21z" />
    <glyph glyph-name="dotbelowcomb" unicode="&#x323;" 
d="M0 -198v122h143v-122h-143z" />
    <glyph glyph-name="uni0324" unicode="&#x324;" 
d="M0 -198v124h143v-124h-143zM258 -198v124h144v-124h-144z" />
    <glyph glyph-name="uni0326" unicode="&#x326;" 
d="M0 -396v73q42 5 64.5 29.5t22.5 65.5h-80v156h173v-137q0 -58 -19.5 -98t-59.5 -61.5t-101 -27.5z" />
    <glyph glyph-name="uni0327" unicode="&#x327;" 
d="M138 -198q-36 0 -74.5 3t-63.5 9v50h133q20 0 32 4.5t12 20.5q0 14 -9.5 19t-32.5 5h-65l23 117h85l-12 -63q29 -1 53.5 -9t39.5 -25t15 -48q0 -25 -12.5 -42t-33 -25.5t-44.5 -12t-46 -3.5z" />
    <glyph glyph-name="uni0328" unicode="&#x328;" 
d="M129 -198q-31 0 -61 10t-49 33t-19 61q0 36 17 61.5t39 44.5h94v-4q-18 -12 -31.5 -31.5t-13.5 -41.5q0 -21 15 -38.5t47 -17.5h71v-63q-23 -7 -53.5 -10.5t-55.5 -3.5z" />
    <glyph glyph-name="uni032E" unicode="&#x32e;" 
d="M205 -205q-70 0 -115.5 20.5t-67.5 51.5t-22 62h90q3 -14 18 -25.5t40 -19.5t57 -8q38 0 62.5 9t38 21.5t15.5 22.5h90q0 -31 -22.5 -62t-68.5 -51.5t-115 -20.5z" />
    <glyph glyph-name="uni0331" unicode="&#x331;" 
d="M0 -152v82h386v-82h-386z" />
    <glyph glyph-name="uni0335" unicode="&#x335;" 
d="M0 322v98h480v-98h-480z" />
    <glyph glyph-name="uni0336" unicode="&#x336;" 
d="M0 319v103h981v-103h-981z" />
    <glyph glyph-name="uni0337" unicode="&#x337;" 
d="M0 205v84l334 212v-87z" />
    <glyph glyph-name="uni0338" unicode="&#x338;" 
d="M0 -47l573 611h95l-572 -611h-96z" />
    <glyph glyph-name="uni0394" unicode="&#x394;" horiz-adv-x="884" 
d="M22 0l321 687h201l323 -687h-845zM237 132h402q-10 17 -24.5 44.5t-24.5 50.5l-111 241q-6 15 -13.5 31t-13 31.5t-9.5 25.5h-9q-3 -8 -7.5 -19t-9.5 -23.5t-9.5 -24t-9.5 -21.5l-110 -242q-7 -15 -16.5 -33t-18.5 -34t-16 -27z" />
    <glyph glyph-name="uni03A9" unicode="&#x3a9;" horiz-adv-x="996" 
d="M54 0v137h42q18 -3 39.5 -5.5t44 -4.5t42.5 -5q-73 41 -112.5 105.5t-39.5 150.5q0 103 52 174.5t148 109t228 37.5q133 0 228.5 -37.5t147.5 -109t52 -174.5q0 -86 -39.5 -150.5t-111.5 -105.5q20 3 43 5.5t44.5 4.5t37.5 5h42v-137h-385v120q58 10 101 36t66.5 69
t23.5 102v23q0 69 -31.5 116.5t-87.5 72t-131 24.5t-131 -24.5t-87.5 -72t-31.5 -116.5v-23q0 -59 24 -102t67 -69t100 -36v-120h-385z" />
    <glyph glyph-name="uni03BC" unicode="&#x3bc;" horiz-adv-x="735" 
d="M69 -189v716h156v-298q0 -31 9 -53.5t25 -36.5t39.5 -20t52.5 -6q42 0 78 17t58.5 48t22.5 71v278h156v-527h-126l-11 89h-9q-25 -37 -59 -59.5t-71 -32t-74 -9.5q-26 0 -50.5 6t-45.5 18q2 -13 3.5 -36t1.5 -46v-119h-156z" />
    <glyph glyph-name="pi" unicode="&#x3c0;" horiz-adv-x="821" 
d="M98 0q17 39 32 91t26.5 110t19 112.5t7.5 96.5q-47 0 -81.5 -2.5t-57.5 -8.5l-18 95q23 16 78 24.5t145 8.5h546l-14 -117h-108v-248q0 -58 5 -98t14 -64h-152q-12 14 -17.5 55t-5.5 96v259h-177q-3 -51 -10 -110t-18.5 -116t-26 -105t-31.5 -79h-156z" />
    <glyph glyph-name="uni1E24" unicode="&#x1e24;" horiz-adv-x="975" 
d="M92 0v687h173v-264h445v264h173v-687h-173v277h-445v-277h-173zM416 -198v122h144v-122h-144z" />
    <glyph glyph-name="uni1E25" unicode="&#x1e25;" horiz-adv-x="732" 
d="M69 0v724h156v-267h8q27 31 61.5 49t72 25.5t73.5 7.5q75 0 125.5 -23.5t75.5 -71.5t25 -121v-323h-156v298q0 31 -9 53.5t-25 36.5t-39.5 20.5t-52.5 6.5q-42 0 -78 -17.5t-58.5 -48t-22.5 -71.5v-278h-156zM294 -198v122h144v-122h-144z" />
    <glyph glyph-name="uni1E62" unicode="&#x1e62;" horiz-adv-x="857" 
d="M440 -12q-81 0 -150.5 9.5t-122.5 34.5t-82 69.5t-29 113.5v5t1 5h169q-1 -4 -1 -9v-11q0 -31 25 -49.5t72 -27t110 -8.5q27 0 54.5 2t53 6.5t45.5 12.5t32 20.5t12 29.5q0 24 -23.5 38.5t-63 23.5t-89 15.5t-102.5 15t-102.5 23t-89 38t-63 60.5t-23.5 91q0 50 25 88
t72 64t113.5 38.5t149.5 12.5q84 0 149 -13.5t109.5 -39t67 -63t22.5 -85.5v-15h-168v11q0 22 -21.5 38.5t-60 26.5t-89.5 10q-67 0 -109 -8.5t-62 -23t-20 -31.5q0 -22 23.5 -35t63 -21t89 -14.5t102.5 -15.5t102.5 -22.5t89 -37.5t63 -59.5t23.5 -88.5q0 -81 -47 -130.5
t-129.5 -71.5t-190.5 -22zM357 -198v122h143v-122h-143z" />
    <glyph glyph-name="uni1E63" unicode="&#x1e63;" horiz-adv-x="684" 
d="M340 -12q-59 0 -113 9.5t-96.5 28.5t-67.5 50t-25 73q0 5 0.5 9t1.5 8h160q0 -2 -0.5 -5t-0.5 -5q0 -23 20 -37t52.5 -20.5t69.5 -6.5q35 0 68.5 4t55.5 15.5t22 35.5t-26 35t-72.5 16.5t-108.5 14.5q-47 7 -87.5 18t-71 28.5t-47.5 45.5t-17 69q0 44 21 75.5t59.5 51.5
t92.5 29t119 9q57 0 107.5 -9t88.5 -28t60 -47t22 -65v-8t-1 -7h-160v5q0 20 -17 32t-44 17.5t-58 5.5q-11 0 -33 -1t-45.5 -5t-39.5 -13t-16 -26q0 -21 25 -31t65.5 -15t87.5 -11q50 -6 95.5 -15t81 -26.5t55.5 -47.5t20 -78q0 -50 -21 -84.5t-60.5 -55t-96 -29.5
t-125.5 -9zM275 -198v122h143v-122h-143z" />
    <glyph glyph-name="uni1E6C" unicode="&#x1e6c;" horiz-adv-x="828" 
d="M328 0v541h-303v146h777v-146h-302v-541h-172zM342 -198v122h144v-122h-144z" />
    <glyph glyph-name="uni1E6D" unicode="&#x1e6d;" horiz-adv-x="470" 
d="M304 -12q-61 0 -100.5 15.5t-58.5 53t-19 102.5v254h-102v114h107l31 156h120v-156h145v-114h-145v-234q0 -38 14.5 -57.5t62.5 -19.5h68v-97q-14 -5 -36.5 -9t-46 -6t-40.5 -2zM200 -198v122h143v-122h-143z" />
    <glyph glyph-name="Wgrave" unicode="&#x1e80;" horiz-adv-x="1200" 
d="M237 0l-227 687h184l126 -412q5 -13 9.5 -31.5t9.5 -37.5t7 -33h7q2 11 5 25.5l6 29t6.5 27t5.5 20.5l117 412h229l118 -412l7.5 -30t9 -37.5t6.5 -34.5h7q2 11 5.5 25t7.5 28t7.5 26.5t6.5 22.5l126 412h167l-227 -687h-208l-128 436q-4 15 -9 33t-8.5 35.5t-5.5 30.5
h-5q-3 -14 -7.5 -33t-9 -36.5t-7.5 -29.5l-125 -436h-213zM688 746h-130l-164 128v5h178z" />
    <glyph glyph-name="wgrave" unicode="&#x1e81;" horiz-adv-x="1014" 
d="M224 0l-220 527h168l93 -251q8 -22 15 -43t12.5 -38.5t7.5 -28.5h8q3 11 8.5 28t12.5 38t14 43l84 252h174l84 -252q3 -8 8.5 -27.5t12 -41t12.5 -40.5h8q4 16 10.5 36.5t13.5 40t11 32.5l92 252h157l-220 -527h-155l-82 240q-7 23 -15 46.5t-15 44.5t-11 34h-7
q-5 -15 -12.5 -36.5t-14.5 -45t-14 -44.5l-80 -239h-160zM632 591h-130l-164 128v5h178z" />
    <glyph glyph-name="Wacute" unicode="&#x1e82;" horiz-adv-x="1200" 
d="M237 0l-227 687h184l126 -412q5 -13 9.5 -31.5t9.5 -37.5t7 -33h7q2 11 5 25.5l6 29t6.5 27t5.5 20.5l117 412h229l118 -412l7.5 -30t9 -37.5t6.5 -34.5h7q2 11 5.5 25t7.5 28t7.5 26.5t6.5 22.5l126 412h167l-227 -687h-208l-128 436q-4 15 -9 33t-8.5 35.5t-5.5 30.5
h-5q-3 -14 -7.5 -33t-9 -36.5t-7.5 -29.5l-125 -436h-213zM501 746l115 133h178v-5l-164 -128h-129z" />
    <glyph glyph-name="wacute" unicode="&#x1e83;" horiz-adv-x="1014" 
d="M224 0l-220 527h168l93 -251q8 -22 15 -43t12.5 -38.5t7.5 -28.5h8q3 11 8.5 28t12.5 38t14 43l84 252h174l84 -252q3 -8 8.5 -27.5t12 -41t12.5 -40.5h8q4 16 10.5 36.5t13.5 40t11 32.5l92 252h157l-220 -527h-155l-82 240q-7 23 -15 46.5t-15 44.5t-11 34h-7
q-5 -15 -12.5 -36.5t-14.5 -45t-14 -44.5l-80 -239h-160zM405 591l116 133h177v-5l-163 -128h-130z" />
    <glyph glyph-name="Wdieresis" unicode="&#x1e84;" horiz-adv-x="1200" 
d="M237 0l-227 687h184l126 -412q5 -13 10 -31.5t9.5 -37.5t6.5 -33h6q3 11 6 25.5l6 29t6.5 27t5.5 20.5l117 412h229l118 -412l7.5 -30t9 -37.5t7.5 -34.5h6q2 11 6 25t7.5 28t7 26.5t5.5 22.5l127 412h167l-227 -687h-208l-129 436q-3 15 -8 33t-8.5 35.5t-5.5 30.5h-5
q-3 -14 -7.5 -33t-8.5 -36.5t-8 -29.5l-125 -436h-213zM399 754v124h143v-124h-143zM657 754v124h144v-124h-144z" />
    <glyph glyph-name="wdieresis" unicode="&#x1e85;" horiz-adv-x="1014" 
d="M224 0l-220 527h168l93 -251q8 -22 15 -43t12.5 -38.5t7.5 -28.5h8q3 11 8.5 28t12.5 38t14 43l84 252h174l84 -252q3 -8 8.5 -27.5t12 -41t12.5 -40.5h8q4 16 10.5 36.5t13.5 40t11 32.5l92 252h157l-220 -527h-155l-82 240q-7 23 -15 46.5t-15 44.5t-11 34h-7
q-5 -15 -12.5 -36.5t-14.5 -45t-14 -44.5l-80 -239h-160zM316 598v124h143v-124h-143zM574 598v124h144v-124h-144z" />
    <glyph glyph-name="uni1E9E" unicode="&#x1e9e;" horiz-adv-x="1001" 
d="M84 0v420q0 88 51 150.5t150 95.5t244 33q83 0 153 -11.5t122 -35.5t80 -61t28 -89q0 -39 -15 -68.5t-40 -50t-54 -31.5v-7q69 -13 107 -54t38 -103q0 -54 -26 -96.5t-77.5 -67t-129.5 -24.5h-346v137h309q32 0 52.5 8.5t31 24.5t10.5 37q0 25 -14.5 40.5t-37 22
t-45.5 6.5h-306v127h263q45 0 75 20.5t30 54.5q0 47 -50 67t-167 20q-93 0 -151 -17t-85 -52t-27 -89v-407h-173z" />
    <glyph glyph-name="uni1EA0" unicode="&#x1ea0;" horiz-adv-x="918" 
d="M21 0l341 687h194l341 -687h-188l-60 124h-391l-60 -124h-177zM321 257h265l-73 157q-4 10 -13 30t-17.5 41t-15.5 38t-9 21h-8q-8 -20 -19 -45t-20.5 -48.5t-16.5 -37.5zM387 -198v122h144v-122h-144z" />
    <glyph glyph-name="uni1EA1" unicode="&#x1ea1;" horiz-adv-x="754" 
d="M270 -12q-48 0 -89 7.5t-72 25t-48.5 47.5t-17.5 76q0 63 35 99.5t98.5 52.5t149 20.5t186.5 4.5v19q0 33 -16 52t-48.5 27.5t-84.5 8.5q-39 0 -71.5 -5.5t-51.5 -17t-19 -29.5v-10h-157q-1 4 -1.5 7.5t-0.5 8.5q0 47 35 82.5t104.5 55t172.5 19.5q96 0 161.5 -17
t99.5 -56t34 -104v-221q0 -18 7.5 -28.5t25.5 -10.5h52v-96q-12 -5 -40 -11.5t-62 -6.5q-46 0 -72.5 10.5t-38.5 29t-17 40.5h-8q-28 -25 -66.5 -43t-83.5 -27.5t-96 -9.5zM311 99q28 0 62.5 6.5t66.5 19t52 31.5t20 46v28q-107 0 -176 -8t-103 -25t-34 -48
q0 -21 16.5 -31.5t42.5 -14.5t53 -4zM296 -198v122h143v-122h-143z" />
    <glyph glyph-name="uni1EA2" unicode="&#x1ea2;" horiz-adv-x="918" 
d="M21 0l341 687h194l341 -687h-188l-60 124h-391l-60 -124h-177zM321 257h265l-73 157q-4 10 -13 30t-17.5 41t-15.5 38t-9 21h-8q-8 -20 -19 -45t-20.5 -48.5t-16.5 -37.5zM418 740v58h6q29 0 37 3t8 11q0 13 -10.5 15.5t-31.5 2.5h-78v50q13 3 34 5t42 3t33 1
q20 0 43.5 -3t44 -11t34.5 -20.5t14 -32.5q0 -19 -13.5 -31t-34.5 -18t-46 -7v-26h-82z" />
    <glyph glyph-name="uni1EA3" unicode="&#x1ea3;" horiz-adv-x="754" 
d="M270 -12q-48 0 -89 7.5t-72 25t-48.5 47.5t-17.5 76q0 63 35 99.5t98.5 52.5t149 20.5t186.5 4.5v19q0 33 -16 52t-48.5 27.5t-84.5 8.5q-39 0 -71.5 -5.5t-51.5 -17t-19 -29.5v-10h-157q-1 4 -1.5 7.5t-0.5 8.5q0 47 35 82.5t104.5 55t172.5 19.5q96 0 161.5 -17
t99.5 -56t34 -104v-221q0 -18 7.5 -28.5t25.5 -10.5h52v-96q-12 -5 -40 -11.5t-62 -6.5q-46 0 -72.5 10.5t-38.5 29t-17 40.5h-8q-28 -25 -66.5 -43t-83.5 -27.5t-96 -9.5zM311 99q28 0 62.5 6.5t66.5 19t52 31.5t20 46v28q-107 0 -176 -8t-103 -25t-34 -48
q0 -21 16.5 -31.5t42.5 -14.5t53 -4zM326 591v58h7q28 0 36.5 3t8.5 11q0 13 -11 15.5t-32 2.5h-78v49q13 3 34 5t42 3t33 1q20 0 43.5 -3t44.5 -10.5t34.5 -20t13.5 -33.5q0 -18 -13.5 -30t-34.5 -18t-46 -7v-26h-82z" />
    <glyph glyph-name="uni1EA4" unicode="&#x1ea4;" horiz-adv-x="918" 
d="M21 0l341 687h194l341 -687h-188l-60 124h-391l-60 -124h-177zM321 257h265l-73 157q-4 10 -13 30t-17.5 41t-15.5 38t-9 21h-8q-8 -20 -19 -45t-20.5 -48.5t-16.5 -37.5zM242 737l158 142h117l159 -142h-125l-127 113h67l-127 -113h-122zM359 909l116 133h178v-5
l-164 -128h-130z" />
    <glyph glyph-name="uni1EA5" unicode="&#x1ea5;" horiz-adv-x="754" 
d="M270 -12q-48 0 -89 7.5t-72 25t-48.5 47.5t-17.5 76q0 63 35 99.5t98.5 52.5t149 20.5t186.5 4.5v19q0 33 -16 52t-48.5 27.5t-84.5 8.5q-39 0 -71.5 -5.5t-51.5 -17t-19 -29.5v-10h-157q-1 4 -1.5 7.5t-0.5 8.5q0 47 35 82.5t104.5 55t172.5 19.5q96 0 161.5 -17
t99.5 -56t34 -104v-221q0 -18 7.5 -28.5t25.5 -10.5h52v-96q-12 -5 -40 -11.5t-62 -6.5q-46 0 -72.5 10.5t-38.5 29t-17 40.5h-8q-28 -25 -66.5 -43t-83.5 -27.5t-96 -9.5zM311 99q28 0 62.5 6.5t66.5 19t52 31.5t20 46v28q-107 0 -176 -8t-103 -25t-34 -48
q0 -21 16.5 -31.5t42.5 -14.5t53 -4zM150 582l159 142h117l159 -142h-125l-127 113h66l-127 -113h-122zM255 774l116 133h178v-5l-164 -128h-130z" />
    <glyph glyph-name="uni1EA6" unicode="&#x1ea6;" horiz-adv-x="918" 
d="M21 0l341 687h194l341 -687h-188l-60 124h-391l-60 -124h-177zM321 257h265l-73 157q-4 10 -13 30t-17.5 41t-15.5 38t-9 21h-8q-8 -20 -19 -45t-20.5 -48.5t-16.5 -37.5zM242 737l158 142h117l159 -142h-125l-127 113h67l-127 -113h-122zM546 909h-129l-164 128v5h178z
" />
    <glyph glyph-name="uni1EA7" unicode="&#x1ea7;" horiz-adv-x="754" 
d="M270 -12q-48 0 -89 7.5t-72 25t-48.5 47.5t-17.5 76q0 63 35 99.5t98.5 52.5t149 20.5t186.5 4.5v19q0 33 -16 52t-48.5 27.5t-84.5 8.5q-39 0 -71.5 -5.5t-51.5 -17t-19 -29.5v-10h-157q-1 4 -1.5 7.5t-0.5 8.5q0 47 35 82.5t104.5 55t172.5 19.5q96 0 161.5 -17
t99.5 -56t34 -104v-221q0 -18 7.5 -28.5t25.5 -10.5h52v-96q-12 -5 -40 -11.5t-62 -6.5q-46 0 -72.5 10.5t-38.5 29t-17 40.5h-8q-28 -25 -66.5 -43t-83.5 -27.5t-96 -9.5zM311 99q28 0 62.5 6.5t66.5 19t52 31.5t20 46v28q-107 0 -176 -8t-103 -25t-34 -48
q0 -21 16.5 -31.5t42.5 -14.5t53 -4zM150 582l159 142h117l159 -142h-125l-127 113h66l-127 -113h-122zM482 774h-130l-163 128v5h177z" />
    <glyph glyph-name="uni1EA8" unicode="&#x1ea8;" horiz-adv-x="918" 
d="M21 0l341 687h194l341 -687h-188l-60 124h-391l-60 -124h-177zM321 257h265l-73 157q-4 10 -13 30t-17.5 41t-15.5 38t-9 21h-8q-8 -20 -19 -45t-20.5 -48.5t-16.5 -37.5zM242 737l158 142h117l159 -142h-125l-127 113h67l-127 -113h-122zM418 903v58h6q29 0 37 3t8 11
q0 13 -10.5 15.5t-31.5 2.5h-78v50q13 3 34 5t42 3t33 1q20 0 43.5 -3.5t44 -11t34.5 -20t14 -33.5q0 -18 -13.5 -30t-34.5 -18t-46 -7v-26h-82z" />
    <glyph glyph-name="uni1EA9" unicode="&#x1ea9;" horiz-adv-x="754" 
d="M270 -12q-48 0 -89 7.5t-72 25t-48.5 47.5t-17.5 76q0 63 35 99.5t98.5 52.5t149 20.5t186.5 4.5v19q0 33 -16 52t-48.5 27.5t-84.5 8.5q-39 0 -71.5 -5.5t-51.5 -17t-19 -29.5v-10h-157q-1 4 -1.5 7.5t-0.5 8.5q0 47 35 82.5t104.5 55t172.5 19.5q96 0 161.5 -17
t99.5 -56t34 -104v-221q0 -18 7.5 -28.5t25.5 -10.5h52v-96q-12 -5 -40 -11.5t-62 -6.5q-46 0 -72.5 10.5t-38.5 29t-17 40.5h-8q-28 -25 -66.5 -43t-83.5 -27.5t-96 -9.5zM311 99q28 0 62.5 6.5t66.5 19t52 31.5t20 46v28q-107 0 -176 -8t-103 -25t-34 -48
q0 -21 16.5 -31.5t42.5 -14.5t53 -4zM150 582l159 142h117l159 -142h-125l-127 113h66l-127 -113h-122zM326 774v57h7q28 0 36.5 3t8.5 12q0 12 -11 15t-32 3h-78v49q13 3 34 5t42 3t33 1q20 0 43.5 -3t44.5 -10.5t34.5 -20.5t13.5 -33q0 -18 -13.5 -30.5t-34.5 -18
t-46 -6.5v-26h-82z" />
    <glyph glyph-name="uni1EAA" unicode="&#x1eaa;" horiz-adv-x="918" 
d="M21 0l341 687h194l341 -687h-188l-60 124h-391l-60 -124h-177zM321 257h265l-73 157q-4 10 -13 30t-17.5 41t-15.5 38t-9 21h-8q-8 -20 -19 -45t-20.5 -48.5t-16.5 -37.5zM242 737l158 142h117l159 -142h-125l-127 113h67l-127 -113h-122zM221 906q2 29 19 58.5
t48.5 49.5t76.5 20q37 0 71.5 -10t67.5 -20.5t63 -10.5q23 0 36 12.5t18 28.5h76q-1 -28 -19 -58.5t-50 -50.5t-76 -20q-35 0 -70.5 10.5t-68 20.5t-62.5 10q-24 0 -37 -12.5t-19 -27.5h-74z" />
    <glyph glyph-name="uni1EAB" unicode="&#x1eab;" horiz-adv-x="754" 
d="M270 -12q-48 0 -89 7.5t-72 25t-48.5 47.5t-17.5 76q0 63 35 99.5t98.5 52.5t149 20.5t186.5 4.5v19q0 33 -16 52t-48.5 27.5t-84.5 8.5q-39 0 -71.5 -5.5t-51.5 -17t-19 -29.5v-10h-157q-1 4 -1.5 7.5t-0.5 8.5q0 47 35 82.5t104.5 55t172.5 19.5q96 0 161.5 -17
t99.5 -56t34 -104v-221q0 -18 7.5 -28.5t25.5 -10.5h52v-96q-12 -5 -40 -11.5t-62 -6.5q-46 0 -72.5 10.5t-38.5 29t-17 40.5h-8q-28 -25 -66.5 -43t-83.5 -27.5t-96 -9.5zM311 99q28 0 62.5 6.5t66.5 19t52 31.5t20 46v28q-107 0 -176 -8t-103 -25t-34 -48
q0 -21 16.5 -31.5t42.5 -14.5t53 -4zM150 582l159 142h117l159 -142h-125l-127 113h66l-127 -113h-122zM129 778q2 29 19 59t48.5 50t76.5 20q37 0 71.5 -10t67.5 -20.5t63 -10.5q23 0 36 12t18 29h76q-1 -29 -19 -59t-50 -50t-76 -20q-35 0 -70.5 10.5t-68 20.5t-62.5 10
q-24 0 -37 -12.5t-19 -28.5h-74z" />
    <glyph glyph-name="uni1EAC" unicode="&#x1eac;" horiz-adv-x="918" 
d="M21 0l341 687h194l341 -687h-188l-60 124h-391l-60 -124h-177zM321 257h265l-73 157q-4 10 -13 30t-17.5 41t-15.5 38t-9 21h-8q-8 -20 -19 -45t-20.5 -48.5t-16.5 -37.5zM387 -198v122h144v-122h-144zM242 737l158 142h117l159 -142h-125l-127 113h67l-127 -113h-122z
" />
    <glyph glyph-name="uni1EAD" unicode="&#x1ead;" horiz-adv-x="754" 
d="M270 -12q-48 0 -89 7.5t-72 25t-48.5 47.5t-17.5 76q0 63 35 99.5t98.5 52.5t149 20.5t186.5 4.5v19q0 33 -16 52t-48.5 27.5t-84.5 8.5q-39 0 -71.5 -5.5t-51.5 -17t-19 -29.5v-10h-157q-1 4 -1.5 7.5t-0.5 8.5q0 47 35 82.5t104.5 55t172.5 19.5q96 0 161.5 -17
t99.5 -56t34 -104v-221q0 -18 7.5 -28.5t25.5 -10.5h52v-96q-12 -5 -40 -11.5t-62 -6.5q-46 0 -72.5 10.5t-38.5 29t-17 40.5h-8q-28 -25 -66.5 -43t-83.5 -27.5t-96 -9.5zM311 99q28 0 62.5 6.5t66.5 19t52 31.5t20 46v28q-107 0 -176 -8t-103 -25t-34 -48
q0 -21 16.5 -31.5t42.5 -14.5t53 -4zM296 -198v122h143v-122h-143zM150 582l159 142h117l159 -142h-125l-127 113h66l-127 -113h-122z" />
    <glyph glyph-name="uni1EAE" unicode="&#x1eae;" horiz-adv-x="918" 
d="M21 0l341 687h194l341 -687h-188l-60 124h-391l-60 -124h-177zM321 257h265l-73 157q-4 10 -13 30t-17.5 41t-15.5 38t-9 21h-8q-8 -20 -19 -45t-20.5 -48.5t-16.5 -37.5zM458 745q-70 0 -115.5 20.5t-67.5 51.5t-22 62h90q4 -13 18.5 -25t39.5 -20t57 -8q38 0 62.5 9
t38 21.5t15.5 22.5h90q0 -31 -22.5 -62t-68.5 -51.5t-115 -20.5zM359 901l116 133h178v-5l-164 -128h-130z" />
    <glyph glyph-name="uni1EAF" unicode="&#x1eaf;" horiz-adv-x="754" 
d="M270 -12q-48 0 -89 7.5t-72 25t-48.5 47.5t-17.5 76q0 63 35 99.5t98.5 52.5t149 20.5t186.5 4.5v19q0 33 -16 52t-48.5 27.5t-84.5 8.5q-39 0 -71.5 -5.5t-51.5 -17t-19 -29.5v-10h-157q-1 4 -1.5 7.5t-0.5 8.5q0 47 35 82.5t104.5 55t172.5 19.5q96 0 161.5 -17
t99.5 -56t34 -104v-221q0 -18 7.5 -28.5t25.5 -10.5h52v-96q-12 -5 -40 -11.5t-62 -6.5q-46 0 -72.5 10.5t-38.5 29t-17 40.5h-8q-28 -25 -66.5 -43t-83.5 -27.5t-96 -9.5zM311 99q28 0 62.5 6.5t66.5 19t52 31.5t20 46v28q-107 0 -176 -8t-103 -25t-34 -48
q0 -21 16.5 -31.5t42.5 -14.5t53 -4zM367 590q-70 0 -115.5 20.5t-67.5 51.5t-22 62h90q3 -13 18 -25t39.5 -19.5t57.5 -7.5q38 0 62.5 8.5t38 21t15.5 22.5h90q0 -31 -22.5 -62t-68.5 -51.5t-115 -20.5zM255 774l116 133h178v-5l-164 -128h-130z" />
    <glyph glyph-name="uni1EB0" unicode="&#x1eb0;" horiz-adv-x="918" 
d="M21 0l341 687h194l341 -687h-188l-60 124h-391l-60 -124h-177zM321 257h265l-73 157q-4 10 -13 30t-17.5 41t-15.5 38t-9 21h-8q-8 -20 -19 -45t-20.5 -48.5t-16.5 -37.5zM458 745q-70 0 -115.5 20.5t-67.5 51.5t-22 62h90q4 -13 18.5 -25t39.5 -20t57 -8q38 0 62.5 9
t38 21.5t15.5 22.5h90q0 -31 -22.5 -62t-68.5 -51.5t-115 -20.5zM546 901h-129l-164 128v5h178z" />
    <glyph glyph-name="uni1EB1" unicode="&#x1eb1;" horiz-adv-x="754" 
d="M270 -12q-48 0 -89 7.5t-72 25t-48.5 47.5t-17.5 76q0 63 35 99.5t98.5 52.5t149 20.5t186.5 4.5v19q0 33 -16 52t-48.5 27.5t-84.5 8.5q-39 0 -71.5 -5.5t-51.5 -17t-19 -29.5v-10h-157q-1 4 -1.5 7.5t-0.5 8.5q0 47 35 82.5t104.5 55t172.5 19.5q96 0 161.5 -17
t99.5 -56t34 -104v-221q0 -18 7.5 -28.5t25.5 -10.5h52v-96q-12 -5 -40 -11.5t-62 -6.5q-46 0 -72.5 10.5t-38.5 29t-17 40.5h-8q-28 -25 -66.5 -43t-83.5 -27.5t-96 -9.5zM311 99q28 0 62.5 6.5t66.5 19t52 31.5t20 46v28q-107 0 -176 -8t-103 -25t-34 -48
q0 -21 16.5 -31.5t42.5 -14.5t53 -4zM367 590q-70 0 -115.5 20.5t-67.5 51.5t-22 62h90q3 -13 18 -25t39.5 -19.5t57.5 -7.5q38 0 62.5 8.5t38 21t15.5 22.5h90q0 -31 -22.5 -62t-68.5 -51.5t-115 -20.5zM482 774h-130l-163 128v5h177z" />
    <glyph glyph-name="uni1EB2" unicode="&#x1eb2;" horiz-adv-x="918" 
d="M21 0l341 687h194l341 -687h-188l-60 124h-391l-60 -124h-177zM321 257h265l-73 157q-4 10 -13 30t-17.5 41t-15.5 38t-9 21h-8q-8 -20 -19 -45t-20.5 -48.5t-16.5 -37.5zM458 745q-70 0 -115.5 20.5t-67.5 51.5t-22 62h90q4 -13 18.5 -25t39.5 -20t57 -8q38 0 62.5 9
t38 21.5t15.5 22.5h90q0 -31 -22.5 -62t-68.5 -51.5t-115 -20.5zM418 895v58h6q29 0 37 3t8 11q0 13 -10.5 15.5t-31.5 2.5h-78v50q13 3 34 5t42 3t33 1q20 0 43.5 -3.5t44 -11t34.5 -20t14 -32.5q0 -19 -13.5 -31t-34.5 -18t-46 -7v-26h-82z" />
    <glyph glyph-name="uni1EB3" unicode="&#x1eb3;" horiz-adv-x="754" 
d="M270 -12q-48 0 -89 7.5t-72 25t-48.5 47.5t-17.5 76q0 63 35 99.5t98.5 52.5t149 20.5t186.5 4.5v19q0 33 -16 52t-48.5 27.5t-84.5 8.5q-39 0 -71.5 -5.5t-51.5 -17t-19 -29.5v-10h-157q-1 4 -1.5 7.5t-0.5 8.5q0 47 35 82.5t104.5 55t172.5 19.5q96 0 161.5 -17
t99.5 -56t34 -104v-221q0 -18 7.5 -28.5t25.5 -10.5h52v-96q-12 -5 -40 -11.5t-62 -6.5q-46 0 -72.5 10.5t-38.5 29t-17 40.5h-8q-28 -25 -66.5 -43t-83.5 -27.5t-96 -9.5zM311 99q28 0 62.5 6.5t66.5 19t52 31.5t20 46v28q-107 0 -176 -8t-103 -25t-34 -48
q0 -21 16.5 -31.5t42.5 -14.5t53 -4zM367 590q-70 0 -115.5 20.5t-67.5 51.5t-22 62h90q3 -13 18 -25t39.5 -19.5t57.5 -7.5q38 0 62.5 8.5t38 21t15.5 22.5h90q0 -31 -22.5 -62t-68.5 -51.5t-115 -20.5zM326 774v57h7q28 0 36.5 3t8.5 12q0 12 -11 15t-32 3h-78v49
q13 3 34 5t42 3t33 1q20 0 43.5 -3t44.5 -10.5t34.5 -20.5t13.5 -33q0 -18 -13.5 -30.5t-34.5 -18t-46 -6.5v-26h-82z" />
    <glyph glyph-name="uni1EB4" unicode="&#x1eb4;" horiz-adv-x="918" 
d="M21 0l341 687h194l341 -687h-188l-60 124h-391l-60 -124h-177zM321 257h265l-73 157q-4 10 -13 30t-17.5 41t-15.5 38t-9 21h-8q-8 -20 -19 -45t-20.5 -48.5t-16.5 -37.5zM458 745q-70 0 -115.5 20.5t-67.5 51.5t-22 62h90q4 -13 18.5 -25t39.5 -20t57 -8q38 0 62.5 9
t38 21.5t15.5 22.5h90q0 -31 -22.5 -62t-68.5 -51.5t-115 -20.5zM221 898q2 29 19 58.5t48.5 50t76.5 20.5q37 0 71.5 -10.5t67.5 -21t63 -10.5q23 0 36 12.5t18 29.5h76q-1 -29 -19 -59.5t-50 -50.5t-76 -20q-35 0 -70.5 10.5t-68 21t-62.5 10.5q-24 0 -37 -12.5t-19 -28.5
h-74z" />
    <glyph glyph-name="uni1EB5" unicode="&#x1eb5;" horiz-adv-x="754" 
d="M270 -12q-48 0 -89 7.5t-72 25t-48.5 47.5t-17.5 76q0 63 35 99.5t98.5 52.5t149 20.5t186.5 4.5v19q0 33 -16 52t-48.5 27.5t-84.5 8.5q-39 0 -71.5 -5.5t-51.5 -17t-19 -29.5v-10h-157q-1 4 -1.5 7.5t-0.5 8.5q0 47 35 82.5t104.5 55t172.5 19.5q96 0 161.5 -17
t99.5 -56t34 -104v-221q0 -18 7.5 -28.5t25.5 -10.5h52v-96q-12 -5 -40 -11.5t-62 -6.5q-46 0 -72.5 10.5t-38.5 29t-17 40.5h-8q-28 -25 -66.5 -43t-83.5 -27.5t-96 -9.5zM311 99q28 0 62.5 6.5t66.5 19t52 31.5t20 46v28q-107 0 -176 -8t-103 -25t-34 -48
q0 -21 16.5 -31.5t42.5 -14.5t53 -4zM367 590q-70 0 -115.5 20.5t-67.5 51.5t-22 62h90q3 -13 18 -25t39.5 -19.5t57.5 -7.5q38 0 62.5 8.5t38 21t15.5 22.5h90q0 -31 -22.5 -62t-68.5 -51.5t-115 -20.5zM129 778q2 29 19 59t48.5 50t76.5 20q37 0 71.5 -10t67.5 -20.5
t63 -10.5q23 0 36 12t18 29h76q-1 -29 -19 -59t-50 -50t-76 -20q-35 0 -70.5 10.5t-68 20.5t-62.5 10q-24 0 -37 -12.5t-19 -28.5h-74z" />
    <glyph glyph-name="uni1EB6" unicode="&#x1eb6;" horiz-adv-x="918" 
d="M21 0l341 687h194l341 -687h-188l-60 124h-391l-60 -124h-177zM321 257h265l-73 157q-4 10 -13 30t-17.5 41t-15.5 38t-9 21h-8q-8 -20 -19 -45t-20.5 -48.5t-16.5 -37.5zM387 -198v122h144v-122h-144zM458 745q-70 0 -115.5 20.5t-67.5 51.5t-22 62h90q4 -13 18.5 -25
t39.5 -20t57 -8q38 0 62.5 9t38 21.5t15.5 22.5h90q0 -31 -22.5 -62t-68.5 -51.5t-115 -20.5z" />
    <glyph glyph-name="uni1EB7" unicode="&#x1eb7;" horiz-adv-x="754" 
d="M270 -12q-48 0 -89 7.5t-72 25t-48.5 47.5t-17.5 76q0 63 35 99.5t98.5 52.5t149 20.5t186.5 4.5v19q0 33 -16 52t-48.5 27.5t-84.5 8.5q-39 0 -71.5 -5.5t-51.5 -17t-19 -29.5v-10h-157q-1 4 -1.5 7.5t-0.5 8.5q0 47 35 82.5t104.5 55t172.5 19.5q96 0 161.5 -17
t99.5 -56t34 -104v-221q0 -18 7.5 -28.5t25.5 -10.5h52v-96q-12 -5 -40 -11.5t-62 -6.5q-46 0 -72.5 10.5t-38.5 29t-17 40.5h-8q-28 -25 -66.5 -43t-83.5 -27.5t-96 -9.5zM311 99q28 0 62.5 6.5t66.5 19t52 31.5t20 46v28q-107 0 -176 -8t-103 -25t-34 -48
q0 -21 16.5 -31.5t42.5 -14.5t53 -4zM296 -198v122h143v-122h-143zM367 590q-70 0 -115.5 20.5t-67.5 51.5t-22 62h90q3 -13 18 -25t39.5 -19.5t57.5 -7.5q38 0 62.5 8.5t38 21t15.5 22.5h90q0 -31 -22.5 -62t-68.5 -51.5t-115 -20.5z" />
    <glyph glyph-name="uni1EB8" unicode="&#x1eb8;" horiz-adv-x="865" 
d="M92 0v687h704v-136h-531v-135h469v-134h-469v-145h539v-137h-712zM376 -198v122h143v-122h-143z" />
    <glyph glyph-name="uni1EB9" unicode="&#x1eb9;" horiz-adv-x="759" 
d="M387 -12q-105 0 -181 29.5t-117.5 90.5t-41.5 155q0 92 40.5 153.5t116 92t177.5 30.5q107 0 181 -30t112 -89t38 -146v-46h-501q3 -46 25 -74.5t61.5 -41.5t92.5 -13q24 0 50.5 5.5t50 15.5t39.5 25.5t18 37.5h160q0 -42 -22 -78t-64 -62t-101.5 -40.5t-133.5 -14.5z
M212 323h333q0 26 -12 45.5t-34.5 33t-51.5 20t-63 6.5q-49 0 -86.5 -12.5t-59 -36t-26.5 -56.5zM308 -198v122h143v-122h-143z" />
    <glyph glyph-name="uni1EBA" unicode="&#x1eba;" horiz-adv-x="865" 
d="M92 0v687h704v-136h-531v-135h469v-134h-469v-145h539v-137h-712zM406 740v58h7q28 0 36.5 3t8.5 11q0 13 -11 15.5t-32 2.5h-78v50q13 3 34 4.5l42 3t33 1.5q20 0 43.5 -3t44.5 -11t34.5 -20.5t13.5 -32.5q0 -19 -13.5 -31t-34.5 -18t-46 -7v-26h-82z" />
    <glyph glyph-name="uni1EBB" unicode="&#x1ebb;" horiz-adv-x="759" 
d="M387 -12q-105 0 -181 29.5t-117.5 90.5t-41.5 155q0 92 40.5 153.5t116 92t177.5 30.5q107 0 181 -30t112 -89t38 -146v-46h-501q3 -46 25 -74.5t61.5 -41.5t92.5 -13q24 0 50.5 5.5t50 15.5t39.5 25.5t18 37.5h160q0 -42 -22 -78t-64 -62t-101.5 -40.5t-133.5 -14.5z
M212 323h333q0 26 -12 45.5t-34.5 33t-51.5 20t-63 6.5q-49 0 -86.5 -12.5t-59 -36t-26.5 -56.5zM338 591v58h6q29 0 37 3t8 11q0 13 -10.5 15.5t-31.5 2.5h-78v49q13 3 34 5t42 3t33 1q20 0 43.5 -3t44.5 -10.5t34.5 -20t13.5 -33.5q0 -18 -13.5 -30t-34.5 -18t-46 -7v-26
h-82z" />
    <glyph glyph-name="uni1EBC" unicode="&#x1ebc;" horiz-adv-x="865" 
d="M92 0v687h704v-136h-531v-135h469v-134h-469v-145h539v-137h-712zM210 743q1 29 18 59t48.5 50t76.5 20q37 0 71.5 -10.5t67.5 -21t64 -10.5q23 0 35.5 12.5t17.5 29.5h76q-1 -29 -19 -59.5t-49.5 -50.5t-76.5 -20q-35 0 -70 10.5t-68 21t-63 10.5q-23 0 -36.5 -12.5
t-18.5 -28.5h-74z" />
    <glyph glyph-name="uni1EBD" unicode="&#x1ebd;" horiz-adv-x="759" 
d="M387 -12q-105 0 -181 29.5t-117.5 90.5t-41.5 155q0 92 40.5 153.5t116 92t177.5 30.5q107 0 181 -30t112 -89t38 -146v-46h-501q3 -46 25 -74.5t61.5 -41.5t92.5 -13q24 0 50.5 5.5t50 15.5t39.5 25.5t18 37.5h160q0 -42 -22 -78t-64 -62t-101.5 -40.5t-133.5 -14.5z
M212 323h333q0 26 -12 45.5t-34.5 33t-51.5 20t-63 6.5q-49 0 -86.5 -12.5t-59 -36t-26.5 -56.5zM141 596q2 28 18.5 58t48.5 50t77 20q37 0 71.5 -10t67.5 -20.5t63 -10.5q23 0 36 12.5t17 28.5h77q-1 -29 -19 -59t-50 -50t-76 -20q-36 0 -71 10.5t-68 20.5t-62 10
q-24 0 -37 -12.5t-19 -27.5h-74z" />
    <glyph glyph-name="uni1EBE" unicode="&#x1ebe;" horiz-adv-x="865" 
d="M92 0v687h704v-136h-531v-135h469v-134h-469v-145h539v-137h-712zM230 737l158 142h117l160 -142h-125l-128 113h67l-127 -113h-122zM348 909l116 133h177v-5l-163 -128h-130z" />
    <glyph glyph-name="uni1EBF" unicode="&#x1ebf;" horiz-adv-x="759" 
d="M387 -12q-105 0 -181 29.5t-117.5 90.5t-41.5 155q0 92 40.5 153.5t116 92t177.5 30.5q107 0 181 -30t112 -89t38 -146v-46h-501q3 -46 25 -74.5t61.5 -41.5t92.5 -13q24 0 50.5 5.5t50 15.5t39.5 25.5t18 37.5h160q0 -42 -22 -78t-64 -62t-101.5 -40.5t-133.5 -14.5z
M212 323h333q0 26 -12 45.5t-34.5 33t-51.5 20t-63 6.5q-49 0 -86.5 -12.5t-59 -36t-26.5 -56.5zM162 582l159 142h116l160 -142h-125l-128 113h67l-127 -113h-122zM267 774l116 133h177v-5l-163 -128h-130z" />
    <glyph glyph-name="uni1EC0" unicode="&#x1ec0;" horiz-adv-x="865" 
d="M92 0v687h704v-136h-531v-135h469v-134h-469v-145h539v-137h-712zM230 737l158 142h117l160 -142h-125l-128 113h67l-127 -113h-122zM535 909h-130l-164 128v5h178z" />
    <glyph glyph-name="uni1EC1" unicode="&#x1ec1;" horiz-adv-x="759" 
d="M387 -12q-105 0 -181 29.5t-117.5 90.5t-41.5 155q0 92 40.5 153.5t116 92t177.5 30.5q107 0 181 -30t112 -89t38 -146v-46h-501q3 -46 25 -74.5t61.5 -41.5t92.5 -13q24 0 50.5 5.5t50 15.5t39.5 25.5t18 37.5h160q0 -42 -22 -78t-64 -62t-101.5 -40.5t-133.5 -14.5z
M212 323h333q0 26 -12 45.5t-34.5 33t-51.5 20t-63 6.5q-49 0 -86.5 -12.5t-59 -36t-26.5 -56.5zM162 582l159 142h116l160 -142h-125l-128 113h67l-127 -113h-122zM494 774h-130l-163 128v5h177z" />
    <glyph glyph-name="uni1EC2" unicode="&#x1ec2;" horiz-adv-x="865" 
d="M92 0v687h704v-136h-531v-135h469v-134h-469v-145h539v-137h-712zM230 737l158 142h117l160 -142h-125l-128 113h67l-127 -113h-122zM406 903v58h7q28 0 36.5 3t8.5 11q0 13 -11 15.5t-32 2.5h-78v50q13 3 34 4.5l42 3t33 1.5q20 0 43.5 -3.5t44.5 -11t34.5 -20
t13.5 -33.5q0 -18 -13.5 -30t-34.5 -18t-46 -7v-26h-82z" />
    <glyph glyph-name="uni1EC3" unicode="&#x1ec3;" horiz-adv-x="759" 
d="M387 -12q-105 0 -181 29.5t-117.5 90.5t-41.5 155q0 92 40.5 153.5t116 92t177.5 30.5q107 0 181 -30t112 -89t38 -146v-46h-501q3 -46 25 -74.5t61.5 -41.5t92.5 -13q24 0 50.5 5.5t50 15.5t39.5 25.5t18 37.5h160q0 -42 -22 -78t-64 -62t-101.5 -40.5t-133.5 -14.5z
M212 323h333q0 26 -12 45.5t-34.5 33t-51.5 20t-63 6.5q-49 0 -86.5 -12.5t-59 -36t-26.5 -56.5zM162 582l159 142h116l160 -142h-125l-128 113h67l-127 -113h-122zM338 774v57h6q29 0 37 3t8 12q0 12 -10.5 15t-31.5 3h-78v49q13 3 34 5t42 3t33 1q20 0 43.5 -3t44.5 -10.5
t34.5 -20.5t13.5 -33q0 -18 -13.5 -30.5t-34.5 -18t-46 -6.5v-26h-82z" />
    <glyph glyph-name="uni1EC4" unicode="&#x1ec4;" horiz-adv-x="865" 
d="M92 0v687h704v-136h-531v-135h469v-134h-469v-145h539v-137h-712zM230 737l158 142h117l160 -142h-125l-128 113h67l-127 -113h-122zM210 906q1 29 18 58.5t48.5 49.5t76.5 20q37 0 71.5 -10t67.5 -20.5t64 -10.5q23 0 35.5 12.5t17.5 28.5h76q-1 -28 -19 -58.5
t-49.5 -50.5t-76.5 -20q-35 0 -70 10.5t-68 20.5t-63 10q-23 0 -36.5 -12.5t-18.5 -27.5h-74z" />
    <glyph glyph-name="uni1EC5" unicode="&#x1ec5;" horiz-adv-x="759" 
d="M387 -12q-105 0 -181 29.5t-117.5 90.5t-41.5 155q0 92 40.5 153.5t116 92t177.5 30.5q107 0 181 -30t112 -89t38 -146v-46h-501q3 -46 25 -74.5t61.5 -41.5t92.5 -13q24 0 50.5 5.5t50 15.5t39.5 25.5t18 37.5h160q0 -42 -22 -78t-64 -62t-101.5 -40.5t-133.5 -14.5z
M212 323h333q0 26 -12 45.5t-34.5 33t-51.5 20t-63 6.5q-49 0 -86.5 -12.5t-59 -36t-26.5 -56.5zM162 582l159 142h116l160 -142h-125l-128 113h67l-127 -113h-122zM141 778q2 29 18.5 59t48.5 50t77 20q37 0 71.5 -10t67.5 -20.5t63 -10.5q23 0 36 12t17 29h77
q-1 -29 -19 -59t-50 -50t-76 -20q-36 0 -71 10.5t-68 20.5t-62 10q-24 0 -37 -12.5t-19 -28.5h-74z" />
    <glyph glyph-name="uni1EC6" unicode="&#x1ec6;" horiz-adv-x="865" 
d="M92 0v687h704v-136h-531v-135h469v-134h-469v-145h539v-137h-712zM376 -198v122h143v-122h-143zM230 737l158 142h117l160 -142h-125l-128 113h67l-127 -113h-122z" />
    <glyph glyph-name="uni1EC7" unicode="&#x1ec7;" horiz-adv-x="759" 
d="M387 -12q-105 0 -181 29.5t-117.5 90.5t-41.5 155q0 92 40.5 153.5t116 92t177.5 30.5q107 0 181 -30t112 -89t38 -146v-46h-501q3 -46 25 -74.5t61.5 -41.5t92.5 -13q24 0 50.5 5.5t50 15.5t39.5 25.5t18 37.5h160q0 -42 -22 -78t-64 -62t-101.5 -40.5t-133.5 -14.5z
M212 323h333q0 26 -12 45.5t-34.5 33t-51.5 20t-63 6.5q-49 0 -86.5 -12.5t-59 -36t-26.5 -56.5zM308 -198v122h143v-122h-143zM162 582l159 142h116l160 -142h-125l-128 113h67l-127 -113h-122z" />
    <glyph glyph-name="uni1EC8" unicode="&#x1ec8;" horiz-adv-x="357" 
d="M92 0v687h173v-687h-173zM137 740v58h7q28 0 36.5 3t8.5 11q0 13 -11 15.5t-32 2.5h-78v50q13 3 34 4.5l42 3t34 1.5q19 0 42.5 -3t44.5 -11t34.5 -20.5t13.5 -32.5q0 -19 -13.5 -31t-34.5 -18t-46 -7v-26h-82z" />
    <glyph glyph-name="uni1EC9" unicode="&#x1ec9;" horiz-adv-x="294" 
d="M69 0v527h156v-527h-156zM106 591v58h6q29 0 37 3t8 11q0 13 -11 15.5t-31 2.5h-78v49q13 3 34 5t41.5 3t33.5 1q19 0 42.5 -3t44.5 -10.5t34.5 -20t13.5 -33.5q0 -18 -13 -30t-34 -18t-46 -7v-26h-82z" />
    <glyph glyph-name="uni1ECA" unicode="&#x1eca;" horiz-adv-x="357" 
d="M92 0v687h173v-687h-173zM107 -198v122h143v-122h-143z" />
    <glyph glyph-name="uni1ECB" unicode="&#x1ecb;" horiz-adv-x="294" 
d="M69 608v116h156v-116h-156zM69 0v527h156v-527h-156zM75 -198v122h144v-122h-144z" />
    <glyph glyph-name="uni1ECC" unicode="&#x1ecc;" horiz-adv-x="1016" 
d="M508 -12q-137 0 -237.5 42t-154.5 121.5t-54 192.5t54 192.5t154.5 121t237.5 41.5q138 0 238 -41.5t154 -121t54 -192.5t-54 -192.5t-154 -121.5t-238 -42zM508 125q59 0 108 13.5t85 39.5t55.5 65.5t19.5 89.5v23q0 50 -19.5 89t-55.5 65t-85 39.5t-108 13.5
t-108 -13.5t-85 -39.5t-55.5 -65t-19.5 -89v-23q0 -50 19.5 -89.5t55.5 -65.5t85 -39.5t108 -13.5zM436 -198v122h144v-122h-144z" />
    <glyph glyph-name="uni1ECD" unicode="&#x1ecd;" horiz-adv-x="760" 
d="M380 -12q-103 0 -177.5 31t-115 92.5t-40.5 152.5q0 92 40.5 153t115 91.5t177.5 30.5t177.5 -30.5t115 -91.5t40.5 -153q0 -91 -40.5 -152.5t-115 -92.5t-177.5 -31zM380 102q54 0 92.5 18.5t58.5 52.5t20 81v20q0 48 -20 81.5t-58.5 51.5t-92.5 18q-55 0 -93 -18
t-58 -51.5t-20 -81.5v-20q0 -47 20 -81t58 -52.5t93 -18.5zM308 -198v122h144v-122h-144z" />
    <glyph glyph-name="uni1ECE" unicode="&#x1ece;" horiz-adv-x="1016" 
d="M508 -12q-137 0 -237.5 42t-154.5 121.5t-54 192.5t54 192.5t154.5 121t237.5 41.5q138 0 238 -41.5t154 -121t54 -192.5t-54 -192.5t-154 -121.5t-238 -42zM508 125q59 0 108 13.5t85 39.5t55.5 65.5t19.5 89.5v23q0 50 -19.5 89t-55.5 65t-85 39.5t-108 13.5
t-108 -13.5t-85 -39.5t-55.5 -65t-19.5 -89v-23q0 -50 19.5 -89.5t55.5 -65.5t85 -39.5t108 -13.5zM467 740v58h6q29 0 37 3t8 11q0 13 -11 15.5t-31 2.5h-78v50q13 3 34 4.5t41.5 3t33.5 1.5q20 0 43 -3t44 -11t34.5 -20.5t13.5 -32.5q0 -19 -13 -31t-34 -18t-46 -7v-26
h-82z" />
    <glyph glyph-name="uni1ECF" unicode="&#x1ecf;" horiz-adv-x="760" 
d="M380 -12q-103 0 -177.5 31t-115 92.5t-40.5 152.5q0 92 40.5 153t115 91.5t177.5 30.5t177.5 -30.5t115 -91.5t40.5 -153q0 -91 -40.5 -152.5t-115 -92.5t-177.5 -31zM380 102q54 0 92.5 18.5t58.5 52.5t20 81v20q0 48 -20 81.5t-58.5 51.5t-92.5 18q-55 0 -93 -18
t-58 -51.5t-20 -81.5v-20q0 -47 20 -81t58 -52.5t93 -18.5zM339 591v58h6q29 0 37 3t8 11q0 13 -11 15.5t-31 2.5h-78v49q13 3 33.5 5t41.5 3t34 1q19 0 42.5 -3t44.5 -10.5t34.5 -20t13.5 -33.5q0 -18 -13 -30t-34 -18t-46 -7v-26h-82z" />
    <glyph glyph-name="uni1ED0" unicode="&#x1ed0;" horiz-adv-x="1016" 
d="M508 -12q-138 0 -238 42t-154 121.5t-54 192.5t54 192.5t154 121t238 41.5t238 -41.5t154 -121t54 -192.5t-54 -192.5t-154 -121.5t-238 -42zM508 125q59 0 108 13.5t85 39.5t55.5 65t19.5 90v23q0 51 -19.5 89.5t-55.5 64.5t-85 39.5t-108 13.5t-108 -13.5t-85 -39.5
t-55.5 -64.5t-19.5 -89.5v-23q0 -51 19.5 -90t55.5 -65t85 -39.5t108 -13.5zM291 737l158 142h117l159 -142h-125l-127 113h67l-127 -113h-122zM408 909l116 133h178v-5l-164 -128h-130z" />
    <glyph glyph-name="uni1ED1" unicode="&#x1ed1;" horiz-adv-x="760" 
d="M380 -12q-103 0 -177.5 31t-115 92.5t-40.5 152.5q0 92 40.5 153t115 91.5t177.5 30.5t177.5 -30.5t115 -91.5t40.5 -153q0 -91 -40.5 -152.5t-115 -92.5t-177.5 -31zM380 102q54 0 92.5 18.5t58.5 52.5t20 81v20q0 48 -20 81.5t-58.5 51.5t-92.5 18q-55 0 -93 -18
t-58 -51.5t-20 -81.5v-20q0 -47 20 -81t58 -52.5t93 -18.5zM163 582l158 142h117l159 -142h-125l-127 113h67l-127 -113h-122zM268 774l115 133h178v-5l-164 -128h-129z" />
    <glyph glyph-name="uni1ED2" unicode="&#x1ed2;" horiz-adv-x="1016" 
d="M508 -12q-138 0 -238 42t-154 121.5t-54 192.5t54 192.5t154 121t238 41.5t238 -41.5t154 -121t54 -192.5t-54 -192.5t-154 -121.5t-238 -42zM508 125q59 0 108 13.5t85 39.5t55.5 65t19.5 90v23q0 51 -19.5 89.5t-55.5 64.5t-85 39.5t-108 13.5t-108 -13.5t-85 -39.5
t-55.5 -64.5t-19.5 -89.5v-23q0 -51 19.5 -90t55.5 -65t85 -39.5t108 -13.5zM291 737l158 142h117l159 -142h-125l-127 113h67l-127 -113h-122zM595 909h-129l-164 128v5h178z" />
    <glyph glyph-name="uni1ED3" unicode="&#x1ed3;" horiz-adv-x="760" 
d="M380 -12q-103 0 -177.5 31t-115 92.5t-40.5 152.5q0 92 40.5 153t115 91.5t177.5 30.5t177.5 -30.5t115 -91.5t40.5 -153q0 -91 -40.5 -152.5t-115 -92.5t-177.5 -31zM380 102q54 0 92.5 18.5t58.5 52.5t20 81v20q0 48 -20 81.5t-58.5 51.5t-92.5 18q-55 0 -93 -18
t-58 -51.5t-20 -81.5v-20q0 -47 20 -81t58 -52.5t93 -18.5zM163 582l158 142h117l159 -142h-125l-127 113h67l-127 -113h-122zM494 774h-129l-164 128v5h178z" />
    <glyph glyph-name="uni1ED4" unicode="&#x1ed4;" horiz-adv-x="1016" 
d="M508 -12q-138 0 -238 42t-154 121.5t-54 192.5t54 192.5t154 121t238 41.5t238 -41.5t154 -121t54 -192.5t-54 -192.5t-154 -121.5t-238 -42zM508 125q59 0 108 13.5t85 39.5t55.5 65t19.5 90v23q0 51 -19.5 89.5t-55.5 64.5t-85 39.5t-108 13.5t-108 -13.5t-85 -39.5
t-55.5 -64.5t-19.5 -89.5v-23q0 -51 19.5 -90t55.5 -65t85 -39.5t108 -13.5zM291 737l158 142h117l159 -142h-125l-127 113h67l-127 -113h-122zM467 903v58h6q29 0 37 3t8 11q0 13 -10.5 15.5t-31.5 2.5h-78v50q13 3 34 5t41.5 3t33.5 1q19 0 42.5 -3.5t44.5 -11t34.5 -20
t13.5 -33.5q0 -18 -13 -30t-34 -18t-46 -7v-26h-82z" />
    <glyph glyph-name="uni1ED5" unicode="&#x1ed5;" horiz-adv-x="760" 
d="M380 -12q-103 0 -177.5 31t-115 92.5t-40.5 152.5q0 92 40.5 153t115 91.5t177.5 30.5t177.5 -30.5t115 -91.5t40.5 -153q0 -91 -40.5 -152.5t-115 -92.5t-177.5 -31zM380 102q54 0 92.5 18.5t58.5 52.5t20 81v20q0 48 -20 81.5t-58.5 51.5t-92.5 18q-55 0 -93 -18
t-58 -51.5t-20 -81.5v-20q0 -47 20 -81t58 -52.5t93 -18.5zM163 582l158 142h117l159 -142h-125l-127 113h67l-127 -113h-122zM339 774v57h6q29 0 37 3t8 12q0 12 -11 15t-31 3h-78v49q13 3 33.5 5t41.5 3t34 1q19 0 42.5 -3t44.5 -10.5t34.5 -20.5t13.5 -33
q0 -18 -13 -30.5t-34 -18t-46 -6.5v-26h-82z" />
    <glyph glyph-name="uni1ED6" unicode="&#x1ed6;" horiz-adv-x="1016" 
d="M508 -12q-138 0 -238 42t-154 121.5t-54 192.5t54 192.5t154 121t238 41.5t238 -41.5t154 -121t54 -192.5t-54 -192.5t-154 -121.5t-238 -42zM508 125q59 0 108 13.5t85 39.5t55.5 65t19.5 90v23q0 51 -19.5 89.5t-55.5 64.5t-85 39.5t-108 13.5t-108 -13.5t-85 -39.5
t-55.5 -64.5t-19.5 -89.5v-23q0 -51 19.5 -90t55.5 -65t85 -39.5t108 -13.5zM291 737l158 142h117l159 -142h-125l-127 113h67l-127 -113h-122zM270 906q2 29 19 58.5t48.5 49.5t76.5 20q37 0 71.5 -10t67.5 -20.5t63 -10.5q23 0 36 12.5t17 28.5h77q-1 -28 -19 -58.5
t-50 -50.5t-76 -20q-36 0 -71 10.5t-67.5 20.5t-62.5 10q-24 0 -37 -12.5t-19 -27.5h-74z" />
    <glyph glyph-name="uni1ED7" unicode="&#x1ed7;" horiz-adv-x="760" 
d="M380 -12q-103 0 -177.5 31t-115 92.5t-40.5 152.5q0 92 40.5 153t115 91.5t177.5 30.5t177.5 -30.5t115 -91.5t40.5 -153q0 -91 -40.5 -152.5t-115 -92.5t-177.5 -31zM380 102q54 0 92.5 18.5t58.5 52.5t20 81v20q0 48 -20 81.5t-58.5 51.5t-92.5 18q-55 0 -93 -18
t-58 -51.5t-20 -81.5v-20q0 -47 20 -81t58 -52.5t93 -18.5zM163 582l158 142h117l159 -142h-125l-127 113h67l-127 -113h-122zM142 778q1 29 18 59t48.5 50t76.5 20q37 0 71.5 -10t67.5 -20.5t64 -10.5q23 0 36 12t17 29h76q-1 -29 -19 -59t-49.5 -50t-76.5 -20
q-35 0 -70 10.5t-68 20.5t-63 10q-23 0 -36.5 -12.5t-18.5 -28.5h-74z" />
    <glyph glyph-name="uni1ED8" unicode="&#x1ed8;" horiz-adv-x="1016" 
d="M508 -12q-138 0 -238 42t-154 121.5t-54 192.5t54 192.5t154 121t238 41.5t238 -41.5t154 -121t54 -192.5t-54 -192.5t-154 -121.5t-238 -42zM508 125q59 0 108 13.5t85 39.5t55.5 65t19.5 90v23q0 51 -19.5 89.5t-55.5 64.5t-85 39.5t-108 13.5t-108 -13.5t-85 -39.5
t-55.5 -64.5t-19.5 -89.5v-23q0 -51 19.5 -90t55.5 -65t85 -39.5t108 -13.5zM436 -198v122h144v-122h-144zM291 737l158 142h117l159 -142h-125l-127 113h67l-127 -113h-122z" />
    <glyph glyph-name="uni1ED9" unicode="&#x1ed9;" horiz-adv-x="760" 
d="M380 -12q-103 0 -177.5 31t-115 92.5t-40.5 152.5q0 92 40.5 153t115 91.5t177.5 30.5t177.5 -30.5t115 -91.5t40.5 -153q0 -91 -40.5 -152.5t-115 -92.5t-177.5 -31zM380 102q54 0 92.5 18.5t58.5 52.5t20 81v20q0 48 -20 81.5t-58.5 51.5t-92.5 18q-55 0 -93 -18
t-58 -51.5t-20 -81.5v-20q0 -47 20 -81t58 -52.5t93 -18.5zM308 -198v122h144v-122h-144zM163 582l158 142h117l159 -142h-125l-127 113h67l-127 -113h-122z" />
    <glyph glyph-name="uni1EDA" unicode="&#x1eda;" horiz-adv-x="1016" 
d="M508 -12q-138 0 -238 42t-154 121.5t-54 192.5t54 192.5t154 121t238 41.5t238 -41.5t154 -121t54 -192.5t-54 -192.5t-154 -121.5t-238 -42zM508 125q59 0 108 13.5t85 39.5t55.5 65t19.5 90v23q0 51 -19.5 89.5t-55.5 64.5t-85 39.5t-108 13.5t-108 -13.5t-85 -39.5
t-55.5 -64.5t-19.5 -89.5v-23q0 -51 19.5 -90t55.5 -65t85 -39.5t108 -13.5zM699 553v66q82 0 129 21t47 58h-71v123h159v-91q0 -56 -31.5 -96t-90.5 -60.5t-142 -20.5zM408 746l116 133h178v-5l-164 -128h-130z" />
    <glyph glyph-name="uni1EDB" unicode="&#x1edb;" horiz-adv-x="760" 
d="M380 -12q-103 0 -177.5 31t-115 92.5t-40.5 152.5q0 92 40.5 153t115 91.5t177.5 30.5t177.5 -30.5t115 -91.5t40.5 -153q0 -91 -40.5 -152.5t-115 -92.5t-177.5 -31zM380 102q54 0 92.5 18.5t58.5 52.5t20 81v20q0 48 -20 81.5t-58.5 51.5t-92.5 18q-55 0 -93 -18
t-58 -51.5t-20 -81.5v-20q0 -47 20 -81t58 -52.5t93 -18.5zM520 419v66q77 0 120.5 21.5t43.5 58.5h-70v122h159v-90q0 -57 -30 -96.5t-86.5 -60.5t-136.5 -21zM270 591l114 133h172v-5l-160 -128h-126z" />
    <glyph glyph-name="uni1EDC" unicode="&#x1edc;" horiz-adv-x="1016" 
d="M508 -12q-138 0 -238 42t-154 121.5t-54 192.5t54 192.5t154 121t238 41.5t238 -41.5t154 -121t54 -192.5t-54 -192.5t-154 -121.5t-238 -42zM508 125q59 0 108 13.5t85 39.5t55.5 65t19.5 90v23q0 51 -19.5 89.5t-55.5 64.5t-85 39.5t-108 13.5t-108 -13.5t-85 -39.5
t-55.5 -64.5t-19.5 -89.5v-23q0 -51 19.5 -90t55.5 -65t85 -39.5t108 -13.5zM699 553v66q82 0 129 21t47 58h-71v123h159v-91q0 -56 -31.5 -96t-90.5 -60.5t-142 -20.5zM595 746h-129l-164 128v5h178z" />
    <glyph glyph-name="uni1EDD" unicode="&#x1edd;" horiz-adv-x="760" 
d="M380 -12q-103 0 -177.5 31t-115 92.5t-40.5 152.5q0 92 40.5 153t115 91.5t177.5 30.5t177.5 -30.5t115 -91.5t40.5 -153q0 -91 -40.5 -152.5t-115 -92.5t-177.5 -31zM380 102q54 0 92.5 18.5t58.5 52.5t20 81v20q0 48 -20 81.5t-58.5 51.5t-92.5 18q-55 0 -93 -18
t-58 -51.5t-20 -81.5v-20q0 -47 20 -81t58 -52.5t93 -18.5zM520 419v66q77 0 120.5 21.5t43.5 58.5h-70v122h159v-90q0 -57 -30 -96.5t-86.5 -60.5t-136.5 -21zM494 591h-129l-164 128v5h178z" />
    <glyph glyph-name="uni1EDE" unicode="&#x1ede;" horiz-adv-x="1016" 
d="M508 -12q-137 0 -237.5 42t-154.5 121.5t-54 192.5t54 192.5t154.5 121t237.5 41.5q138 0 238 -41.5t154 -121t54 -192.5t-54 -192.5t-154 -121.5t-238 -42zM508 125q59 0 108 13.5t85 39.5t55.5 65.5t19.5 89.5v23q0 50 -19.5 89t-55.5 65t-85 39.5t-108 13.5
t-108 -13.5t-85 -39.5t-55.5 -65t-19.5 -89v-23q0 -50 19.5 -89.5t55.5 -65.5t85 -39.5t108 -13.5zM699 553v66q82 0 129 21t47 58h-71v123h159v-91q0 -56 -31.5 -96t-90.5 -60.5t-142 -20.5zM467 740v58h6q29 0 37 3t8 11q0 13 -11 15.5t-31 2.5h-78v50q13 3 34 4.5t41.5 3
t33.5 1.5q20 0 43 -3t44 -11t34.5 -20.5t13.5 -32.5q0 -19 -13 -31t-34 -18t-46 -7v-26h-82z" />
    <glyph glyph-name="uni1EDF" unicode="&#x1edf;" horiz-adv-x="760" 
d="M380 -12q-103 0 -177.5 31t-115 92.5t-40.5 152.5q0 92 40.5 153t115 91.5t177.5 30.5t177.5 -30.5t115 -91.5t40.5 -153q0 -91 -40.5 -152.5t-115 -92.5t-177.5 -31zM380 102q54 0 92.5 18.5t58.5 52.5t20 81v20q0 48 -20 81.5t-58.5 51.5t-92.5 18q-55 0 -93 -18
t-58 -51.5t-20 -81.5v-20q0 -47 20 -81t58 -52.5t93 -18.5zM520 419v66q77 0 120.5 21.5t43.5 58.5h-70v122h159v-90q0 -57 -30 -96.5t-86.5 -60.5t-136.5 -21zM339 591v58h6q29 0 37 3t8 11q0 13 -11 15.5t-31 2.5h-78v49q13 3 33.5 5t41.5 3t34 1q19 0 42.5 -3t44.5 -10.5
t34.5 -20t13.5 -33.5q0 -18 -13 -30t-34 -18t-46 -7v-26h-82z" />
    <glyph glyph-name="uni1EE0" unicode="&#x1ee0;" horiz-adv-x="1016" 
d="M508 -12q-138 0 -238 42t-154 121.5t-54 192.5t54 192.5t154 121t238 41.5t238 -41.5t154 -121t54 -192.5t-54 -192.5t-154 -121.5t-238 -42zM508 125q59 0 108 13.5t85 39.5t55.5 65t19.5 90v23q0 51 -19.5 89.5t-55.5 64.5t-85 39.5t-108 13.5t-108 -13.5t-85 -39.5
t-55.5 -64.5t-19.5 -89.5v-23q0 -51 19.5 -90t55.5 -65t85 -39.5t108 -13.5zM699 553v66q82 0 129 21t47 58h-71v123h159v-91q0 -56 -31.5 -96t-90.5 -60.5t-142 -20.5zM276 743q2 29 18.5 59t47 50t74.5 20q36 0 70 -10.5t66 -21t62 -10.5q22 0 34.5 12.5t17.5 29.5h74
q-1 -29 -18.5 -59.5t-48.5 -50.5t-74 -20q-35 0 -69 10.5t-66.5 21t-61.5 10.5q-23 0 -36 -12.5t-18 -28.5h-72z" />
    <glyph glyph-name="uni1EE1" unicode="&#x1ee1;" horiz-adv-x="760" 
d="M380 -12q-103 0 -177.5 31t-115 92.5t-40.5 152.5q0 92 40.5 153t115 91.5t177.5 30.5t177.5 -30.5t115 -91.5t40.5 -153q0 -91 -40.5 -152.5t-115 -92.5t-177.5 -31zM380 102q54 0 92.5 18.5t58.5 52.5t20 81v20q0 48 -20 81.5t-58.5 51.5t-92.5 18q-55 0 -93 -18
t-58 -51.5t-20 -81.5v-20q0 -47 20 -81t58 -52.5t93 -18.5zM520 419v66q77 0 120.5 21.5t43.5 58.5h-70v122h159v-90q0 -57 -30 -96.5t-86.5 -60.5t-136.5 -21zM169 596q1 28 16 58t43 50t68 20q32 0 63 -10t60.5 -20.5t56.5 -10.5q20 0 31 12.5t17 28.5h66q0 -29 -16 -59
t-44.5 -50t-67.5 -20q-31 0 -62.5 10.5t-61 20.5t-54.5 10q-22 0 -33.5 -12.5t-16.5 -27.5h-65z" />
    <glyph glyph-name="uni1EE2" unicode="&#x1ee2;" horiz-adv-x="1016" 
d="M508 -12q-137 0 -237.5 42t-154.5 121.5t-54 192.5t54 192.5t154.5 121t237.5 41.5q138 0 238 -41.5t154 -121t54 -192.5t-54 -192.5t-154 -121.5t-238 -42zM508 125q59 0 108 13.5t85 39.5t55.5 65.5t19.5 89.5v23q0 50 -19.5 89t-55.5 65t-85 39.5t-108 13.5
t-108 -13.5t-85 -39.5t-55.5 -65t-19.5 -89v-23q0 -50 19.5 -89.5t55.5 -65.5t85 -39.5t108 -13.5zM699 553v66q82 0 129 21t47 58h-71v123h159v-91q0 -56 -31.5 -96t-90.5 -60.5t-142 -20.5zM436 -198v122h144v-122h-144z" />
    <glyph glyph-name="uni1EE3" unicode="&#x1ee3;" horiz-adv-x="760" 
d="M380 -12q-103 0 -177.5 31t-115 92.5t-40.5 152.5q0 92 40.5 153t115 91.5t177.5 30.5t177.5 -30.5t115 -91.5t40.5 -153q0 -91 -40.5 -152.5t-115 -92.5t-177.5 -31zM380 102q54 0 92.5 18.5t58.5 52.5t20 81v20q0 48 -20 81.5t-58.5 51.5t-92.5 18q-55 0 -93 -18
t-58 -51.5t-20 -81.5v-20q0 -47 20 -81t58 -52.5t93 -18.5zM520 419v66q77 0 120.5 21.5t43.5 58.5h-70v122h159v-90q0 -57 -30 -96.5t-86.5 -60.5t-136.5 -21zM308 -198v122h144v-122h-144z" />
    <glyph glyph-name="uni1EE4" unicode="&#x1ee4;" horiz-adv-x="954" 
d="M477 -12q-132 0 -218.5 40t-129 114t-42.5 176v369h173v-361q0 -96 56.5 -148.5t160.5 -52.5t160.5 52.5t56.5 148.5v361h172v-369q0 -102 -42 -176t-128.5 -114t-218.5 -40zM405 -198v122h144v-122h-144z" />
    <glyph glyph-name="uni1EE5" unicode="&#x1ee5;" horiz-adv-x="732" 
d="M291 -12q-111 0 -168.5 53.5t-57.5 162.5v323h157v-298q0 -31 8.5 -53.5t25 -36.5t40 -20t52.5 -6q42 0 78 17t58 48t22 71v278h157v-527h-126l-11 89h-9q-28 -38 -65.5 -60t-78.5 -31.5t-82 -9.5zM294 -198v122h144v-122h-144z" />
    <glyph glyph-name="uni1EE6" unicode="&#x1ee6;" horiz-adv-x="954" 
d="M477 -12q-132 0 -218.5 40t-129 114t-42.5 176v369h173v-361q0 -96 56.5 -148.5t160.5 -52.5t160.5 52.5t56.5 148.5v361h172v-369q0 -102 -42 -176t-128.5 -114t-218.5 -40zM436 740v58h6q29 0 37 3t8 11q0 13 -10.5 15.5t-31.5 2.5h-78v50q13 3 34 5t42 3t33 1
q20 0 43.5 -3t44 -11t34.5 -20.5t14 -32.5q0 -19 -13.5 -31t-34.5 -18t-46 -7v-26h-82z" />
    <glyph glyph-name="uni1EE7" unicode="&#x1ee7;" horiz-adv-x="732" 
d="M291 -12q-111 0 -168.5 53.5t-57.5 162.5v323h157v-298q0 -31 8.5 -53.5t25 -36.5t40 -20t52.5 -6q42 0 78 17t58 48t22 71v278h157v-527h-126l-11 89h-9q-28 -38 -65.5 -60t-78.5 -31.5t-82 -9.5zM325 591v58h6q28 0 36.5 3t8.5 11q0 13 -11 15.5t-31 2.5h-79v49
q14 3 34.5 5t41.5 3t34 1q19 0 42.5 -3t44.5 -10.5t34.5 -20t13.5 -33.5q0 -18 -13 -30t-34 -18t-47 -7v-26h-81z" />
    <glyph glyph-name="uni1EE8" unicode="&#x1ee8;" horiz-adv-x="954" 
d="M477 -12q-132 0 -218.5 40t-129 114t-42.5 176v369h173v-361q0 -96 56.5 -148.5t160.5 -52.5t160.5 52.5t56.5 148.5v361h172v-369q0 -102 -42 -176t-128.5 -114t-218.5 -40zM707 621v66q81 0 128 21.5t47 58.5h-70v122h159v-90q0 -57 -31.5 -96.5t-90.5 -60.5t-142 -21z
M377 746l116 133h178v-5l-164 -128h-130z" />
    <glyph glyph-name="uni1EE9" unicode="&#x1ee9;" horiz-adv-x="732" 
d="M291 -12q-111 0 -168.5 53.5t-57.5 162.5v323h157v-298q0 -31 8.5 -53.5t25 -36.5t40 -20t52.5 -6q42 0 78 17t58 48t22 71v278h157v-527h-126l-11 89h-9q-28 -38 -65.5 -60t-78.5 -31.5t-82 -9.5zM520 461v66q77 0 121 21.5t44 58.5h-71v122h159v-90q0 -57 -30 -96.5
t-86.5 -60.5t-136.5 -21zM253 591l116 133h178v-5l-164 -128h-130z" />
    <glyph glyph-name="uni1EEA" unicode="&#x1eea;" horiz-adv-x="954" 
d="M477 -12q-132 0 -218.5 40t-129 114t-42.5 176v369h173v-361q0 -96 56.5 -148.5t160.5 -52.5t160.5 52.5t56.5 148.5v361h172v-369q0 -102 -42 -176t-128.5 -114t-218.5 -40zM707 621v66q81 0 128 21.5t47 58.5h-70v122h159v-90q0 -57 -31.5 -96.5t-90.5 -60.5t-142 -21z
M564 746h-129l-164 128v5h178z" />
    <glyph glyph-name="uni1EEB" unicode="&#x1eeb;" horiz-adv-x="732" 
d="M291 -12q-111 0 -168.5 53.5t-57.5 162.5v323h157v-298q0 -31 8.5 -53.5t25 -36.5t40 -20t52.5 -6q42 0 78 17t58 48t22 71v278h157v-527h-126l-11 89h-9q-28 -38 -65.5 -60t-78.5 -31.5t-82 -9.5zM520 461v66q77 0 121 21.5t44 58.5h-71v122h159v-90q0 -57 -30 -96.5
t-86.5 -60.5t-136.5 -21zM480 591h-129l-164 128v5h178z" />
    <glyph glyph-name="uni1EEC" unicode="&#x1eec;" horiz-adv-x="954" 
d="M477 -12q-132 0 -218.5 40t-129 114t-42.5 176v369h173v-361q0 -96 56.5 -148.5t160.5 -52.5t160.5 52.5t56.5 148.5v361h172v-369q0 -102 -42 -176t-128.5 -114t-218.5 -40zM707 621v66q81 0 128 21.5t47 58.5h-70v122h159v-90q0 -57 -31.5 -96.5t-90.5 -60.5t-142 -21z
M436 740v58h6q29 0 37 3t8 11q0 13 -10.5 15.5t-31.5 2.5h-78v50q13 3 34 5t42 3t33 1q20 0 43.5 -3t44 -11t34.5 -20.5t14 -32.5q0 -19 -13.5 -31t-34.5 -18t-46 -7v-26h-82z" />
    <glyph glyph-name="uni1EED" unicode="&#x1eed;" horiz-adv-x="732" 
d="M291 -12q-111 0 -168.5 53.5t-57.5 162.5v323h157v-298q0 -31 8.5 -53.5t25 -36.5t40 -20t52.5 -6q42 0 78 17t58 48t22 71v278h157v-527h-126l-11 89h-9q-28 -38 -65.5 -60t-78.5 -31.5t-82 -9.5zM520 461v66q77 0 121 21.5t44 58.5h-71v122h159v-90q0 -57 -30 -96.5
t-86.5 -60.5t-136.5 -21zM325 591v58h6q28 0 36.5 3t8.5 11q0 13 -11 15.5t-31 2.5h-79v49q14 3 34.5 5t41.5 3t34 1q19 0 42.5 -3t44.5 -10.5t34.5 -20t13.5 -33.5q0 -18 -13 -30t-34 -18t-47 -7v-26h-81z" />
    <glyph glyph-name="uni1EEE" unicode="&#x1eee;" horiz-adv-x="954" 
d="M477 -12q-132 0 -218.5 40t-129 114t-42.5 176v369h173v-361q0 -96 56.5 -148.5t160.5 -52.5t160.5 52.5t56.5 148.5v361h172v-369q0 -102 -42 -176t-128.5 -114t-218.5 -40zM707 621v66q81 0 128 21.5t47 58.5h-70v122h159v-90q0 -57 -31.5 -96.5t-90.5 -60.5t-142 -21z
M245 743q2 29 18.5 59t47 50t74.5 20q36 0 70 -10.5t66 -21t62 -10.5q22 0 34.5 12.5t17.5 29.5h74q-1 -29 -18.5 -59.5t-48.5 -50.5t-74 -20q-35 0 -69 10.5t-66.5 21t-60.5 10.5q-24 0 -36.5 -12.5t-18.5 -28.5h-72z" />
    <glyph glyph-name="uni1EEF" unicode="&#x1eef;" horiz-adv-x="732" 
d="M291 -12q-111 0 -168.5 53.5t-57.5 162.5v323h157v-298q0 -31 8.5 -53.5t25 -36.5t40 -20t52.5 -6q42 0 78 17t58 48t22 71v278h157v-527h-126l-11 89h-9q-28 -38 -65.5 -60t-78.5 -31.5t-82 -9.5zM520 461v66q77 0 121 21.5t44 58.5h-71v122h159v-90q0 -57 -30 -96.5
t-86.5 -60.5t-136.5 -21zM157 596q1 28 16.5 58t42.5 50t67 20q31 0 62 -10t60 -20.5t56 -10.5q19 0 30 12.5t16 28.5h66q-1 -29 -16 -59t-43 -50t-67 -20q-31 0 -62 10.5t-60 20.5t-54 10q-21 0 -33 -12.5t-16 -27.5h-65z" />
    <glyph glyph-name="uni1EF0" unicode="&#x1ef0;" horiz-adv-x="954" 
d="M477 -12q-132 0 -218.5 40t-129 114t-42.5 176v369h173v-361q0 -96 56.5 -148.5t160.5 -52.5t160.5 52.5t56.5 148.5v361h172v-369q0 -102 -42 -176t-128.5 -114t-218.5 -40zM707 621v66q81 0 128 21.5t47 58.5h-70v122h159v-90q0 -57 -31.5 -96.5t-90.5 -60.5t-142 -21z
M405 -198v122h144v-122h-144z" />
    <glyph glyph-name="uni1EF1" unicode="&#x1ef1;" horiz-adv-x="732" 
d="M291 -12q-111 0 -168.5 53.5t-57.5 162.5v323h157v-298q0 -31 8.5 -53.5t25 -36.5t40 -20t52.5 -6q42 0 78 17t58 48t22 71v278h157v-527h-126l-11 89h-9q-28 -38 -65.5 -60t-78.5 -31.5t-82 -9.5zM520 461v66q77 0 121 21.5t44 58.5h-71v122h159v-90q0 -57 -30 -96.5
t-86.5 -60.5t-136.5 -21zM294 -198v122h144v-122h-144z" />
    <glyph glyph-name="Ygrave" unicode="&#x1ef2;" horiz-adv-x="884" 
d="M355 0v276l-337 411h206l217 -275h10l219 275h196l-338 -411v-276h-173zM530 746h-130l-164 128v5h178z" />
    <glyph glyph-name="ygrave" unicode="&#x1ef3;" horiz-adv-x="674" 
d="M146 -201q-30 0 -54.5 5t-45.5 13v97h75q44 0 70 10t41.5 29.5t28.5 46.5l-257 527h171l109 -250q8 -17 19 -42.5t22 -51.5t19 -46h8q1 3 6.5 19t14.5 38t18 45t16 41l99 247h164l-218 -478q-26 -57 -52 -103t-59.5 -79t-80.5 -50.5t-114 -17.5zM452 591h-130l-163 128v5
h177z" />
    <glyph glyph-name="uni1EF4" unicode="&#x1ef4;" horiz-adv-x="884" 
d="M355 0v276l-337 411h206l217 -275h10l219 275h196l-338 -411v-276h-173zM371 -198v122h143v-122h-143z" />
    <glyph glyph-name="uni1EF5" unicode="&#x1ef5;" horiz-adv-x="674" 
d="M146 -201q-30 0 -54.5 5t-45.5 13v97h75q44 0 70 10t41.5 29.5t28.5 46.5l-257 527h171l109 -250q8 -17 19 -42.5t22 -51.5t19 -46h8q1 3 6.5 19t14.5 38t18 45t16 41l99 247h164l-218 -478q-26 -57 -52 -103t-59.5 -79t-80.5 -50.5t-114 -17.5zM476 -198v122h144v-122
h-144z" />
    <glyph glyph-name="uni1EF6" unicode="&#x1ef6;" horiz-adv-x="884" 
d="M355 0v276l-337 411h206l217 -275h10l219 275h196l-338 -411v-276h-173zM401 740v58h7q28 0 36.5 3t8.5 11q0 13 -11 15.5t-32 2.5h-78v50q13 3 34 5t42 3t33 1q20 0 43.5 -3t44.5 -11t34.5 -20.5t13.5 -32.5q0 -19 -13.5 -31t-34.5 -18t-46 -7v-26h-82z" />
    <glyph glyph-name="uni1EF7" unicode="&#x1ef7;" horiz-adv-x="674" 
d="M146 -201q-30 0 -54.5 5t-45.5 13v97h75q44 0 70 10t41.5 29.5t28.5 46.5l-257 527h171l109 -250q8 -17 19 -42.5t22 -51.5t19 -46h8q1 3 6.5 19t14.5 38t18 45t16 41l99 247h164l-218 -478q-26 -57 -52 -103t-59.5 -79t-80.5 -50.5t-114 -17.5zM296 591v58h7q28 0 36 3
t8 11q0 13 -10.5 15.5t-31.5 2.5h-78v49q13 3 34 5t42 3t33 1q20 0 43.5 -3t44.5 -10.5t34.5 -20t13.5 -33.5q0 -18 -13.5 -30t-34.5 -18t-46 -7v-26h-82z" />
    <glyph glyph-name="uni1EF8" unicode="&#x1ef8;" horiz-adv-x="884" 
d="M355 0v276l-337 411h206l217 -275h10l219 275h196l-338 -411v-276h-173zM205 743q1 29 18 59t48.5 50t76.5 20q37 0 71.5 -10.5t67.5 -21t64 -10.5q23 0 35.5 12.5t17.5 29.5h76q-1 -29 -19 -59.5t-49.5 -50.5t-76.5 -20q-35 0 -70 10.5t-68 21t-63 10.5q-24 0 -37 -12.5
t-18 -28.5h-74z" />
    <glyph glyph-name="uni1EF9" unicode="&#x1ef9;" horiz-adv-x="674" 
d="M146 -201q-30 0 -54.5 5t-45.5 13v97h75q44 0 70 10t41.5 29.5t28.5 46.5l-257 527h171l109 -250q8 -17 19 -42.5t22 -51.5t19 -46h8q1 3 6.5 19t14.5 38t18 45t16 41l99 247h164l-218 -478q-26 -57 -52 -103t-59.5 -79t-80.5 -50.5t-114 -17.5zM99 596q2 28 18.5 58
t48.5 50t77 20q37 0 71.5 -10t67.5 -20.5t63 -10.5q23 0 36 12.5t17 28.5h77q-1 -29 -19 -59t-50 -50t-76 -20q-36 0 -71 10.5t-68 20.5t-62 10q-24 0 -37 -12.5t-19 -27.5h-74z" />
    <glyph glyph-name="uni2009" unicode="&#x2009;" horiz-adv-x="211" 
 />
    <glyph glyph-name="uni2010" unicode="&#x2010;" horiz-adv-x="600" 
d="M47 212v123h243v-123h-243z" />
    <glyph glyph-name="uni2011" unicode="&#x2011;" horiz-adv-x="416" 
d="M50 205v139h316v-139h-316z" />
    <glyph glyph-name="endash" unicode="&#x2013;" horiz-adv-x="625" 
d="M0 207v120h625v-120h-625z" />
    <glyph glyph-name="emdash" unicode="&#x2014;" horiz-adv-x="1250" 
d="M0 207v119h1250v-119h-1250z" />
    <glyph glyph-name="uni2015" unicode="&#x2015;" horiz-adv-x="848" 
d="M12 212v108h824v-108h-824z" />
    <glyph glyph-name="underscoredbl" unicode="&#x2017;" horiz-adv-x="638" 
d="M0 -138v83h638v-83h-638zM0 -281v84h638v-84h-638z" />
    <glyph glyph-name="quoteleft" unicode="&#x2018;" horiz-adv-x="292" 
d="M237 687v-71q-22 -3 -40.5 -16.5t-29.5 -36t-11 -54.5h74v-155h-167v137q0 70 25.5 111.5t65.5 61.5t83 23z" />
    <glyph glyph-name="quoteright" unicode="&#x2019;" horiz-adv-x="292" 
d="M55 354v71q22 3 40.5 16.5t29.5 36.5t11 55h-74v154h167v-136q0 -69 -25.5 -111t-65.5 -61.5t-83 -24.5z" />
    <glyph glyph-name="quotesinglbase" unicode="&#x201a;" horiz-adv-x="292" 
d="M55 -179v71q22 3 40.5 16.5t29.5 36.5t11 55h-74v154h167v-136q0 -69 -25.5 -111t-65.5 -61.5t-83 -24.5z" />
    </font>
</defs>
</svg>
